<ttFont>
    <TTGlyph name="asciitilde" xMin="101" yMin="202" xMax="447" yMax="349">
      <contour>
        <pt x="431" y="349" on="1"/>
        <pt x="447" y="349" on="1"/>
        <pt x="440" y="202" on="0"/>
        <pt x="363" y="202" on="1"/>
        <pt x="337" y="202" on="0"/>
        <pt x="197" y="284" on="0"/>
        <pt x="176" y="284" on="1"/>
        <pt x="131" y="284" on="0"/>
        <pt x="120" y="202" on="1"/>
        <pt x="101" y="202" on="1"/>
        <pt x="108" y="349" on="0"/>
        <pt x="185" y="349" on="1"/>
        <pt x="220" y="349" on="0"/>
        <pt x="351" y="267" on="0"/>
        <pt x="372" y="267" on="1"/>
        <pt x="426" y="267" on="0"/>
      </contour>
    </TTGlyph>
    <TTGlyph name="asterisk" xMin="8" yMin="80" xMax="322" yMax="434">
      <contour>
        <pt x="157" y="273" on="1"/>
        <pt x="157" y="322" on="0"/>
        <pt x="131" y="390" on="1"/>
        <pt x="143" y="422" on="1"/>
        <pt x="168" y="434" on="1"/>
        <pt x="192" y="422" on="1"/>
        <pt x="201" y="390" on="1"/>
        <pt x="196" y="378" on="0"/>
        <pt x="178" y="273" on="1"/>
        <pt x="206" y="301" on="0"/>
        <pt x="262" y="352" on="1"/>
        <pt x="280" y="357" on="0"/>
        <pt x="292" y="357" on="1"/>
        <pt x="322" y="357" on="0"/>
        <pt x="322" y="324" on="1"/>
        <pt x="322" y="296" on="0"/>
        <pt x="182" y="259" on="1"/>
        <pt x="224" y="245" on="0"/>
        <pt x="306" y="217" on="1"/>
        <pt x="322" y="185" on="1"/>
        <pt x="311" y="161" on="1"/>
        <pt x="306" y="159" on="0"/>
        <pt x="297" y="157" on="0"/>
        <pt x="292" y="154" on="1"/>
        <pt x="266" y="154" on="0"/>
        <pt x="178" y="243" on="1"/>
        <pt x="178" y="215" on="0"/>
        <pt x="201" y="122" on="1"/>
        <pt x="187" y="80" on="0"/>
        <pt x="168" y="80" on="1"/>
        <pt x="131" y="80" on="0"/>
        <pt x="131" y="122" on="1"/>
        <pt x="131" y="140" on="0"/>
        <pt x="157" y="222" on="0"/>
        <pt x="157" y="243" on="1"/>
        <pt x="157" y="243" on="0"/>
        <pt x="66" y="159" on="1"/>
        <pt x="43" y="154" on="1"/>
        <pt x="19" y="166" on="1"/>
        <pt x="8" y="185" on="1"/>
        <pt x="17" y="208" on="1"/>
        <pt x="36" y="224" on="0"/>
        <pt x="131" y="250" on="0"/>
        <pt x="148" y="259" on="1"/>
        <pt x="108" y="271" on="0"/>
        <pt x="68" y="280" on="1"/>
        <pt x="17" y="299" on="0"/>
        <pt x="8" y="329" on="1"/>
        <pt x="19" y="352" on="1"/>
        <pt x="40" y="359" on="1"/>
        <pt x="73" y="352" on="1"/>
        <pt x="87" y="338" on="0"/>
      </contour>
    </TTGlyph>
    <TTGlyph name="at" xMin="64" yMin="-215" xMax="856" yMax="636">
      <contour>
        <pt x="662" y="423" on="1"/>
        <pt x="566" y="89" on="0"/>
        <pt x="566" y="68" on="1"/>
        <pt x="566" y="33" on="0"/>
        <pt x="601" y="33" on="1"/>
        <pt x="683" y="33" on="0"/>
        <pt x="744" y="145" on="1"/>
        <pt x="795" y="239" on="0"/>
        <pt x="795" y="332" on="1"/>
        <pt x="795" y="458" on="0"/>
        <pt x="625" y="613" on="0"/>
        <pt x="499" y="613" on="1"/>
        <pt x="326" y="613" on="0"/>
        <pt x="106" y="353" on="0"/>
        <pt x="106" y="178" on="1"/>
        <pt x="106" y="17" on="0"/>
        <pt x="302" y="-187" on="0"/>
        <pt x="464" y="-187" on="1"/>
        <pt x="723" y="-187" on="0"/>
        <pt x="831" y="66" on="1"/>
        <pt x="856" y="66" on="1"/>
        <pt x="819" y="-61" on="0"/>
        <pt x="597" y="-215" on="0"/>
        <pt x="461" y="-215" on="1"/>
        <pt x="288" y="-215" on="0"/>
        <pt x="64" y="17" on="0"/>
        <pt x="64" y="190" on="1"/>
        <pt x="64" y="377" on="0"/>
        <pt x="309" y="636" on="0"/>
        <pt x="496" y="636" on="1"/>
        <pt x="637" y="636" on="0"/>
        <pt x="821" y="461" on="0"/>
        <pt x="821" y="323" on="1"/>
        <pt x="821" y="201" on="0"/>
        <pt x="756" y="108" on="1"/>
        <pt x="683" y="0" on="0"/>
        <pt x="569" y="0" on="1"/>
        <pt x="501" y="0" on="0"/>
        <pt x="501" y="70" on="1"/>
        <pt x="501" y="91" on="0"/>
        <pt x="508" y="131" on="1"/>
        <pt x="396" y="0" on="0"/>
        <pt x="328" y="0" on="1"/>
        <pt x="291" y="0" on="0"/>
        <pt x="246" y="66" on="0"/>
        <pt x="246" y="105" on="1"/>
        <pt x="246" y="201" on="0"/>
        <pt x="323" y="309" on="1"/>
        <pt x="405" y="426" on="0"/>
        <pt x="496" y="426" on="1"/>
        <pt x="562" y="426" on="0"/>
        <pt x="576" y="363" on="1"/>
        <pt x="590" y="414" on="1"/>
      </contour>
      <contour>
        <pt x="501" y="405" on="1"/>
        <pt x="438" y="405" on="0"/>
        <pt x="375" y="292" on="1"/>
        <pt x="319" y="192" on="0"/>
        <pt x="319" y="119" on="1"/>
        <pt x="319" y="56" on="0"/>
        <pt x="370" y="56" on="1"/>
        <pt x="443" y="56" on="0"/>
        <pt x="503" y="164" on="1"/>
        <pt x="559" y="260" on="0"/>
        <pt x="559" y="339" on="1"/>
        <pt x="559" y="405" on="0"/>
      </contour>
    </TTGlyph>
    <TTGlyph name="bar" xMin="135" yMin="-367" xMax="221" yMax="813">
      <contour>
        <pt x="135" y="813" on="1"/>
        <pt x="221" y="813" on="1"/>
        <pt x="221" y="-367" on="1"/>
        <pt x="135" y="-367" on="1"/>
      </contour>
    </TTGlyph>
    <TTGlyph name="equal" xMin="135" yMin="166" xMax="944" yMax="404">
      <contour>
        <pt x="944" y="231" on="1"/>
        <pt x="944" y="166" on="1"/>
        <pt x="135" y="166" on="1"/>
        <pt x="135" y="231" on="1"/>
      </contour>
      <contour>
        <pt x="944" y="404" on="1"/>
        <pt x="944" y="338" on="1"/>
        <pt x="135" y="338" on="1"/>
        <pt x="135" y="404" on="1"/>
      </contour>
    </TTGlyph>
    <TTGlyph name="guru" xMin="59" yMin="48" xMax="1013" yMax="525">
      <contour>
        <pt x="1013" y="525" on="1"/>
        <pt x="997" y="314" on="0"/>
        <pt x="873" y="186" on="1"/>
        <pt x="742" y="48" on="0"/>
        <pt x="536" y="48" on="1"/>
        <pt x="330" y="48" on="0"/>
        <pt x="199" y="186" on="1"/>
        <pt x="75" y="314" on="0"/>
        <pt x="59" y="525" on="1"/>
        <pt x="106" y="525" on="1"/>
        <pt x="183" y="197" on="0"/>
        <pt x="536" y="197" on="1"/>
        <pt x="889" y="197" on="0"/>
        <pt x="966" y="525" on="1"/>
      </contour>
    </TTGlyph>
    <TTGlyph name="guru_lagu" xMin="91" yMin="-112" xMax="1042" yMax="522">
      <contour>
        <pt x="1040" y="-112" on="1"/>
        <pt x="115" y="-112" on="1"/>
        <pt x="115" y="-21" on="1"/>
        <pt x="1040" y="-21" on="1"/>
      </contour>
      <contour>
        <pt x="1042" y="522" on="1"/>
        <pt x="1023" y="310" on="0"/>
        <pt x="904" y="182" on="1"/>
        <pt x="776" y="49" on="0"/>
        <pt x="567" y="49" on="1"/>
        <pt x="359" y="49" on="0"/>
        <pt x="231" y="182" on="1"/>
        <pt x="110" y="308" on="0"/>
        <pt x="91" y="522" on="1"/>
        <pt x="138" y="522" on="1"/>
        <pt x="215" y="194" on="0"/>
        <pt x="567" y="194" on="1"/>
        <pt x="918" y="194" on="0"/>
        <pt x="995" y="522" on="1"/>
      </contour>
    </TTGlyph>
    <TTGlyph name="hyphen" xMin="135" yMin="286" xMax="673" yMax="337">
      <contour>
        <pt x="673" y="337" on="1"/>
        <pt x="673" y="286" on="1"/>
        <pt x="135" y="286" on="1"/>
        <pt x="135" y="337" on="1"/>
      </contour>
    </TTGlyph>
    <TTGlyph name="lagu" xMin="135" yMin="281" xMax="1091" yMax="370">
      <contour>
        <pt x="1091" y="281" on="1"/>
        <pt x="135" y="281" on="1"/>
        <pt x="135" y="370" on="1"/>
        <pt x="1091" y="370" on="1"/>
      </contour>
    </TTGlyph>
    <TTGlyph name="modre" xMin="12" yMin="-16" xMax="1081" yMax="1421">
      <contour>
        <pt x="604" y="-9" on="1"/>
        <pt x="586" y="100" on="0"/>
        <pt x="572" y="143" on="1"/>
        <pt x="547" y="229" on="0"/>
        <pt x="496" y="270" on="1"/>
        <pt x="457" y="246" on="0"/>
        <pt x="447" y="229" on="1"/>
        <pt x="425" y="238" on="1"/>
        <pt x="444" y="295" on="0"/>
        <pt x="491" y="383" on="1"/>
        <pt x="555" y="343" on="0"/>
        <pt x="594" y="209" on="1"/>
        <pt x="624" y="102" on="0"/>
        <pt x="624" y="-1" on="1"/>
      </contour>
      <contour>
        <pt x="689" y="-16" on="1"/>
        <pt x="824" y="123" on="0"/>
        <pt x="824" y="261" on="1"/>
        <pt x="824" y="476" on="0"/>
        <pt x="558" y="476" on="1"/>
        <pt x="262" y="476" on="0"/>
        <pt x="262" y="270" on="1"/>
        <pt x="262" y="89" on="0"/>
        <pt x="376" y="-12" on="1"/>
        <pt x="325" y="-16" on="1"/>
        <pt x="127" y="-16" on="0"/>
        <pt x="127" y="266" on="1"/>
        <pt x="127" y="294" on="0"/>
        <pt x="143" y="405" on="0"/>
        <pt x="143" y="434" on="1"/>
        <pt x="143" y="485" on="0"/>
        <pt x="99" y="495" on="1"/>
        <pt x="43" y="481" on="0"/>
        <pt x="43" y="408" on="1"/>
        <pt x="43" y="392" on="0"/>
        <pt x="50" y="329" on="0"/>
        <pt x="50" y="315" on="1"/>
        <pt x="24" y="315" on="1"/>
        <pt x="12" y="403" on="0"/>
        <pt x="12" y="424" on="1"/>
        <pt x="12" y="495" on="0"/>
        <pt x="38" y="545" on="1"/>
        <pt x="70" y="613" on="0"/>
        <pt x="131" y="613" on="1"/>
        <pt x="190" y="613" on="0"/>
        <pt x="190" y="510" on="1"/>
        <pt x="190" y="469" on="0"/>
        <pt x="159" y="303" on="0"/>
        <pt x="159" y="261" on="1"/>
        <pt x="159" y="77" on="0"/>
        <pt x="262" y="48" on="1"/>
        <pt x="276" y="53" on="1"/>
        <pt x="229" y="177" on="0"/>
        <pt x="229" y="268" on="1"/>
        <pt x="229" y="422" on="0"/>
        <pt x="400" y="616" on="0"/>
        <pt x="554" y="616" on="1"/>
        <pt x="694" y="616" on="0"/>
        <pt x="864" y="432" on="0"/>
        <pt x="864" y="292" on="1"/>
        <pt x="864" y="217" on="0"/>
        <pt x="787" y="51" on="1"/>
        <pt x="927" y="51" on="0"/>
        <pt x="927" y="343" on="1"/>
        <pt x="927" y="439" on="0"/>
        <pt x="895" y="616" on="1"/>
        <pt x="1013" y="616" on="0"/>
        <pt x="1056" y="490" on="1"/>
        <pt x="1081" y="415" on="0"/>
        <pt x="1081" y="263" on="1"/>
        <pt x="1081" y="-16" on="1"/>
        <pt x="1051" y="-16" on="1"/>
        <pt x="1056" y="123" on="0"/>
        <pt x="1056" y="194" on="1"/>
        <pt x="1056" y="441" on="0"/>
        <pt x="962" y="473" on="1"/>
        <pt x="953" y="469" on="1"/>
        <pt x="959" y="280" on="0"/>
        <pt x="959" y="278" on="1"/>
        <pt x="959" y="126" on="0"/>
        <pt x="902" y="58" on="1"/>
        <pt x="836" y="-16" on="0"/>
      </contour>
      <contour>
        <pt x="455" y="1127" on="1"/>
        <pt x="511" y="1108" on="0"/>
        <pt x="567" y="1108" on="1"/>
        <pt x="631" y="1108" on="0"/>
        <pt x="670" y="1129" on="1"/>
        <pt x="655" y="1271" on="0"/>
        <pt x="558" y="1271" on="1"/>
        <pt x="467" y="1271" on="0"/>
      </contour>
      <contour>
        <pt x="318" y="1274" on="1"/>
        <pt x="342" y="1276" on="1"/>
        <pt x="346" y="1244" on="0"/>
        <pt x="391" y="1159" on="0"/>
        <pt x="416" y="1146" on="1"/>
        <pt x="430" y="1147" on="1"/>
        <pt x="449" y="1295" on="0"/>
        <pt x="549" y="1308" on="1"/>
        <pt x="554" y="1421" on="1"/>
        <pt x="577" y="1421" on="1"/>
        <pt x="577" y="1308" on="1"/>
        <pt x="687" y="1290" on="0"/>
        <pt x="696" y="1141" on="1"/>
        <pt x="710" y="1139" on="1"/>
        <pt x="770" y="1183" on="0"/>
        <pt x="787" y="1276" on="1"/>
        <pt x="810" y="1281" on="1"/>
        <pt x="810" y="1171" on="0"/>
        <pt x="670" y="1026" on="0"/>
        <pt x="560" y="1026" on="1"/>
        <pt x="457" y="1026" on="0"/>
        <pt x="322" y="1171" on="0"/>
      </contour>
      <contour>
        <pt x="498" y="648" on="1"/>
        <pt x="369" y="688" on="0"/>
        <pt x="264" y="791" on="1"/>
        <pt x="285" y="807" on="1"/>
        <pt x="325" y="770" on="0"/>
        <pt x="381" y="728" on="1"/>
        <pt x="344" y="772" on="0"/>
        <pt x="344" y="838" on="1"/>
        <pt x="344" y="997" on="0"/>
        <pt x="598" y="997" on="1"/>
        <pt x="663" y="997" on="0"/>
        <pt x="766" y="894" on="0"/>
        <pt x="766" y="826" on="1"/>
        <pt x="766" y="709" on="0"/>
        <pt x="616" y="648" on="1"/>
        <pt x="601" y="669" on="1"/>
        <pt x="731" y="718" on="0"/>
        <pt x="731" y="797" on="1"/>
        <pt x="731" y="921" on="0"/>
        <pt x="560" y="921" on="1"/>
        <pt x="383" y="921" on="0"/>
        <pt x="383" y="807" on="1"/>
        <pt x="383" y="730" on="0"/>
        <pt x="516" y="669" on="1"/>
      </contour>
    </TTGlyph>
    <TTGlyph name="modre2" xMin="37" yMin="-1205" xMax="1382" yMax="1387">
      <contour>
        <pt x="503" y="897" on="1"/>
        <pt x="561" y="867" on="0"/>
        <pt x="691" y="867" on="1"/>
        <pt x="788" y="867" on="0"/>
        <pt x="861" y="900" on="1"/>
        <pt x="846" y="1137" on="0"/>
        <pt x="677" y="1137" on="1"/>
        <pt x="592" y="1137" on="0"/>
        <pt x="546" y="1056" on="1"/>
        <pt x="507" y="992" on="0"/>
      </contour>
      <contour>
        <pt x="275" y="1143" on="1"/>
        <pt x="312" y="1147" on="1"/>
        <pt x="341" y="986" on="0"/>
        <pt x="439" y="929" on="1"/>
        <pt x="459" y="934" on="1"/>
        <pt x="490" y="1177" on="0"/>
        <pt x="661" y="1201" on="1"/>
        <pt x="669" y="1387" on="1"/>
        <pt x="703" y="1385" on="1"/>
        <pt x="711" y="1201" on="1"/>
        <pt x="896" y="1170" on="0"/>
        <pt x="907" y="924" on="1"/>
        <pt x="913" y="926" on="0"/>
        <pt x="928" y="920" on="1"/>
        <pt x="985" y="952" on="0"/>
        <pt x="1017" y="1018" on="1"/>
        <pt x="1029" y="1047" on="0"/>
        <pt x="1057" y="1147" on="1"/>
        <pt x="1098" y="1151" on="1"/>
        <pt x="1098" y="967" on="0"/>
        <pt x="863" y="733" on="0"/>
        <pt x="680" y="733" on="1"/>
        <pt x="510" y="733" on="0"/>
        <pt x="279" y="972" on="0"/>
      </contour>
      <contour>
        <pt x="1064" y="-907" on="1"/>
        <pt x="1064" y="-893" on="0"/>
        <pt x="1018" y="-854" on="0"/>
        <pt x="999" y="-854" on="1"/>
        <pt x="937" y="-854" on="0"/>
        <pt x="902" y="-940" on="1"/>
        <pt x="954" y="-987" on="0"/>
        <pt x="1007" y="-987" on="1"/>
        <pt x="1064" y="-987" on="0"/>
      </contour>
      <contour>
        <pt x="821" y="-573" on="1"/>
        <pt x="1382" y="-573" on="0"/>
        <pt x="1382" y="-968" on="1"/>
        <pt x="1382" y="-1087" on="0"/>
        <pt x="1292" y="-1151" on="1"/>
        <pt x="1215" y="-1205" on="0"/>
        <pt x="1092" y="-1205" on="1"/>
        <pt x="806" y="-1205" on="0"/>
        <pt x="806" y="-1044" on="1"/>
        <pt x="806" y="-1012" on="0"/>
        <pt x="817" y="-968" on="1"/>
        <pt x="717" y="-897" on="0"/>
        <pt x="695" y="-710" on="1"/>
        <pt x="552" y="-717" on="0"/>
        <pt x="301" y="-1003" on="0"/>
        <pt x="320" y="-1143" on="1"/>
        <pt x="37" y="-1048" on="0"/>
        <pt x="37" y="-708" on="1"/>
        <pt x="37" y="-334" on="0"/>
        <pt x="308" y="-229" on="1"/>
        <pt x="556" y="-178" on="0"/>
        <pt x="806" y="-130" on="1"/>
        <pt x="1072" y="-59" on="0"/>
        <pt x="1072" y="219" on="1"/>
        <pt x="1072" y="499" on="0"/>
        <pt x="881" y="499" on="1"/>
        <pt x="812" y="499" on="0"/>
        <pt x="773" y="466" on="1"/>
        <pt x="750" y="448" on="0"/>
        <pt x="699" y="375" on="1"/>
        <pt x="669" y="414" on="0"/>
        <pt x="640" y="450" on="1"/>
        <pt x="602" y="489" on="0"/>
        <pt x="558" y="489" on="1"/>
        <pt x="429" y="489" on="0"/>
        <pt x="381" y="419" on="1"/>
        <pt x="341" y="359" on="0"/>
        <pt x="341" y="222" on="1"/>
        <pt x="341" y="94" on="0"/>
        <pt x="439" y="7" on="1"/>
        <pt x="305" y="10" on="0"/>
        <pt x="252" y="64" on="1"/>
        <pt x="210" y="109" on="0"/>
        <pt x="210" y="200" on="1"/>
        <pt x="210" y="232" on="0"/>
        <pt x="224" y="383" on="0"/>
        <pt x="224" y="426" on="1"/>
        <pt x="224" y="486" on="0"/>
        <pt x="190" y="512" on="1"/>
        <pt x="128" y="512" on="0"/>
        <pt x="128" y="419" on="1"/>
        <pt x="128" y="442" on="0"/>
        <pt x="133" y="345" on="1"/>
        <pt x="109" y="341" on="1"/>
        <pt x="93" y="400" on="0"/>
        <pt x="93" y="443" on="1"/>
        <pt x="93" y="621" on="0"/>
        <pt x="204" y="621" on="1"/>
        <pt x="264" y="574" on="0"/>
        <pt x="264" y="560" on="1"/>
        <pt x="264" y="510" on="0"/>
        <pt x="237" y="301" on="0"/>
        <pt x="237" y="249" on="1"/>
        <pt x="237" y="133" on="0"/>
        <pt x="305" y="65" on="1"/>
        <pt x="338" y="62" on="1"/>
        <pt x="356" y="65" on="1"/>
        <pt x="301" y="194" on="0"/>
        <pt x="301" y="292" on="1"/>
        <pt x="301" y="386" on="0"/>
        <pt x="346" y="492" on="1"/>
        <pt x="400" y="622" on="0"/>
        <pt x="479" y="622" on="1"/>
        <pt x="583" y="622" on="0"/>
        <pt x="682" y="536" on="0"/>
        <pt x="701" y="433" on="1"/>
        <pt x="757" y="627" on="0"/>
        <pt x="871" y="627" on="1"/>
        <pt x="1104" y="627" on="0"/>
        <pt x="1104" y="291" on="1"/>
        <pt x="1104" y="-158" on="0"/>
        <pt x="842" y="-278" on="1"/>
        <pt x="601" y="-329" on="0"/>
        <pt x="357" y="-378" on="1"/>
        <pt x="98" y="-449" on="0"/>
        <pt x="98" y="-772" on="1"/>
        <pt x="98" y="-993" on="0"/>
        <pt x="290" y="-1099" on="1"/>
        <pt x="290" y="-916" on="0"/>
        <pt x="507" y="-622" on="0"/>
        <pt x="680" y="-585" on="1"/>
        <pt x="695" y="-332" on="0"/>
        <pt x="1215" y="-332" on="1"/>
        <pt x="1215" y="-369" on="1"/>
        <pt x="1020" y="-370" on="0"/>
        <pt x="961" y="-389" on="1"/>
        <pt x="831" y="-428" on="0"/>
      </contour>
      <contour>
        <pt x="1335" y="-933" on="1"/>
        <pt x="1335" y="-786" on="0"/>
        <pt x="1227" y="-734" on="1"/>
        <pt x="1149" y="-696" on="0"/>
        <pt x="987" y="-696" on="1"/>
        <pt x="818" y="-696" on="1"/>
        <pt x="823" y="-750" on="0"/>
        <pt x="831" y="-803" on="1"/>
        <pt x="837" y="-866" on="0"/>
        <pt x="861" y="-906" on="1"/>
        <pt x="930" y="-805" on="0"/>
        <pt x="1011" y="-805" on="1"/>
        <pt x="1100" y="-805" on="0"/>
        <pt x="1100" y="-950" on="1"/>
        <pt x="1100" y="-1032" on="0"/>
        <pt x="1004" y="-1032" on="1"/>
        <pt x="947" y="-1032" on="0"/>
        <pt x="878" y="-1005" on="1"/>
        <pt x="866" y="-1046" on="0"/>
        <pt x="866" y="-1052" on="1"/>
        <pt x="866" y="-1145" on="0"/>
        <pt x="1085" y="-1145" on="1"/>
        <pt x="1335" y="-1145" on="0"/>
      </contour>
    </TTGlyph>
    <TTGlyph name="modre3" xMin="61" yMin="-200" xMax="2651" yMax="858">
      <contour>
        <pt x="68" y="-75" on="1"/>
        <pt x="171" y="-121" on="0"/>
        <pt x="250" y="-121" on="1"/>
        <pt x="526" y="-121" on="0"/>
        <pt x="526" y="290" on="1"/>
        <pt x="526" y="423" on="0"/>
        <pt x="369" y="591" on="0"/>
        <pt x="239" y="591" on="1"/>
        <pt x="183" y="591" on="0"/>
        <pt x="85" y="559" on="1"/>
        <pt x="117" y="697" on="0"/>
        <pt x="237" y="778" on="1"/>
        <pt x="349" y="858" on="0"/>
        <pt x="494" y="858" on="1"/>
        <pt x="807" y="858" on="0"/>
        <pt x="919" y="591" on="1"/>
        <pt x="992" y="343" on="0"/>
        <pt x="1063" y="96" on="1"/>
        <pt x="1173" y="-170" on="0"/>
        <pt x="1480" y="-170" on="1"/>
        <pt x="1761" y="-170" on="0"/>
        <pt x="1761" y="24" on="1"/>
        <pt x="1761" y="140" on="0"/>
        <pt x="1636" y="206" on="1"/>
        <pt x="1748" y="276" on="0"/>
        <pt x="1748" y="360" on="1"/>
        <pt x="1748" y="481" on="0"/>
        <pt x="1672" y="528" on="1"/>
        <pt x="1613" y="563" on="0"/>
        <pt x="1483" y="563" on="1"/>
        <pt x="1363" y="563" on="0"/>
        <pt x="1265" y="466" on="1"/>
        <pt x="1263" y="601" on="0"/>
        <pt x="1323" y="653" on="1"/>
        <pt x="1373" y="692" on="0"/>
        <pt x="1475" y="692" on="1"/>
        <pt x="1508" y="692" on="0"/>
        <pt x="1651" y="683" on="0"/>
        <pt x="1688" y="683" on="1"/>
        <pt x="1746" y="683" on="0"/>
        <pt x="1772" y="716" on="1"/>
        <pt x="1774" y="778" on="0"/>
        <pt x="1679" y="778" on="1"/>
        <pt x="1702" y="778" on="0"/>
        <pt x="1606" y="774" on="1"/>
        <pt x="1601" y="797" on="1"/>
        <pt x="1667" y="811" on="0"/>
        <pt x="1705" y="811" on="1"/>
        <pt x="1882" y="811" on="0"/>
        <pt x="1882" y="701" on="1"/>
        <pt x="1882" y="692" on="0"/>
        <pt x="1832" y="643" on="0"/>
        <pt x="1821" y="643" on="1"/>
        <pt x="1770" y="643" on="0"/>
        <pt x="1562" y="669" on="0"/>
        <pt x="1508" y="669" on="1"/>
        <pt x="1393" y="669" on="0"/>
        <pt x="1326" y="601" on="1"/>
        <pt x="1321" y="569" on="1"/>
        <pt x="1326" y="550" on="1"/>
        <pt x="1455" y="603" on="0"/>
        <pt x="1552" y="603" on="1"/>
        <pt x="1646" y="603" on="0"/>
        <pt x="1753" y="559" on="1"/>
        <pt x="1884" y="505" on="0"/>
        <pt x="1884" y="425" on="1"/>
        <pt x="1884" y="231" on="0"/>
        <pt x="1692" y="203" on="1"/>
        <pt x="1889" y="145" on="0"/>
        <pt x="1889" y="33" on="1"/>
        <pt x="1889" y="-200" on="0"/>
        <pt x="1550" y="-200" on="1"/>
        <pt x="1129" y="-200" on="0"/>
        <pt x="975" y="65" on="1"/>
        <pt x="897" y="313" on="0"/>
        <pt x="821" y="563" on="1"/>
        <pt x="735" y="830" on="0"/>
        <pt x="481" y="830" on="1"/>
        <pt x="375" y="830" on="0"/>
        <pt x="188" y="716" on="0"/>
        <pt x="157" y="615" on="1"/>
        <pt x="239" y="619" on="1"/>
        <pt x="412" y="629" on="0"/>
        <pt x="651" y="428" on="0"/>
        <pt x="651" y="253" on="1"/>
        <pt x="651" y="106" on="0"/>
        <pt x="550" y="-21" on="1"/>
        <pt x="444" y="-154" on="0"/>
        <pt x="302" y="-154" on="1"/>
        <pt x="145" y="-154" on="0"/>
        <pt x="61" y="-91" on="1"/>
      </contour>
      <contour>
        <pt x="2160" y="402" on="1"/>
        <pt x="2130" y="343" on="0"/>
        <pt x="2130" y="213" on="1"/>
        <pt x="2130" y="117" on="0"/>
        <pt x="2162" y="42" on="1"/>
        <pt x="2256" y="47" on="0"/>
        <pt x="2321" y="89" on="1"/>
        <pt x="2401" y="140" on="0"/>
        <pt x="2401" y="227" on="1"/>
        <pt x="2401" y="309" on="0"/>
        <pt x="2319" y="358" on="1"/>
        <pt x="2248" y="397" on="0"/>
      </contour>
      <contour>
        <pt x="2405" y="631" on="1"/>
        <pt x="2410" y="593" on="1"/>
        <pt x="2244" y="561" on="0"/>
        <pt x="2190" y="466" on="1"/>
        <pt x="2195" y="447" on="1"/>
        <pt x="2440" y="414" on="0"/>
        <pt x="2464" y="244" on="1"/>
        <pt x="2651" y="236" on="1"/>
        <pt x="2649" y="201" on="1"/>
        <pt x="2464" y="194" on="1"/>
        <pt x="2433" y="7" on="0"/>
        <pt x="2186" y="-2" on="1"/>
        <pt x="2188" y="-9" on="0"/>
        <pt x="2181" y="-23" on="1"/>
        <pt x="2237" y="-114" on="0"/>
        <pt x="2410" y="-154" on="1"/>
        <pt x="2414" y="-194" on="1"/>
        <pt x="2233" y="-194" on="0"/>
        <pt x="1994" y="42" on="0"/>
        <pt x="1994" y="225" on="1"/>
        <pt x="1994" y="397" on="0"/>
        <pt x="2230" y="625" on="0"/>
      </contour>
    </TTGlyph>
    <TTGlyph name="modre4" xMin="72" yMin="-1180" xMax="1132" yMax="1413">
      <contour>
        <pt x="197" y="1405" on="1"/>
        <pt x="152" y="1303" on="0"/>
        <pt x="152" y="1224" on="1"/>
        <pt x="152" y="948" on="0"/>
        <pt x="563" y="948" on="1"/>
        <pt x="695" y="948" on="0"/>
        <pt x="865" y="1106" on="0"/>
        <pt x="865" y="1235" on="1"/>
        <pt x="865" y="1275" on="0"/>
        <pt x="833" y="1388" on="1"/>
        <pt x="972" y="1356" on="0"/>
        <pt x="1132" y="1128" on="0"/>
        <pt x="1132" y="980" on="1"/>
        <pt x="1132" y="666" on="0"/>
        <pt x="865" y="554" on="1"/>
        <pt x="617" y="482" on="0"/>
        <pt x="370" y="409" on="1"/>
        <pt x="102" y="302" on="0"/>
        <pt x="102" y="-6" on="1"/>
        <pt x="102" y="-288" on="0"/>
        <pt x="297" y="-288" on="1"/>
        <pt x="418" y="-288" on="0"/>
        <pt x="480" y="-164" on="1"/>
        <pt x="532" y="-234" on="0"/>
        <pt x="537" y="-238" on="1"/>
        <pt x="575" y="-276" on="0"/>
        <pt x="620" y="-276" on="1"/>
        <pt x="750" y="-276" on="0"/>
        <pt x="800" y="-207" on="1"/>
        <pt x="837" y="-147" on="0"/>
        <pt x="837" y="-8" on="1"/>
        <pt x="837" y="105" on="0"/>
        <pt x="739" y="209" on="1"/>
        <pt x="874" y="211" on="0"/>
        <pt x="927" y="150" on="1"/>
        <pt x="965" y="100" on="0"/>
        <pt x="965" y="-2" on="1"/>
        <pt x="965" y="-35" on="0"/>
        <pt x="956" y="-179" on="0"/>
        <pt x="956" y="-216" on="1"/>
        <pt x="956" y="-274" on="0"/>
        <pt x="990" y="-300" on="1"/>
        <pt x="1052" y="-302" on="0"/>
        <pt x="1052" y="-207" on="1"/>
        <pt x="1052" y="-229" on="0"/>
        <pt x="1048" y="-134" on="1"/>
        <pt x="1072" y="-128" on="1"/>
        <pt x="1086" y="-194" on="0"/>
        <pt x="1086" y="-231" on="1"/>
        <pt x="1086" y="-410" on="0"/>
        <pt x="974" y="-410" on="1"/>
        <pt x="965" y="-410" on="0"/>
        <pt x="917" y="-360" on="0"/>
        <pt x="917" y="-348" on="1"/>
        <pt x="917" y="-295" on="0"/>
        <pt x="943" y="-87" on="0"/>
        <pt x="943" y="-35" on="1"/>
        <pt x="943" y="80" on="0"/>
        <pt x="874" y="147" on="1"/>
        <pt x="843" y="152" on="1"/>
        <pt x="823" y="147" on="1"/>
        <pt x="876" y="19" on="0"/>
        <pt x="876" y="-80" on="1"/>
        <pt x="876" y="-176" on="0"/>
        <pt x="833" y="-281" on="1"/>
        <pt x="779" y="-412" on="0"/>
        <pt x="699" y="-412" on="1"/>
        <pt x="508" y="-412" on="0"/>
        <pt x="477" y="-220" on="1"/>
        <pt x="418" y="-416" on="0"/>
        <pt x="306" y="-416" on="1"/>
        <pt x="72" y="-416" on="0"/>
        <pt x="72" y="-77" on="1"/>
        <pt x="72" y="347" on="0"/>
        <pt x="338" y="498" on="1"/>
        <pt x="587" y="572" on="0"/>
        <pt x="837" y="651" on="1"/>
        <pt x="1103" y="735" on="0"/>
        <pt x="1103" y="993" on="1"/>
        <pt x="1103" y="1104" on="0"/>
        <pt x="1050" y="1191" on="1"/>
        <pt x="990" y="1285" on="0"/>
        <pt x="888" y="1317" on="1"/>
        <pt x="892" y="1235" on="1"/>
        <pt x="902" y="1062" on="0"/>
        <pt x="702" y="823" on="0"/>
        <pt x="526" y="823" on="1"/>
        <pt x="374" y="823" on="0"/>
        <pt x="252" y="921" on="1"/>
        <pt x="119" y="1023" on="0"/>
        <pt x="119" y="1171" on="1"/>
        <pt x="119" y="1329" on="0"/>
        <pt x="181" y="1413" on="1"/>
      </contour>
      <contour>
        <pt x="675" y="-688" on="1"/>
        <pt x="617" y="-658" on="0"/>
        <pt x="486" y="-658" on="1"/>
        <pt x="383" y="-658" on="0"/>
        <pt x="315" y="-690" on="1"/>
        <pt x="325" y="-929" on="0"/>
        <pt x="501" y="-929" on="1"/>
        <pt x="583" y="-929" on="0"/>
        <pt x="631" y="-847" on="1"/>
        <pt x="668" y="-781" on="0"/>
      </contour>
      <contour>
        <pt x="904" y="-933" on="1"/>
        <pt x="868" y="-939" on="1"/>
        <pt x="837" y="-776" on="0"/>
        <pt x="739" y="-719" on="1"/>
        <pt x="721" y="-723" on="1"/>
        <pt x="687" y="-970" on="0"/>
        <pt x="517" y="-992" on="1"/>
        <pt x="510" y="-1180" on="1"/>
        <pt x="475" y="-1177" on="1"/>
        <pt x="467" y="-992" on="1"/>
        <pt x="280" y="-962" on="0"/>
        <pt x="271" y="-713" on="1"/>
        <pt x="263" y="-716" on="0"/>
        <pt x="250" y="-709" on="1"/>
        <pt x="160" y="-764" on="0"/>
        <pt x="119" y="-939" on="1"/>
        <pt x="79" y="-943" on="1"/>
        <pt x="79" y="-761" on="0"/>
        <pt x="315" y="-523" on="0"/>
        <pt x="498" y="-523" on="1"/>
        <pt x="673" y="-523" on="0"/>
        <pt x="898" y="-756" on="0"/>
      </contour>
    </TTGlyph>
    <TTGlyph name="modre5" xMin="30" yMin="-202" xMax="2624" yMax="858">
      <contour>
        <pt x="2617" y="732" on="1"/>
        <pt x="2514" y="779" on="0"/>
        <pt x="2435" y="779" on="1"/>
        <pt x="2158" y="779" on="0"/>
        <pt x="2158" y="367" on="1"/>
        <pt x="2158" y="235" on="0"/>
        <pt x="2317" y="65" on="0"/>
        <pt x="2447" y="65" on="1"/>
        <pt x="2502" y="65" on="0"/>
        <pt x="2600" y="97" on="1"/>
        <pt x="2565" y="-43" on="0"/>
        <pt x="2339" y="-202" on="0"/>
        <pt x="2192" y="-202" on="1"/>
        <pt x="1875" y="-202" on="0"/>
        <pt x="1763" y="65" on="1"/>
        <pt x="1692" y="313" on="0"/>
        <pt x="1622" y="561" on="1"/>
        <pt x="1515" y="828" on="0"/>
        <pt x="1203" y="828" on="1"/>
        <pt x="922" y="828" on="0"/>
        <pt x="922" y="633" on="1"/>
        <pt x="922" y="512" on="0"/>
        <pt x="1046" y="451" on="1"/>
        <pt x="934" y="367" on="0"/>
        <pt x="934" y="311" on="1"/>
        <pt x="934" y="176" on="0"/>
        <pt x="1004" y="130" on="1"/>
        <pt x="1058" y="92" on="0"/>
        <pt x="1201" y="92" on="1"/>
        <pt x="1321" y="92" on="0"/>
        <pt x="1419" y="191" on="1"/>
        <pt x="1421" y="55" on="0"/>
        <pt x="1360" y="4" on="1"/>
        <pt x="1313" y="-38" on="0"/>
        <pt x="1210" y="-38" on="1"/>
        <pt x="1177" y="-38" on="0"/>
        <pt x="1032" y="-27" on="0"/>
        <pt x="995" y="-27" on="1"/>
        <pt x="936" y="-27" on="0"/>
        <pt x="911" y="-60" on="1"/>
        <pt x="908" y="-123" on="0"/>
        <pt x="1004" y="-123" on="1"/>
        <pt x="980" y="-123" on="0"/>
        <pt x="1076" y="-118" on="1"/>
        <pt x="1081" y="-141" on="1"/>
        <pt x="1016" y="-156" on="0"/>
        <pt x="978" y="-156" on="1"/>
        <pt x="801" y="-156" on="0"/>
        <pt x="801" y="-45" on="1"/>
        <pt x="847" y="13" on="0"/>
        <pt x="862" y="13" on="1"/>
        <pt x="916" y="13" on="0"/>
        <pt x="1124" y="-13" on="0"/>
        <pt x="1176" y="-13" on="1"/>
        <pt x="1289" y="-13" on="0"/>
        <pt x="1358" y="55" on="1"/>
        <pt x="1362" y="88" on="1"/>
        <pt x="1358" y="107" on="1"/>
        <pt x="1228" y="53" on="0"/>
        <pt x="1130" y="53" on="1"/>
        <pt x="1032" y="53" on="0"/>
        <pt x="926" y="95" on="1"/>
        <pt x="798" y="149" on="0"/>
        <pt x="798" y="230" on="1"/>
        <pt x="798" y="423" on="0"/>
        <pt x="990" y="453" on="1"/>
        <pt x="793" y="505" on="0"/>
        <pt x="793" y="624" on="1"/>
        <pt x="793" y="858" on="0"/>
        <pt x="1132" y="858" on="1"/>
        <pt x="1554" y="858" on="0"/>
        <pt x="1709" y="591" on="1"/>
        <pt x="1788" y="343" on="0"/>
        <pt x="1866" y="92" on="1"/>
        <pt x="1952" y="-175" on="0"/>
        <pt x="2202" y="-175" on="1"/>
        <pt x="2313" y="-175" on="0"/>
        <pt x="2497" y="-60" on="0"/>
        <pt x="2528" y="41" on="1"/>
        <pt x="2447" y="36" on="1"/>
        <pt x="2273" y="27" on="0"/>
        <pt x="2035" y="228" on="0"/>
        <pt x="2035" y="404" on="1"/>
        <pt x="2035" y="554" on="0"/>
        <pt x="2133" y="678" on="1"/>
        <pt x="2238" y="811" on="0"/>
        <pt x="2383" y="811" on="1"/>
        <pt x="2533" y="811" on="0"/>
        <pt x="2624" y="748" on="1"/>
      </contour>
      <contour>
        <pt x="521" y="254" on="1"/>
        <pt x="553" y="313" on="0"/>
        <pt x="553" y="443" on="1"/>
        <pt x="553" y="539" on="0"/>
        <pt x="519" y="615" on="1"/>
        <pt x="281" y="596" on="0"/>
        <pt x="281" y="429" on="1"/>
        <pt x="281" y="348" on="0"/>
        <pt x="362" y="299" on="1"/>
        <pt x="430" y="259" on="0"/>
      </contour>
      <contour>
        <pt x="276" y="24" on="1"/>
        <pt x="271" y="63" on="1"/>
        <pt x="426" y="88" on="0"/>
        <pt x="492" y="191" on="1"/>
        <pt x="487" y="210" on="1"/>
        <pt x="241" y="242" on="0"/>
        <pt x="217" y="414" on="1"/>
        <pt x="30" y="421" on="1"/>
        <pt x="33" y="455" on="1"/>
        <pt x="217" y="463" on="1"/>
        <pt x="246" y="650" on="0"/>
        <pt x="496" y="659" on="1"/>
        <pt x="494" y="666" on="0"/>
        <pt x="501" y="681" on="1"/>
        <pt x="462" y="743" on="0"/>
        <pt x="400" y="772" on="1"/>
        <pt x="369" y="785" on="0"/>
        <pt x="271" y="811" on="1"/>
        <pt x="266" y="851" on="1"/>
        <pt x="452" y="851" on="0"/>
        <pt x="688" y="617" on="0"/>
        <pt x="688" y="432" on="1"/>
        <pt x="688" y="259" on="0"/>
        <pt x="450" y="29" on="0"/>
      </contour>
    </TTGlyph>
    <TTGlyph name="nonbreakingspace" xMin="0" yMin="0" xMax="0" yMax="0">
      <component glyphName="space" x="4" y="0" flags="0x4"/>
    </TTGlyph>
    <TTGlyph name="parenleft" xMin="12" yMin="-172" xMax="496" yMax="1442">
      <contour>
        <pt x="496" y="1395" on="1"/>
        <pt x="328" y="1248" on="0"/>
        <pt x="216" y="939" on="1"/>
        <pt x="110" y="656" on="0"/>
        <pt x="110" y="410" on="1"/>
        <pt x="110" y="261" on="0"/>
        <pt x="159" y="148" on="1"/>
        <pt x="188" y="83" on="0"/>
        <pt x="248" y="6" on="1"/>
        <pt x="297" y="-55" on="0"/>
        <pt x="297" y="-81" on="1"/>
        <pt x="297" y="-116" on="0"/>
        <pt x="248" y="-172" on="0"/>
        <pt x="213" y="-172" on="1"/>
        <pt x="103" y="-172" on="0"/>
        <pt x="50" y="13" on="1"/>
        <pt x="12" y="137" on="0"/>
        <pt x="12" y="284" on="1"/>
        <pt x="12" y="595" on="0"/>
        <pt x="131" y="923" on="1"/>
        <pt x="272" y="1304" on="0"/>
        <pt x="496" y="1442" on="1"/>
      </contour>
    </TTGlyph>
    <TTGlyph name="parenright" xMin="0" yMin="-173" xMax="483" yMax="1436">
      <contour>
        <pt x="0" y="1436" on="1"/>
        <pt x="224" y="1299" on="0"/>
        <pt x="364" y="917" on="1"/>
        <pt x="483" y="591" on="0"/>
        <pt x="483" y="281" on="1"/>
        <pt x="483" y="135" on="0"/>
        <pt x="446" y="10" on="1"/>
        <pt x="392" y="-173" on="0"/>
        <pt x="281" y="-173" on="1"/>
        <pt x="247" y="-173" on="0"/>
        <pt x="197" y="-118" on="0"/>
        <pt x="197" y="-82" on="1"/>
        <pt x="197" y="-57" on="0"/>
        <pt x="247" y="3" on="1"/>
        <pt x="307" y="80" on="0"/>
        <pt x="337" y="146" on="1"/>
        <pt x="385" y="258" on="0"/>
        <pt x="385" y="408" on="1"/>
        <pt x="385" y="652" on="0"/>
        <pt x="279" y="934" on="1"/>
        <pt x="168" y="1241" on="0"/>
        <pt x="0" y="1390" on="1"/>
      </contour>
    </TTGlyph>
    <TTGlyph name="plus" xMin="0" yMin="30" xMax="539" yMax="586">
      <contour>
        <pt x="294" y="586" on="1"/>
        <pt x="294" y="334" on="1"/>
        <pt x="539" y="334" on="1"/>
        <pt x="539" y="280" on="1"/>
        <pt x="294" y="280" on="1"/>
        <pt x="294" y="30" on="1"/>
        <pt x="243" y="30" on="1"/>
        <pt x="243" y="280" on="1"/>
        <pt x="0" y="280" on="1"/>
        <pt x="0" y="334" on="1"/>
        <pt x="243" y="334" on="1"/>
        <pt x="243" y="586" on="1"/>
      </contour>
    </TTGlyph>
    <TTGlyph name="question" xMin="22" yMin="1" xMax="423" yMax="1092">
      <contour>
        <pt x="292" y="336" on="1"/>
        <pt x="278" y="288" on="1"/>
        <pt x="250" y="278" on="0"/>
        <pt x="231" y="278" on="1"/>
        <pt x="45" y="278" on="0"/>
        <pt x="45" y="465" on="1"/>
        <pt x="45" y="553" on="0"/>
        <pt x="313" y="831" on="0"/>
        <pt x="313" y="910" on="1"/>
        <pt x="313" y="1043" on="0"/>
        <pt x="183" y="1043" on="1"/>
        <pt x="75" y="1043" on="0"/>
        <pt x="36" y="947" on="1"/>
        <pt x="22" y="1041" on="1"/>
        <pt x="87" y="1092" on="0"/>
        <pt x="201" y="1092" on="1"/>
        <pt x="304" y="1092" on="0"/>
        <pt x="423" y="973" on="0"/>
        <pt x="423" y="873" on="1"/>
        <pt x="423" y="779" on="0"/>
        <pt x="143" y="467" on="0"/>
        <pt x="143" y="418" on="1"/>
        <pt x="143" y="329" on="0"/>
        <pt x="236" y="329" on="1"/>
        <pt x="262" y="329" on="0"/>
      </contour>
      <contour>
        <pt x="117" y="85" on="1"/>
        <pt x="117" y="169" on="0"/>
        <pt x="204" y="169" on="1"/>
        <pt x="287" y="169" on="0"/>
        <pt x="287" y="85" on="1"/>
        <pt x="287" y="1" on="0"/>
        <pt x="204" y="1" on="1"/>
        <pt x="117" y="1" on="0"/>
      </contour>
    </TTGlyph>
    <TTGlyph name="quotedbl" xMin="95" yMin="264" xMax="451" yMax="615">
      <contour>
        <pt x="118" y="264" on="1"/>
        <pt x="118" y="291" on="1"/>
        <pt x="193" y="350" on="0"/>
        <pt x="193" y="434" on="1"/>
        <pt x="193" y="457" on="0"/>
        <pt x="176" y="473" on="1"/>
        <pt x="165" y="466" on="0"/>
        <pt x="139" y="462" on="1"/>
        <pt x="95" y="462" on="0"/>
        <pt x="95" y="531" on="1"/>
        <pt x="95" y="559" on="0"/>
        <pt x="130" y="615" on="0"/>
        <pt x="155" y="615" on="1"/>
        <pt x="193" y="615" on="0"/>
        <pt x="216" y="564" on="1"/>
        <pt x="235" y="522" on="0"/>
        <pt x="235" y="478" on="1"/>
        <pt x="235" y="312" on="0"/>
      </contour>
      <contour>
        <pt x="335" y="264" on="1"/>
        <pt x="335" y="291" on="1"/>
        <pt x="409" y="350" on="0"/>
        <pt x="409" y="431" on="1"/>
        <pt x="409" y="459" on="0"/>
        <pt x="395" y="473" on="1"/>
        <pt x="358" y="462" on="1"/>
        <pt x="314" y="473" on="0"/>
        <pt x="314" y="534" on="1"/>
        <pt x="314" y="615" on="0"/>
        <pt x="372" y="615" on="1"/>
        <pt x="412" y="615" on="0"/>
        <pt x="433" y="562" on="1"/>
        <pt x="451" y="517" on="0"/>
        <pt x="451" y="473" on="1"/>
        <pt x="451" y="312" on="0"/>
      </contour>
    </TTGlyph>
    <TTGlyph name="quotesingle" xMin="46" yMin="263" xMax="186" yMax="615">
      <contour>
        <pt x="70" y="263" on="1"/>
        <pt x="70" y="293" on="1"/>
        <pt x="144" y="356" on="0"/>
        <pt x="144" y="433" on="1"/>
        <pt x="144" y="438" on="0"/>
        <pt x="137" y="466" on="1"/>
        <pt x="128" y="473" on="1"/>
        <pt x="109" y="464" on="0"/>
        <pt x="93" y="464" on="1"/>
        <pt x="46" y="464" on="0"/>
        <pt x="46" y="531" on="1"/>
        <pt x="46" y="559" on="0"/>
        <pt x="81" y="615" on="0"/>
        <pt x="107" y="615" on="1"/>
        <pt x="147" y="615" on="0"/>
        <pt x="168" y="564" on="1"/>
        <pt x="186" y="524" on="0"/>
        <pt x="186" y="478" on="1"/>
        <pt x="186" y="314" on="0"/>
      </contour>
    </TTGlyph>
    <TTGlyph name="slash" xMin="0" yMin="-748" xMax="652" yMax="908">
      <contour>
        <pt x="652" y="908" on="1"/>
        <pt x="93" y="-748" on="1"/>
        <pt x="0" y="-748" on="1"/>
        <pt x="561" y="908" on="1"/>
      </contour>
    </TTGlyph>
    <TTGlyph name="uni1B00" xMin="70" yMin="705" xMax="675" yMax="1295">
      <contour>
        <pt x="372" y="840" on="1"/>
        <pt x="459" y="840" on="0"/>
        <pt x="459" y="964" on="1"/>
        <pt x="459" y="978" on="0"/>
        <pt x="409" y="1019" on="0"/>
        <pt x="392" y="1019" on="1"/>
        <pt x="355" y="1019" on="0"/>
        <pt x="292" y="971" on="0"/>
        <pt x="292" y="935" on="1"/>
        <pt x="292" y="903" on="0"/>
        <pt x="341" y="840" on="0"/>
      </contour>
      <contour>
        <pt x="278" y="705" on="1"/>
        <pt x="198" y="724" on="0"/>
        <pt x="70" y="869" on="0"/>
        <pt x="70" y="942" on="1"/>
        <pt x="70" y="1295" on="0"/>
        <pt x="418" y="1295" on="1"/>
        <pt x="525" y="1295" on="0"/>
        <pt x="602" y="1189" on="1"/>
        <pt x="675" y="1092" on="0"/>
        <pt x="675" y="981" on="1"/>
        <pt x="675" y="889" on="0"/>
        <pt x="624" y="809" on="1"/>
        <pt x="549" y="727" on="0"/>
        <pt x="486" y="705" on="1"/>
        <pt x="471" y="736" on="1"/>
        <pt x="621" y="828" on="0"/>
        <pt x="621" y="937" on="1"/>
        <pt x="621" y="1044" on="0"/>
        <pt x="488" y="1155" on="0"/>
        <pt x="380" y="1155" on="1"/>
        <pt x="273" y="1155" on="0"/>
        <pt x="203" y="1104" on="1"/>
        <pt x="123" y="1046" on="0"/>
        <pt x="123" y="944" on="1"/>
        <pt x="123" y="877" on="0"/>
        <pt x="222" y="773" on="0"/>
        <pt x="273" y="741" on="1"/>
        <pt x="268" y="705" on="0"/>
      </contour>
      <contour>
        <pt x="254" y="932" on="1"/>
        <pt x="254" y="957" on="0"/>
        <pt x="273" y="1003" on="0"/>
        <pt x="307" y="1036" on="0"/>
        <pt x="351" y="1056" on="0"/>
        <pt x="377" y="1056" on="1"/>
        <pt x="402" y="1056" on="0"/>
        <pt x="447" y="1036" on="0"/>
        <pt x="481" y="1003" on="0"/>
        <pt x="500" y="957" on="0"/>
        <pt x="500" y="932" on="1"/>
        <pt x="500" y="907" on="0"/>
        <pt x="481" y="862" on="0"/>
        <pt x="447" y="829" on="0"/>
        <pt x="402" y="809" on="0"/>
        <pt x="377" y="809" on="1"/>
        <pt x="351" y="809" on="0"/>
        <pt x="307" y="829" on="0"/>
        <pt x="273" y="862" on="0"/>
        <pt x="254" y="907" on="0"/>
      </contour>
    </TTGlyph>
    <TTGlyph name="uni1B01" xMin="12" yMin="708" xMax="750" yMax="1295">
      <contour>
        <pt x="219" y="856" on="1"/>
        <pt x="271" y="829" on="0"/>
        <pt x="384" y="829" on="1"/>
        <pt x="478" y="829" on="0"/>
        <pt x="538" y="858" on="1"/>
        <pt x="534" y="944" on="0"/>
        <pt x="497" y="1002" on="1"/>
        <pt x="451" y="1071" on="0"/>
        <pt x="371" y="1071" on="1"/>
        <pt x="298" y="1071" on="0"/>
        <pt x="256" y="996" on="1"/>
        <pt x="223" y="938" on="0"/>
      </contour>
      <contour>
        <pt x="75" y="865" on="1"/>
        <pt x="16" y="961" on="0"/>
        <pt x="12" y="1076" on="1"/>
        <pt x="45" y="1080" on="1"/>
        <pt x="52" y="1032" on="0"/>
        <pt x="121" y="906" on="0"/>
        <pt x="158" y="883" on="1"/>
        <pt x="177" y="888" on="1"/>
        <pt x="206" y="1107" on="0"/>
        <pt x="359" y="1128" on="1"/>
        <pt x="366" y="1295" on="1"/>
        <pt x="396" y="1295" on="1"/>
        <pt x="403" y="1128" on="1"/>
        <pt x="572" y="1101" on="0"/>
        <pt x="576" y="879" on="1"/>
        <pt x="587" y="883" on="0"/>
        <pt x="595" y="875" on="1"/>
        <pt x="685" y="923" on="0"/>
        <pt x="714" y="1080" on="1"/>
        <pt x="750" y="1084" on="1"/>
        <pt x="750" y="923" on="0"/>
        <pt x="534" y="708" on="0"/>
        <pt x="373" y="708" on="1"/>
        <pt x="183" y="708" on="0"/>
      </contour>
    </TTGlyph>
    <TTGlyph name="uni1B02" xMin="0" yMin="705" xMax="501" yMax="1295">
      <contour>
        <pt x="480" y="705" on="1"/>
        <pt x="431" y="813" on="0"/>
        <pt x="328" y="958" on="1"/>
        <pt x="194" y="1147" on="0"/>
        <pt x="126" y="1138" on="1"/>
        <pt x="91" y="1115" on="0"/>
        <pt x="28" y="1014" on="1"/>
        <pt x="0" y="1023" on="1"/>
        <pt x="44" y="1169" on="0"/>
        <pt x="119" y="1293" on="1"/>
        <pt x="136" y="1295" on="1"/>
        <pt x="246" y="1251" on="0"/>
        <pt x="363" y="1047" on="1"/>
        <pt x="461" y="874" on="0"/>
        <pt x="501" y="724" on="1"/>
      </contour>
    </TTGlyph>
    <TTGlyph name="uni1B03" xMin="11" yMin="705" xMax="641" yMax="1295">
      <contour>
        <pt x="11" y="1295" on="1"/>
        <pt x="96" y="1271" on="1"/>
        <pt x="146" y="1042" on="0"/>
        <pt x="276" y="899" on="1"/>
        <pt x="423" y="738" on="0"/>
        <pt x="641" y="724" on="1"/>
        <pt x="634" y="705" on="1"/>
        <pt x="388" y="705" on="0"/>
        <pt x="30" y="1049" on="0"/>
      </contour>
    </TTGlyph>
    <TTGlyph name="uni1B04" xMin="5" yMin="-1224" xMax="373" yMax="617">
      <contour>
        <pt x="215" y="-1224" on="1"/>
        <pt x="128" y="-1072" on="0"/>
        <pt x="128" y="-885" on="1"/>
        <pt x="128" y="-746" on="0"/>
        <pt x="311" y="-227" on="0"/>
        <pt x="311" y="-91" on="1"/>
        <pt x="311" y="44" on="0"/>
        <pt x="241" y="110" on="1"/>
        <pt x="177" y="166" on="0"/>
        <pt x="38" y="183" on="1"/>
        <pt x="64" y="247" on="1"/>
        <pt x="123" y="235" on="0"/>
        <pt x="142" y="235" on="1"/>
        <pt x="300" y="235" on="0"/>
        <pt x="300" y="400" on="1"/>
        <pt x="300" y="438" on="0"/>
        <pt x="212" y="489" on="0"/>
        <pt x="170" y="489" on="1"/>
        <pt x="95" y="489" on="0"/>
        <pt x="69" y="445" on="1"/>
        <pt x="50" y="415" on="0"/>
        <pt x="45" y="332" on="1"/>
        <pt x="19" y="329" on="1"/>
        <pt x="5" y="365" on="0"/>
        <pt x="5" y="405" on="1"/>
        <pt x="5" y="487" on="0"/>
        <pt x="109" y="617" on="0"/>
        <pt x="188" y="617" on="1"/>
        <pt x="366" y="617" on="0"/>
        <pt x="366" y="429" on="1"/>
        <pt x="366" y="251" on="0"/>
        <pt x="188" y="199" on="1"/>
        <pt x="373" y="115" on="0"/>
        <pt x="373" y="-161" on="1"/>
        <pt x="373" y="-307" on="0"/>
        <pt x="191" y="-859" on="0"/>
        <pt x="191" y="-1001" on="1"/>
        <pt x="191" y="-1125" on="0"/>
        <pt x="233" y="-1208" on="1"/>
      </contour>
    </TTGlyph>
    <TTGlyph name="uni1B05" xMin="98" yMin="-17" xMax="1244" yMax="664">
      <contour>
        <pt x="1070" y="291" on="1"/>
        <pt x="1129" y="257" on="1"/>
        <pt x="1132" y="322" on="1"/>
        <pt x="1131" y="486" on="0"/>
        <pt x="1057" y="486" on="1"/>
        <pt x="1052" y="481" on="1"/>
        <pt x="1070" y="429" on="0"/>
      </contour>
      <contour>
        <pt x="598" y="148" on="1"/>
        <pt x="607" y="161" on="1"/>
        <pt x="665" y="96" on="0"/>
        <pt x="818" y="96" on="1"/>
        <pt x="1026" y="96" on="0"/>
        <pt x="1026" y="220" on="1"/>
        <pt x="1026" y="230" on="0"/>
        <pt x="1022" y="243" on="1"/>
        <pt x="977" y="260" on="0"/>
        <pt x="939" y="260" on="1"/>
        <pt x="930" y="252" on="1"/>
        <pt x="918" y="222" on="0"/>
        <pt x="909" y="166" on="1"/>
        <pt x="885" y="166" on="1"/>
        <pt x="876" y="243" on="0"/>
        <pt x="876" y="345" on="1"/>
        <pt x="963" y="345" on="0"/>
        <pt x="1035" y="307" on="1"/>
        <pt x="1035" y="502" on="0"/>
        <pt x="959" y="614" on="1"/>
        <pt x="1174" y="614" on="0"/>
        <pt x="1174" y="358" on="1"/>
        <pt x="1174" y="317" on="0"/>
        <pt x="1166" y="232" on="1"/>
        <pt x="1244" y="154" on="1"/>
        <pt x="1244" y="115" on="1"/>
        <pt x="1235" y="124" on="0"/>
        <pt x="1166" y="173" on="1"/>
        <pt x="1166" y="0" on="1"/>
        <pt x="1137" y="0" on="1"/>
        <pt x="1129" y="189" on="1"/>
        <pt x="1094" y="217" on="0"/>
        <pt x="1064" y="222" on="1"/>
        <pt x="1022" y="81" on="0"/>
        <pt x="1000" y="53" on="1"/>
        <pt x="951" y="-15" on="0"/>
        <pt x="839" y="-15" on="1"/>
        <pt x="656" y="-15" on="0"/>
      </contour>
      <contour>
        <pt x="356" y="-17" on="1"/>
        <pt x="237" y="-17" on="0"/>
        <pt x="163" y="87" on="1"/>
        <pt x="98" y="178" on="0"/>
        <pt x="98" y="302" on="1"/>
        <pt x="98" y="458" on="0"/>
        <pt x="274" y="664" on="0"/>
        <pt x="426" y="664" on="1"/>
        <pt x="651" y="664" on="0"/>
        <pt x="773" y="432" on="1"/>
        <pt x="744" y="422" on="1"/>
        <pt x="630" y="627" on="0"/>
        <pt x="433" y="627" on="1"/>
        <pt x="288" y="627" on="0"/>
        <pt x="135" y="436" on="0"/>
        <pt x="135" y="288" on="1"/>
        <pt x="135" y="105" on="0"/>
        <pt x="342" y="105" on="1"/>
        <pt x="389" y="105" on="0"/>
        <pt x="440" y="119" on="1"/>
        <pt x="511" y="141" on="0"/>
        <pt x="511" y="173" on="1"/>
        <pt x="511" y="263" on="0"/>
        <pt x="391" y="263" on="1"/>
        <pt x="372" y="263" on="0"/>
        <pt x="316" y="258" on="0"/>
        <pt x="309" y="258" on="1"/>
        <pt x="313" y="295" on="1"/>
        <pt x="396" y="300" on="0"/>
        <pt x="419" y="304" on="1"/>
        <pt x="487" y="319" on="0"/>
        <pt x="487" y="369" on="1"/>
        <pt x="487" y="434" on="0"/>
        <pt x="407" y="434" on="1"/>
        <pt x="326" y="434" on="0"/>
        <pt x="288" y="378" on="1"/>
        <pt x="269" y="391" on="1"/>
        <pt x="298" y="462" on="0"/>
        <pt x="318" y="486" on="1"/>
        <pt x="351" y="528" on="0"/>
        <pt x="409" y="528" on="1"/>
        <pt x="461" y="528" on="0"/>
        <pt x="537" y="469" on="0"/>
        <pt x="537" y="417" on="1"/>
        <pt x="537" y="328" on="0"/>
        <pt x="466" y="293" on="1"/>
        <pt x="463" y="284" on="1"/>
        <pt x="555" y="248" on="0"/>
        <pt x="555" y="185" on="1"/>
        <pt x="555" y="-17" on="0"/>
      </contour>
    </TTGlyph>
    <TTGlyph name="uni1B06" xMin="106" yMin="-17" xMax="1745" yMax="654">
      <contour>
        <pt x="354" y="-17" on="1"/>
        <pt x="241" y="-17" on="0"/>
        <pt x="170" y="90" on="1"/>
        <pt x="106" y="185" on="0"/>
        <pt x="106" y="302" on="1"/>
        <pt x="106" y="447" on="0"/>
        <pt x="303" y="654" on="0"/>
        <pt x="449" y="654" on="1"/>
        <pt x="558" y="654" on="0"/>
        <pt x="746" y="526" on="0"/>
        <pt x="786" y="423" on="1"/>
        <pt x="753" y="419" on="1"/>
        <pt x="673" y="621" on="0"/>
        <pt x="451" y="621" on="1"/>
        <pt x="316" y="621" on="0"/>
        <pt x="146" y="444" on="0"/>
        <pt x="146" y="309" on="1"/>
        <pt x="146" y="102" on="0"/>
        <pt x="370" y="102" on="1"/>
        <pt x="522" y="102" on="0"/>
        <pt x="522" y="195" on="1"/>
        <pt x="522" y="242" on="0"/>
        <pt x="441" y="254" on="1"/>
        <pt x="418" y="257" on="0"/>
        <pt x="325" y="257" on="1"/>
        <pt x="330" y="290" on="1"/>
        <pt x="489" y="290" on="0"/>
        <pt x="501" y="361" on="1"/>
        <pt x="484" y="433" on="0"/>
        <pt x="408" y="433" on="1"/>
        <pt x="339" y="433" on="0"/>
        <pt x="306" y="378" on="1"/>
        <pt x="289" y="383" on="1"/>
        <pt x="294" y="437" on="0"/>
        <pt x="372" y="523" on="0"/>
        <pt x="427" y="523" on="1"/>
        <pt x="472" y="523" on="0"/>
        <pt x="549" y="466" on="0"/>
        <pt x="549" y="421" on="1"/>
        <pt x="549" y="328" on="0"/>
        <pt x="475" y="278" on="1"/>
        <pt x="573" y="220" on="0"/>
        <pt x="573" y="123" on="1"/>
        <pt x="573" y="54" on="0"/>
        <pt x="494" y="14" on="1"/>
        <pt x="432" y="-17" on="0"/>
      </contour>
      <contour>
        <pt x="834" y="-17" on="1"/>
        <pt x="715" y="-17" on="0"/>
        <pt x="604" y="118" on="1"/>
        <pt x="611" y="140" on="0"/>
        <pt x="629" y="160" on="1"/>
        <pt x="699" y="90" on="0"/>
        <pt x="799" y="90" on="1"/>
        <pt x="1036" y="90" on="0"/>
        <pt x="1036" y="202" on="1"/>
        <pt x="994" y="233" on="0"/>
        <pt x="939" y="245" on="1"/>
        <pt x="908" y="211" on="0"/>
        <pt x="892" y="176" on="1"/>
        <pt x="870" y="178" on="1"/>
        <pt x="870" y="311" on="0"/>
        <pt x="894" y="342" on="1"/>
        <pt x="936" y="337" on="0"/>
        <pt x="1043" y="271" on="1"/>
        <pt x="1056" y="616" on="0"/>
        <pt x="1398" y="616" on="1"/>
        <pt x="1550" y="616" on="0"/>
        <pt x="1745" y="430" on="0"/>
        <pt x="1745" y="280" on="1"/>
        <pt x="1745" y="166" on="0"/>
        <pt x="1674" y="78" on="1"/>
        <pt x="1601" y="-17" on="0"/>
        <pt x="1488" y="-17" on="1"/>
        <pt x="1457" y="-17" on="0"/>
        <pt x="1395" y="-3" on="1"/>
        <pt x="1393" y="47" on="1"/>
        <pt x="1450" y="28" on="0"/>
        <pt x="1481" y="28" on="1"/>
        <pt x="1588" y="28" on="0"/>
        <pt x="1712" y="176" on="0"/>
        <pt x="1712" y="282" on="1"/>
        <pt x="1712" y="390" on="0"/>
        <pt x="1594" y="442" on="1"/>
        <pt x="1501" y="483" on="0"/>
        <pt x="1379" y="483" on="1"/>
        <pt x="1234" y="483" on="0"/>
        <pt x="1167" y="440" on="1"/>
        <pt x="1082" y="386" on="0"/>
        <pt x="1074" y="249" on="1"/>
        <pt x="1141" y="190" on="0"/>
        <pt x="1227" y="28" on="1"/>
        <pt x="1211" y="0" on="1"/>
        <pt x="1180" y="47" on="0"/>
        <pt x="1107" y="147" on="0"/>
        <pt x="1070" y="176" on="1"/>
        <pt x="1025" y="-17" on="0"/>
      </contour>
    </TTGlyph>
    <TTGlyph name="uni1B07" xMin="10" yMin="-458" xMax="1033" yMax="614">
      <contour>
        <pt x="126" y="270" on="1"/>
        <pt x="126" y="298" on="0"/>
        <pt x="141" y="408" on="0"/>
        <pt x="141" y="436" on="1"/>
        <pt x="141" y="492" on="0"/>
        <pt x="108" y="492" on="1"/>
        <pt x="42" y="492" on="0"/>
        <pt x="42" y="406" on="1"/>
        <pt x="42" y="380" on="0"/>
        <pt x="52" y="326" on="1"/>
        <pt x="27" y="324" on="1"/>
        <pt x="10" y="373" on="0"/>
        <pt x="10" y="434" on="1"/>
        <pt x="10" y="560" on="0"/>
        <pt x="96" y="600" on="1"/>
        <pt x="186" y="597" on="0"/>
        <pt x="186" y="488" on="1"/>
        <pt x="186" y="453" on="0"/>
        <pt x="160" y="315" on="0"/>
        <pt x="160" y="283" on="1"/>
        <pt x="160" y="208" on="0"/>
        <pt x="178" y="139" on="1"/>
        <pt x="206" y="42" on="0"/>
        <pt x="257" y="42" on="1"/>
        <pt x="260" y="42" on="0"/>
        <pt x="288" y="49" on="1"/>
        <pt x="229" y="147" on="0"/>
        <pt x="229" y="255" on="1"/>
        <pt x="229" y="612" on="0"/>
        <pt x="470" y="612" on="1"/>
        <pt x="526" y="612" on="0"/>
        <pt x="568" y="539" on="1"/>
        <pt x="582" y="516" on="0"/>
        <pt x="620" y="418" on="1"/>
        <pt x="643" y="470" on="0"/>
        <pt x="669" y="521" on="1"/>
        <pt x="725" y="614" on="0"/>
        <pt x="820" y="614" on="1"/>
        <pt x="1033" y="614" on="0"/>
        <pt x="1033" y="339" on="1"/>
        <pt x="1033" y="-19" on="1"/>
        <pt x="1003" y="-19" on="1"/>
        <pt x="1003" y="16" on="0"/>
        <pt x="1012" y="158" on="0"/>
        <pt x="1012" y="193" on="1"/>
        <pt x="1012" y="485" on="0"/>
        <pt x="814" y="485" on="1"/>
        <pt x="678" y="485" on="0"/>
        <pt x="624" y="362" on="1"/>
        <pt x="618" y="359" on="1"/>
        <pt x="571" y="479" on="0"/>
        <pt x="457" y="479" on="1"/>
        <pt x="341" y="479" on="0"/>
        <pt x="298" y="399" on="1"/>
        <pt x="262" y="339" on="0"/>
        <pt x="262" y="214" on="1"/>
        <pt x="262" y="163" on="0"/>
        <pt x="337" y="23" on="0"/>
        <pt x="379" y="-7" on="1"/>
        <pt x="347" y="-17" on="0"/>
        <pt x="326" y="-17" on="1"/>
        <pt x="126" y="-17" on="0"/>
      </contour>
      <contour>
        <pt x="624" y="-458" on="1"/>
        <pt x="536" y="-458" on="0"/>
        <pt x="423" y="-336" on="1"/>
        <pt x="438" y="-321" on="1"/>
        <pt x="564" y="-388" on="0"/>
        <pt x="633" y="-388" on="1"/>
        <pt x="725" y="-388" on="0"/>
        <pt x="725" y="-325" on="1"/>
        <pt x="725" y="-299" on="0"/>
        <pt x="477" y="-224" on="0"/>
        <pt x="477" y="-164" on="1"/>
        <pt x="477" y="-147" on="0"/>
        <pt x="496" y="-110" on="1"/>
        <pt x="545" y="-82" on="0"/>
        <pt x="587" y="-82" on="1"/>
        <pt x="643" y="-82" on="0"/>
        <pt x="708" y="-127" on="1"/>
        <pt x="706" y="-147" on="1"/>
        <pt x="636" y="-119" on="0"/>
        <pt x="592" y="-119" on="1"/>
        <pt x="573" y="-119" on="0"/>
        <pt x="524" y="-145" on="0"/>
        <pt x="524" y="-162" on="1"/>
        <pt x="524" y="-209" on="0"/>
        <pt x="646" y="-239" on="0"/>
        <pt x="704" y="-250" on="1"/>
        <pt x="767" y="-276" on="0"/>
        <pt x="767" y="-344" on="1"/>
        <pt x="767" y="-458" on="0"/>
      </contour>
    </TTGlyph>
    <TTGlyph name="uni1B08" xMin="46" yMin="-458" xMax="1831" yMax="614">
      <contour>
        <pt x="162" y="270" on="1"/>
        <pt x="162" y="298" on="0"/>
        <pt x="177" y="408" on="0"/>
        <pt x="177" y="436" on="1"/>
        <pt x="177" y="492" on="0"/>
        <pt x="144" y="492" on="1"/>
        <pt x="78" y="492" on="0"/>
        <pt x="78" y="406" on="1"/>
        <pt x="78" y="380" on="0"/>
        <pt x="88" y="326" on="1"/>
        <pt x="63" y="324" on="1"/>
        <pt x="46" y="373" on="0"/>
        <pt x="46" y="434" on="1"/>
        <pt x="46" y="560" on="0"/>
        <pt x="132" y="600" on="1"/>
        <pt x="222" y="597" on="0"/>
        <pt x="222" y="488" on="1"/>
        <pt x="222" y="453" on="0"/>
        <pt x="196" y="315" on="0"/>
        <pt x="196" y="283" on="1"/>
        <pt x="196" y="208" on="0"/>
        <pt x="214" y="139" on="1"/>
        <pt x="242" y="42" on="0"/>
        <pt x="293" y="42" on="1"/>
        <pt x="296" y="42" on="0"/>
        <pt x="324" y="49" on="1"/>
        <pt x="265" y="147" on="0"/>
        <pt x="265" y="255" on="1"/>
        <pt x="265" y="612" on="0"/>
        <pt x="506" y="612" on="1"/>
        <pt x="562" y="612" on="0"/>
        <pt x="604" y="539" on="1"/>
        <pt x="618" y="516" on="0"/>
        <pt x="656" y="418" on="1"/>
        <pt x="679" y="470" on="0"/>
        <pt x="705" y="521" on="1"/>
        <pt x="761" y="614" on="0"/>
        <pt x="856" y="614" on="1"/>
        <pt x="1069" y="614" on="0"/>
        <pt x="1069" y="339" on="1"/>
        <pt x="1069" y="-19" on="1"/>
        <pt x="1039" y="-19" on="1"/>
        <pt x="1039" y="16" on="0"/>
        <pt x="1048" y="158" on="0"/>
        <pt x="1048" y="193" on="1"/>
        <pt x="1048" y="485" on="0"/>
        <pt x="850" y="485" on="1"/>
        <pt x="714" y="485" on="0"/>
        <pt x="660" y="362" on="1"/>
        <pt x="654" y="359" on="1"/>
        <pt x="607" y="479" on="0"/>
        <pt x="493" y="479" on="1"/>
        <pt x="377" y="479" on="0"/>
        <pt x="334" y="399" on="1"/>
        <pt x="298" y="339" on="0"/>
        <pt x="298" y="214" on="1"/>
        <pt x="298" y="163" on="0"/>
        <pt x="373" y="23" on="0"/>
        <pt x="415" y="-7" on="1"/>
        <pt x="383" y="-17" on="0"/>
        <pt x="362" y="-17" on="1"/>
        <pt x="162" y="-17" on="0"/>
      </contour>
      <contour>
        <pt x="660" y="-458" on="1"/>
        <pt x="572" y="-458" on="0"/>
        <pt x="459" y="-336" on="1"/>
        <pt x="474" y="-321" on="1"/>
        <pt x="600" y="-388" on="0"/>
        <pt x="669" y="-388" on="1"/>
        <pt x="761" y="-388" on="0"/>
        <pt x="761" y="-325" on="1"/>
        <pt x="761" y="-299" on="0"/>
        <pt x="513" y="-224" on="0"/>
        <pt x="513" y="-164" on="1"/>
        <pt x="513" y="-147" on="0"/>
        <pt x="532" y="-110" on="1"/>
        <pt x="581" y="-82" on="0"/>
        <pt x="623" y="-82" on="1"/>
        <pt x="679" y="-82" on="0"/>
        <pt x="744" y="-127" on="1"/>
        <pt x="742" y="-147" on="1"/>
        <pt x="672" y="-119" on="0"/>
        <pt x="628" y="-119" on="1"/>
        <pt x="609" y="-119" on="0"/>
        <pt x="560" y="-145" on="0"/>
        <pt x="560" y="-162" on="1"/>
        <pt x="560" y="-209" on="0"/>
        <pt x="682" y="-239" on="0"/>
        <pt x="740" y="-250" on="1"/>
        <pt x="803" y="-276" on="0"/>
        <pt x="803" y="-344" on="1"/>
        <pt x="803" y="-458" on="0"/>
      </contour>
      <contour>
        <pt x="1502" y="73" on="1"/>
        <pt x="1502" y="146" on="0"/>
        <pt x="1568" y="146" on="1"/>
        <pt x="1589" y="146" on="0"/>
        <pt x="1655" y="70" on="0"/>
        <pt x="1686" y="70" on="1"/>
        <pt x="1742" y="70" on="0"/>
        <pt x="1774" y="125" on="1"/>
        <pt x="1803" y="169" on="0"/>
        <pt x="1803" y="230" on="1"/>
        <pt x="1803" y="365" on="0"/>
        <pt x="1682" y="436" on="1"/>
        <pt x="1585" y="494" on="0"/>
        <pt x="1439" y="494" on="1"/>
        <pt x="1300" y="494" on="0"/>
        <pt x="1172" y="437" on="1"/>
        <pt x="1167" y="447" on="1"/>
        <pt x="1276" y="614" on="0"/>
        <pt x="1482" y="614" on="1"/>
        <pt x="1636" y="614" on="0"/>
        <pt x="1831" y="400" on="0"/>
        <pt x="1831" y="244" on="1"/>
        <pt x="1831" y="141" on="0"/>
        <pt x="1772" y="65" on="1"/>
        <pt x="1706" y="-14" on="0"/>
        <pt x="1607" y="-14" on="1"/>
        <pt x="1502" y="-14" on="0"/>
      </contour>
    </TTGlyph>
    <TTGlyph name="uni1B09" xMin="36" yMin="-1223" xMax="1066" yMax="617">
      <contour>
        <pt x="1014" y="-1223" on="1"/>
        <pt x="1019" y="-1155" on="1"/>
        <pt x="1031" y="-972" on="0"/>
        <pt x="820" y="-765" on="0"/>
        <pt x="630" y="-765" on="1"/>
        <pt x="292" y="-765" on="0"/>
        <pt x="292" y="-1063" on="1"/>
        <pt x="292" y="-1117" on="0"/>
        <pt x="318" y="-1194" on="1"/>
        <pt x="36" y="-1141" on="0"/>
        <pt x="36" y="-835" on="1"/>
        <pt x="36" y="-587" on="0"/>
        <pt x="224" y="-392" on="1"/>
        <pt x="400" y="-244" on="0"/>
        <pt x="576" y="-96" on="1"/>
        <pt x="763" y="75" on="0"/>
        <pt x="763" y="267" on="1"/>
        <pt x="763" y="361" on="0"/>
        <pt x="658" y="483" on="0"/>
        <pt x="566" y="483" on="1"/>
        <pt x="484" y="483" on="0"/>
        <pt x="433" y="443" on="1"/>
        <pt x="374" y="399" on="0"/>
        <pt x="374" y="319" on="1"/>
        <pt x="374" y="314" on="0"/>
        <pt x="402" y="174" on="1"/>
        <pt x="386" y="164" on="1"/>
        <pt x="325" y="206" on="0"/>
        <pt x="280" y="270" on="1"/>
        <pt x="231" y="342" on="0"/>
        <pt x="233" y="406" on="1"/>
        <pt x="238" y="511" on="1"/>
        <pt x="261" y="516" on="1"/>
        <pt x="261" y="298" on="0"/>
        <pt x="353" y="237" on="1"/>
        <pt x="339" y="298" on="0"/>
        <pt x="339" y="357" on="1"/>
        <pt x="339" y="464" on="0"/>
        <pt x="449" y="617" on="0"/>
        <pt x="552" y="617" on="1"/>
        <pt x="663" y="617" on="0"/>
        <pt x="810" y="432" on="0"/>
        <pt x="810" y="319" on="1"/>
        <pt x="810" y="26" on="0"/>
        <pt x="620" y="-200" on="1"/>
        <pt x="609" y="-211" on="0"/>
        <pt x="271" y="-519" on="1"/>
        <pt x="81" y="-688" on="0"/>
        <pt x="81" y="-854" on="1"/>
        <pt x="81" y="-946" on="0"/>
        <pt x="125" y="-1016" on="1"/>
        <pt x="174" y="-1094" on="0"/>
        <pt x="257" y="-1117" on="1"/>
        <pt x="250" y="-1072" on="0"/>
        <pt x="250" y="-1028" on="1"/>
        <pt x="250" y="-852" on="0"/>
        <pt x="465" y="-634" on="0"/>
        <pt x="644" y="-634" on="1"/>
        <pt x="843" y="-634" on="0"/>
        <pt x="965" y="-798" on="1"/>
        <pt x="1066" y="-930" on="0"/>
        <pt x="1066" y="-1150" on="1"/>
        <pt x="1061" y="-1223" on="1"/>
      </contour>
    </TTGlyph>
    <TTGlyph name="uni1B0A" xMin="62" yMin="-1223" xMax="1614" yMax="617">
      <contour>
        <pt x="1040" y="-1223" on="1"/>
        <pt x="1045" y="-1155" on="1"/>
        <pt x="1057" y="-972" on="0"/>
        <pt x="846" y="-765" on="0"/>
        <pt x="656" y="-765" on="1"/>
        <pt x="318" y="-765" on="0"/>
        <pt x="318" y="-1063" on="1"/>
        <pt x="318" y="-1117" on="0"/>
        <pt x="344" y="-1194" on="1"/>
        <pt x="62" y="-1141" on="0"/>
        <pt x="62" y="-835" on="1"/>
        <pt x="62" y="-587" on="0"/>
        <pt x="250" y="-392" on="1"/>
        <pt x="426" y="-244" on="0"/>
        <pt x="602" y="-96" on="1"/>
        <pt x="789" y="75" on="0"/>
        <pt x="789" y="267" on="1"/>
        <pt x="789" y="361" on="0"/>
        <pt x="684" y="483" on="0"/>
        <pt x="592" y="483" on="1"/>
        <pt x="510" y="483" on="0"/>
        <pt x="459" y="443" on="1"/>
        <pt x="400" y="399" on="0"/>
        <pt x="400" y="319" on="1"/>
        <pt x="400" y="314" on="0"/>
        <pt x="428" y="174" on="1"/>
        <pt x="412" y="164" on="1"/>
        <pt x="351" y="206" on="0"/>
        <pt x="306" y="270" on="1"/>
        <pt x="257" y="342" on="0"/>
        <pt x="259" y="406" on="1"/>
        <pt x="264" y="511" on="1"/>
        <pt x="287" y="516" on="1"/>
        <pt x="287" y="298" on="0"/>
        <pt x="379" y="237" on="1"/>
        <pt x="365" y="298" on="0"/>
        <pt x="365" y="357" on="1"/>
        <pt x="365" y="464" on="0"/>
        <pt x="475" y="617" on="0"/>
        <pt x="578" y="617" on="1"/>
        <pt x="689" y="617" on="0"/>
        <pt x="836" y="432" on="0"/>
        <pt x="836" y="319" on="1"/>
        <pt x="836" y="26" on="0"/>
        <pt x="646" y="-200" on="1"/>
        <pt x="635" y="-211" on="0"/>
        <pt x="297" y="-519" on="1"/>
        <pt x="107" y="-688" on="0"/>
        <pt x="107" y="-854" on="1"/>
        <pt x="107" y="-946" on="0"/>
        <pt x="151" y="-1016" on="1"/>
        <pt x="200" y="-1094" on="0"/>
        <pt x="283" y="-1117" on="1"/>
        <pt x="276" y="-1072" on="0"/>
        <pt x="276" y="-1028" on="1"/>
        <pt x="276" y="-852" on="0"/>
        <pt x="491" y="-634" on="0"/>
        <pt x="670" y="-634" on="1"/>
        <pt x="869" y="-634" on="0"/>
        <pt x="991" y="-798" on="1"/>
        <pt x="1092" y="-930" on="0"/>
        <pt x="1092" y="-1150" on="1"/>
        <pt x="1087" y="-1223" on="1"/>
      </contour>
      <contour>
        <pt x="1285" y="76" on="1"/>
        <pt x="1285" y="149" on="0"/>
        <pt x="1351" y="149" on="1"/>
        <pt x="1372" y="149" on="0"/>
        <pt x="1438" y="73" on="0"/>
        <pt x="1469" y="73" on="1"/>
        <pt x="1525" y="73" on="0"/>
        <pt x="1557" y="128" on="1"/>
        <pt x="1586" y="172" on="0"/>
        <pt x="1586" y="233" on="1"/>
        <pt x="1586" y="368" on="0"/>
        <pt x="1465" y="439" on="1"/>
        <pt x="1368" y="497" on="0"/>
        <pt x="1222" y="497" on="1"/>
        <pt x="1083" y="497" on="0"/>
        <pt x="955" y="440" on="1"/>
        <pt x="950" y="450" on="1"/>
        <pt x="1059" y="617" on="0"/>
        <pt x="1265" y="617" on="1"/>
        <pt x="1419" y="617" on="0"/>
        <pt x="1614" y="403" on="0"/>
        <pt x="1614" y="247" on="1"/>
        <pt x="1614" y="144" on="0"/>
        <pt x="1555" y="68" on="1"/>
        <pt x="1489" y="-11" on="0"/>
        <pt x="1390" y="-11" on="1"/>
        <pt x="1285" y="-11" on="0"/>
      </contour>
    </TTGlyph>
    <TTGlyph name="uni1B0B" xMin="23" yMin="-463" xMax="854" yMax="617">
      <contour>
        <pt x="438" y="-463" on="1"/>
        <pt x="342" y="-463" on="0"/>
        <pt x="232" y="-338" on="1"/>
        <pt x="248" y="-322" on="1"/>
        <pt x="375" y="-390" on="0"/>
        <pt x="446" y="-390" on="1"/>
        <pt x="535" y="-390" on="0"/>
        <pt x="535" y="-327" on="1"/>
        <pt x="516" y="-294" on="0"/>
        <pt x="392" y="-261" on="1"/>
        <pt x="286" y="-233" on="0"/>
        <pt x="286" y="-165" on="1"/>
        <pt x="286" y="-83" on="0"/>
        <pt x="396" y="-83" on="1"/>
        <pt x="453" y="-83" on="0"/>
        <pt x="518" y="-127" on="1"/>
        <pt x="516" y="-148" on="1"/>
        <pt x="446" y="-120" on="0"/>
        <pt x="403" y="-120" on="1"/>
        <pt x="333" y="-120" on="0"/>
        <pt x="333" y="-162" on="1"/>
        <pt x="333" y="-209" on="0"/>
        <pt x="455" y="-242" on="0"/>
        <pt x="514" y="-256" on="1"/>
        <pt x="577" y="-280" on="0"/>
        <pt x="577" y="-345" on="1"/>
        <pt x="577" y="-399" on="0"/>
        <pt x="495" y="-463" on="0"/>
      </contour>
      <contour>
        <pt x="392" y="-17" on="1"/>
        <pt x="281" y="-17" on="0"/>
        <pt x="129" y="162" on="0"/>
        <pt x="129" y="272" on="1"/>
        <pt x="129" y="305" on="0"/>
        <pt x="152" y="432" on="0"/>
        <pt x="152" y="464" on="1"/>
        <pt x="152" y="507" on="0"/>
        <pt x="91" y="507" on="1"/>
        <pt x="56" y="483" on="0"/>
        <pt x="56" y="422" on="1"/>
        <pt x="56" y="417" on="0"/>
        <pt x="70" y="312" on="1"/>
        <pt x="42" y="309" on="1"/>
        <pt x="23" y="429" on="0"/>
        <pt x="23" y="443" on="1"/>
        <pt x="23" y="615" on="0"/>
        <pt x="152" y="615" on="1"/>
        <pt x="197" y="615" on="0"/>
        <pt x="197" y="523" on="1"/>
        <pt x="197" y="486" on="0"/>
        <pt x="161" y="335" on="0"/>
        <pt x="161" y="295" on="1"/>
        <pt x="161" y="119" on="0"/>
        <pt x="429" y="119" on="1"/>
        <pt x="579" y="119" on="0"/>
        <pt x="633" y="150" on="1"/>
        <pt x="706" y="194" on="0"/>
        <pt x="706" y="335" on="1"/>
        <pt x="706" y="378" on="0"/>
        <pt x="647" y="535" on="0"/>
        <pt x="647" y="575" on="1"/>
        <pt x="647" y="617" on="0"/>
        <pt x="708" y="617" on="1"/>
        <pt x="777" y="617" on="0"/>
        <pt x="821" y="514" on="1"/>
        <pt x="854" y="432" on="0"/>
        <pt x="854" y="354" on="1"/>
        <pt x="854" y="-14" on="1"/>
        <pt x="821" y="-12" on="1"/>
        <pt x="828" y="171" on="0"/>
        <pt x="828" y="169" on="1"/>
        <pt x="828" y="483" on="0"/>
        <pt x="711" y="486" on="1"/>
        <pt x="708" y="478" on="1"/>
        <pt x="739" y="352" on="0"/>
        <pt x="739" y="272" on="1"/>
        <pt x="739" y="-17" on="0"/>
      </contour>
    </TTGlyph>
    <TTGlyph name="uni1B0B.conj" xMin="0" yMin="-444" xMax="748" yMax="617">
      <contour>
        <pt x="0" y="217" on="1"/>
        <pt x="19" y="234" on="1"/>
        <pt x="89" y="159" on="0"/>
        <pt x="187" y="140" on="1"/>
        <pt x="236" y="131" on="0"/>
        <pt x="384" y="131" on="1"/>
        <pt x="503" y="131" on="0"/>
        <pt x="608" y="217" on="0"/>
        <pt x="608" y="334" on="1"/>
        <pt x="608" y="376" on="0"/>
        <pt x="563" y="540" on="0"/>
        <pt x="563" y="582" on="1"/>
        <pt x="563" y="617" on="0"/>
        <pt x="610" y="617" on="1"/>
        <pt x="687" y="617" on="0"/>
        <pt x="722" y="512" on="1"/>
        <pt x="748" y="437" on="0"/>
        <pt x="748" y="339" on="1"/>
        <pt x="748" y="-9" on="1"/>
        <pt x="720" y="-7" on="1"/>
        <pt x="727" y="182" on="0"/>
        <pt x="727" y="180" on="1"/>
        <pt x="727" y="472" on="0"/>
        <pt x="634" y="495" on="1"/>
        <pt x="620" y="483" on="1"/>
        <pt x="634" y="287" on="0"/>
        <pt x="634" y="287" on="1"/>
        <pt x="634" y="114" on="0"/>
        <pt x="540" y="51" on="1"/>
        <pt x="465" y="-2" on="0"/>
        <pt x="285" y="-2" on="1"/>
        <pt x="94" y="-2" on="0"/>
      </contour>
      <contour>
        <pt x="363" y="-444" on="1"/>
        <pt x="269" y="-444" on="0"/>
        <pt x="157" y="-320" on="1"/>
        <pt x="173" y="-304" on="1"/>
        <pt x="283" y="-374" on="0"/>
        <pt x="367" y="-374" on="1"/>
        <pt x="463" y="-374" on="0"/>
        <pt x="463" y="-308" on="1"/>
        <pt x="463" y="-273" on="0"/>
        <pt x="213" y="-210" on="0"/>
        <pt x="213" y="-150" on="1"/>
        <pt x="213" y="-66" on="0"/>
        <pt x="323" y="-66" on="1"/>
        <pt x="388" y="-66" on="0"/>
        <pt x="444" y="-110" on="1"/>
        <pt x="442" y="-131" on="1"/>
        <pt x="367" y="-103" on="0"/>
        <pt x="323" y="-103" on="1"/>
        <pt x="260" y="-103" on="0"/>
        <pt x="260" y="-145" on="1"/>
        <pt x="260" y="-192" on="0"/>
        <pt x="381" y="-220" on="0"/>
        <pt x="440" y="-231" on="1"/>
        <pt x="503" y="-257" on="0"/>
        <pt x="503" y="-325" on="1"/>
        <pt x="503" y="-444" on="0"/>
      </contour>
    </TTGlyph>
    <TTGlyph name="uni1B0C" xMin="65" yMin="-463" xMax="1655" yMax="617">
      <contour>
        <pt x="480" y="-463" on="1"/>
        <pt x="384" y="-463" on="0"/>
        <pt x="274" y="-338" on="1"/>
        <pt x="290" y="-322" on="1"/>
        <pt x="417" y="-390" on="0"/>
        <pt x="488" y="-390" on="1"/>
        <pt x="577" y="-390" on="0"/>
        <pt x="577" y="-327" on="1"/>
        <pt x="558" y="-294" on="0"/>
        <pt x="434" y="-261" on="1"/>
        <pt x="328" y="-233" on="0"/>
        <pt x="328" y="-165" on="1"/>
        <pt x="328" y="-83" on="0"/>
        <pt x="438" y="-83" on="1"/>
        <pt x="495" y="-83" on="0"/>
        <pt x="560" y="-127" on="1"/>
        <pt x="558" y="-148" on="1"/>
        <pt x="488" y="-120" on="0"/>
        <pt x="445" y="-120" on="1"/>
        <pt x="375" y="-120" on="0"/>
        <pt x="375" y="-162" on="1"/>
        <pt x="375" y="-209" on="0"/>
        <pt x="497" y="-242" on="0"/>
        <pt x="556" y="-256" on="1"/>
        <pt x="619" y="-280" on="0"/>
        <pt x="619" y="-345" on="1"/>
        <pt x="619" y="-399" on="0"/>
        <pt x="537" y="-463" on="0"/>
      </contour>
      <contour>
        <pt x="434" y="-17" on="1"/>
        <pt x="323" y="-17" on="0"/>
        <pt x="171" y="162" on="0"/>
        <pt x="171" y="272" on="1"/>
        <pt x="171" y="305" on="0"/>
        <pt x="194" y="432" on="0"/>
        <pt x="194" y="464" on="1"/>
        <pt x="194" y="507" on="0"/>
        <pt x="133" y="507" on="1"/>
        <pt x="98" y="483" on="0"/>
        <pt x="98" y="422" on="1"/>
        <pt x="98" y="417" on="0"/>
        <pt x="112" y="312" on="1"/>
        <pt x="84" y="309" on="1"/>
        <pt x="65" y="429" on="0"/>
        <pt x="65" y="443" on="1"/>
        <pt x="65" y="615" on="0"/>
        <pt x="194" y="615" on="1"/>
        <pt x="239" y="615" on="0"/>
        <pt x="239" y="523" on="1"/>
        <pt x="239" y="486" on="0"/>
        <pt x="203" y="335" on="0"/>
        <pt x="203" y="295" on="1"/>
        <pt x="203" y="119" on="0"/>
        <pt x="471" y="119" on="1"/>
        <pt x="621" y="119" on="0"/>
        <pt x="675" y="150" on="1"/>
        <pt x="748" y="194" on="0"/>
        <pt x="748" y="335" on="1"/>
        <pt x="748" y="378" on="0"/>
        <pt x="689" y="535" on="0"/>
        <pt x="689" y="575" on="1"/>
        <pt x="689" y="617" on="0"/>
        <pt x="750" y="617" on="1"/>
        <pt x="819" y="617" on="0"/>
        <pt x="863" y="514" on="1"/>
        <pt x="896" y="432" on="0"/>
        <pt x="896" y="354" on="1"/>
        <pt x="896" y="-14" on="1"/>
        <pt x="863" y="-12" on="1"/>
        <pt x="870" y="171" on="0"/>
        <pt x="870" y="169" on="1"/>
        <pt x="870" y="483" on="0"/>
        <pt x="753" y="486" on="1"/>
        <pt x="750" y="478" on="1"/>
        <pt x="781" y="352" on="0"/>
        <pt x="781" y="272" on="1"/>
        <pt x="781" y="-17" on="0"/>
      </contour>
      <contour>
        <pt x="1326" y="76" on="1"/>
        <pt x="1326" y="149" on="0"/>
        <pt x="1392" y="149" on="1"/>
        <pt x="1413" y="149" on="0"/>
        <pt x="1479" y="73" on="0"/>
        <pt x="1510" y="73" on="1"/>
        <pt x="1566" y="73" on="0"/>
        <pt x="1598" y="128" on="1"/>
        <pt x="1627" y="172" on="0"/>
        <pt x="1627" y="233" on="1"/>
        <pt x="1627" y="368" on="0"/>
        <pt x="1506" y="439" on="1"/>
        <pt x="1409" y="497" on="0"/>
        <pt x="1263" y="497" on="1"/>
        <pt x="1124" y="497" on="0"/>
        <pt x="996" y="440" on="1"/>
        <pt x="991" y="450" on="1"/>
        <pt x="1100" y="617" on="0"/>
        <pt x="1306" y="617" on="1"/>
        <pt x="1460" y="617" on="0"/>
        <pt x="1655" y="403" on="0"/>
        <pt x="1655" y="247" on="1"/>
        <pt x="1655" y="144" on="0"/>
        <pt x="1596" y="68" on="1"/>
        <pt x="1530" y="-11" on="0"/>
        <pt x="1431" y="-11" on="1"/>
        <pt x="1326" y="-11" on="0"/>
      </contour>
    </TTGlyph>
    <TTGlyph name="uni1B0D" xMin="16" yMin="-1220" xMax="1168" yMax="616">
      <contour>
        <pt x="641" y="-1070" on="1"/>
        <pt x="841" y="-722" on="0"/>
        <pt x="942" y="-414" on="1"/>
        <pt x="832" y="-414" on="0"/>
        <pt x="425" y="-230" on="0"/>
        <pt x="352" y="-230" on="1"/>
        <pt x="284" y="-230" on="0"/>
        <pt x="223" y="-268" on="1"/>
        <pt x="152" y="-310" on="0"/>
        <pt x="152" y="-374" on="1"/>
        <pt x="152" y="-527" on="0"/>
        <pt x="279" y="-628" on="1"/>
        <pt x="397" y="-710" on="0"/>
        <pt x="514" y="-790" on="1"/>
        <pt x="641" y="-898" on="0"/>
      </contour>
      <contour>
        <pt x="514" y="-1199" on="1"/>
        <pt x="611" y="-1124" on="0"/>
        <pt x="611" y="-1004" on="1"/>
        <pt x="611" y="-905" on="0"/>
        <pt x="484" y="-811" on="1"/>
        <pt x="364" y="-726" on="0"/>
        <pt x="244" y="-644" on="1"/>
        <pt x="117" y="-536" on="0"/>
        <pt x="117" y="-402" on="1"/>
        <pt x="117" y="-284" on="0"/>
        <pt x="230" y="-207" on="1"/>
        <pt x="329" y="-139" on="0"/>
        <pt x="453" y="-139" on="1"/>
        <pt x="552" y="-139" on="0"/>
        <pt x="717" y="-240" on="1"/>
        <pt x="891" y="-346" on="0"/>
        <pt x="952" y="-353" on="1"/>
        <pt x="1010" y="-148" on="0"/>
        <pt x="1010" y="176" on="1"/>
        <pt x="1010" y="480" on="0"/>
        <pt x="808" y="480" on="1"/>
        <pt x="672" y="480" on="0"/>
        <pt x="625" y="357" on="1"/>
        <pt x="566" y="477" on="0"/>
        <pt x="444" y="477" on="1"/>
        <pt x="355" y="477" on="0"/>
        <pt x="261" y="348" on="0"/>
        <pt x="261" y="254" on="1"/>
        <pt x="261" y="132" on="0"/>
        <pt x="373" y="-16" on="1"/>
        <pt x="232" y="-16" on="0"/>
        <pt x="176" y="45" on="1"/>
        <pt x="131" y="92" on="0"/>
        <pt x="131" y="195" on="1"/>
        <pt x="131" y="230" on="0"/>
        <pt x="145" y="393" on="0"/>
        <pt x="145" y="435" on="1"/>
        <pt x="145" y="470" on="0"/>
        <pt x="127" y="490" on="1"/>
        <pt x="119" y="494" on="1"/>
        <pt x="51" y="494" on="0"/>
        <pt x="51" y="411" on="1"/>
        <pt x="51" y="395" on="0"/>
        <pt x="56" y="339" on="0"/>
        <pt x="56" y="329" on="1"/>
        <pt x="25" y="324" on="1"/>
        <pt x="16" y="357" on="0"/>
        <pt x="16" y="428" on="1"/>
        <pt x="16" y="489" on="0"/>
        <pt x="37" y="541" on="1"/>
        <pt x="63" y="609" on="0"/>
        <pt x="115" y="609" on="1"/>
        <pt x="190" y="609" on="0"/>
        <pt x="190" y="468" on="1"/>
        <pt x="190" y="430" on="0"/>
        <pt x="159" y="285" on="0"/>
        <pt x="159" y="247" on="1"/>
        <pt x="159" y="45" on="0"/>
        <pt x="277" y="45" on="1"/>
        <pt x="282" y="52" on="1"/>
        <pt x="228" y="172" on="0"/>
        <pt x="228" y="266" on="1"/>
        <pt x="228" y="393" on="0"/>
        <pt x="277" y="491" on="1"/>
        <pt x="338" y="616" on="0"/>
        <pt x="451" y="616" on="1"/>
        <pt x="599" y="616" on="0"/>
        <pt x="625" y="423" on="1"/>
        <pt x="684" y="541" on="0"/>
        <pt x="714" y="569" on="1"/>
        <pt x="766" y="616" on="0"/>
        <pt x="879" y="616" on="1"/>
        <pt x="971" y="616" on="0"/>
        <pt x="1015" y="449" on="1"/>
        <pt x="1046" y="336" on="0"/>
        <pt x="1046" y="207" on="1"/>
        <pt x="1046" y="0" on="0"/>
        <pt x="996" y="-360" on="1"/>
        <pt x="1081" y="-360" on="0"/>
        <pt x="1152" y="-308" on="1"/>
        <pt x="1168" y="-327" on="1"/>
        <pt x="1119" y="-376" on="0"/>
        <pt x="980" y="-411" on="1"/>
        <pt x="876" y="-694" on="0"/>
        <pt x="808" y="-837" on="1"/>
        <pt x="698" y="-1067" on="0"/>
        <pt x="559" y="-1220" on="1"/>
      </contour>
    </TTGlyph>
    <TTGlyph name="uni1B0E" xMin="26" yMin="-1220" xMax="1376" yMax="616">
      <contour>
        <pt x="651" y="-1070" on="1"/>
        <pt x="851" y="-722" on="0"/>
        <pt x="952" y="-414" on="1"/>
        <pt x="842" y="-414" on="0"/>
        <pt x="435" y="-230" on="0"/>
        <pt x="362" y="-230" on="1"/>
        <pt x="294" y="-230" on="0"/>
        <pt x="233" y="-268" on="1"/>
        <pt x="162" y="-310" on="0"/>
        <pt x="162" y="-374" on="1"/>
        <pt x="162" y="-527" on="0"/>
        <pt x="289" y="-628" on="1"/>
        <pt x="407" y="-710" on="0"/>
        <pt x="524" y="-790" on="1"/>
        <pt x="651" y="-898" on="0"/>
      </contour>
      <contour>
        <pt x="990" y="-411" on="1"/>
        <pt x="886" y="-694" on="0"/>
        <pt x="818" y="-837" on="1"/>
        <pt x="708" y="-1067" on="0"/>
        <pt x="569" y="-1220" on="1"/>
        <pt x="524" y="-1199" on="1"/>
        <pt x="621" y="-1124" on="0"/>
        <pt x="621" y="-1004" on="1"/>
        <pt x="621" y="-905" on="0"/>
        <pt x="494" y="-811" on="1"/>
        <pt x="374" y="-726" on="0"/>
        <pt x="254" y="-644" on="1"/>
        <pt x="127" y="-536" on="0"/>
        <pt x="127" y="-402" on="1"/>
        <pt x="127" y="-284" on="0"/>
        <pt x="240" y="-207" on="1"/>
        <pt x="339" y="-139" on="0"/>
        <pt x="463" y="-139" on="1"/>
        <pt x="562" y="-139" on="0"/>
        <pt x="727" y="-240" on="1"/>
        <pt x="901" y="-346" on="0"/>
        <pt x="962" y="-353" on="1"/>
        <pt x="1020" y="-148" on="0"/>
        <pt x="1020" y="176" on="1"/>
        <pt x="1020" y="480" on="0"/>
        <pt x="818" y="480" on="1"/>
        <pt x="682" y="480" on="0"/>
        <pt x="635" y="357" on="1"/>
        <pt x="576" y="477" on="0"/>
        <pt x="454" y="477" on="1"/>
        <pt x="365" y="477" on="0"/>
        <pt x="271" y="348" on="0"/>
        <pt x="271" y="254" on="1"/>
        <pt x="271" y="132" on="0"/>
        <pt x="383" y="-16" on="1"/>
        <pt x="242" y="-16" on="0"/>
        <pt x="186" y="45" on="1"/>
        <pt x="141" y="92" on="0"/>
        <pt x="141" y="195" on="1"/>
        <pt x="141" y="230" on="0"/>
        <pt x="155" y="393" on="0"/>
        <pt x="155" y="435" on="1"/>
        <pt x="155" y="470" on="0"/>
        <pt x="137" y="490" on="1"/>
        <pt x="129" y="494" on="1"/>
        <pt x="61" y="494" on="0"/>
        <pt x="61" y="411" on="1"/>
        <pt x="61" y="395" on="0"/>
        <pt x="66" y="339" on="0"/>
        <pt x="66" y="329" on="1"/>
        <pt x="35" y="324" on="1"/>
        <pt x="26" y="357" on="0"/>
        <pt x="26" y="428" on="1"/>
        <pt x="26" y="489" on="0"/>
        <pt x="47" y="541" on="1"/>
        <pt x="73" y="609" on="0"/>
        <pt x="125" y="609" on="1"/>
        <pt x="200" y="609" on="0"/>
        <pt x="200" y="468" on="1"/>
        <pt x="200" y="430" on="0"/>
        <pt x="169" y="285" on="0"/>
        <pt x="169" y="247" on="1"/>
        <pt x="169" y="45" on="0"/>
        <pt x="287" y="45" on="1"/>
        <pt x="292" y="52" on="1"/>
        <pt x="238" y="172" on="0"/>
        <pt x="238" y="266" on="1"/>
        <pt x="238" y="393" on="0"/>
        <pt x="287" y="491" on="1"/>
        <pt x="348" y="616" on="0"/>
        <pt x="461" y="616" on="1"/>
        <pt x="609" y="616" on="0"/>
        <pt x="635" y="423" on="1"/>
        <pt x="694" y="541" on="0"/>
        <pt x="724" y="569" on="1"/>
        <pt x="776" y="616" on="0"/>
        <pt x="889" y="616" on="1"/>
        <pt x="981" y="616" on="0"/>
        <pt x="1025" y="449" on="1"/>
        <pt x="1056" y="336" on="0"/>
        <pt x="1056" y="207" on="1"/>
        <pt x="1056" y="0" on="0"/>
        <pt x="1006" y="-360" on="1"/>
        <pt x="1062" y="-361" on="0"/>
        <pt x="1104" y="-311" on="1"/>
        <pt x="1158" y="-268" on="0"/>
        <pt x="1205" y="-268" on="1"/>
        <pt x="1343" y="-268" on="0"/>
        <pt x="1343" y="-450" on="1"/>
        <pt x="1343" y="-532" on="0"/>
        <pt x="1233" y="-578" on="1"/>
        <pt x="1376" y="-644" on="0"/>
        <pt x="1376" y="-796" on="1"/>
        <pt x="1376" y="-992" on="0"/>
        <pt x="1189" y="-992" on="1"/>
        <pt x="1128" y="-992" on="0"/>
        <pt x="1086" y="-924" on="1"/>
        <pt x="1051" y="-866" on="0"/>
        <pt x="1051" y="-800" on="1"/>
        <pt x="1051" y="-798" on="0"/>
        <pt x="1058" y="-714" on="1"/>
        <pt x="1065" y="-709" on="1"/>
        <pt x="1086" y="-712" on="1"/>
        <pt x="1086" y="-873" on="0"/>
        <pt x="1208" y="-873" on="1"/>
        <pt x="1310" y="-873" on="0"/>
        <pt x="1310" y="-754" on="1"/>
        <pt x="1310" y="-602" on="0"/>
        <pt x="1095" y="-602" on="1"/>
        <pt x="1091" y="-562" on="1"/>
        <pt x="1275" y="-562" on="0"/>
        <pt x="1275" y="-457" on="1"/>
        <pt x="1274" y="-324" on="0"/>
        <pt x="1071" y="-404" on="0"/>
      </contour>
    </TTGlyph>
    <TTGlyph name="uni1B0F" xMin="53" yMin="-17" xMax="890" yMax="617">
      <contour>
        <pt x="869" y="-17" on="1"/>
        <pt x="832" y="86" on="0"/>
        <pt x="717" y="141" on="1"/>
        <pt x="619" y="190" on="0"/>
        <pt x="498" y="190" on="1"/>
        <pt x="288" y="190" on="0"/>
        <pt x="239" y="30" on="1"/>
        <pt x="160" y="30" on="0"/>
        <pt x="104" y="109" on="1"/>
        <pt x="53" y="179" on="0"/>
        <pt x="53" y="263" on="1"/>
        <pt x="53" y="435" on="0"/>
        <pt x="209" y="531" on="1"/>
        <pt x="340" y="610" on="0"/>
        <pt x="526" y="617" on="1"/>
        <pt x="526" y="587" on="1"/>
        <pt x="358" y="580" on="0"/>
        <pt x="237" y="510" on="1"/>
        <pt x="88" y="424" on="0"/>
        <pt x="88" y="270" on="1"/>
        <pt x="88" y="200" on="0"/>
        <pt x="123" y="141" on="1"/>
        <pt x="160" y="72" on="0"/>
        <pt x="225" y="69" on="1"/>
        <pt x="284" y="309" on="0"/>
        <pt x="522" y="309" on="1"/>
        <pt x="664" y="309" on="0"/>
        <pt x="773" y="221" on="1"/>
        <pt x="890" y="125" on="0"/>
        <pt x="890" y="-15" on="1"/>
      </contour>
    </TTGlyph>
    <TTGlyph name="uni1B10" xMin="31" yMin="-1261" xMax="1580" yMax="905">
      <contour>
        <pt x="1350" y="669" on="1"/>
        <pt x="1347" y="726" on="0"/>
        <pt x="1314" y="772" on="1"/>
        <pt x="1263" y="839" on="0"/>
        <pt x="1232" y="839" on="1"/>
        <pt x="1204" y="839" on="0"/>
        <pt x="1177" y="824" on="1"/>
        <pt x="1169" y="818" on="0"/>
        <pt x="1167" y="802" on="0"/>
        <pt x="1167" y="792" on="1"/>
        <pt x="1170" y="773" on="0"/>
        <pt x="1178" y="760" on="1"/>
        <pt x="1216" y="674" on="0"/>
      </contour>
      <contour>
        <pt x="1160" y="-1261" on="1"/>
        <pt x="1026" y="-1261" on="0"/>
        <pt x="964" y="-1182" on="1"/>
        <pt x="925" y="-1111" on="0"/>
        <pt x="889" y="-1036" on="1"/>
        <pt x="847" y="-957" on="0"/>
        <pt x="763" y="-957" on="1"/>
        <pt x="626" y="-957" on="0"/>
        <pt x="575" y="-1036" on="1"/>
        <pt x="547" y="-1108" on="0"/>
        <pt x="515" y="-1180" on="1"/>
        <pt x="470" y="-1259" on="0"/>
        <pt x="345" y="-1259" on="1"/>
        <pt x="158" y="-1259" on="0"/>
        <pt x="89" y="-1084" on="1"/>
        <pt x="45" y="-973" on="0"/>
        <pt x="45" y="-750" on="1"/>
        <pt x="45" y="-478" on="0"/>
        <pt x="305" y="-367" on="1"/>
        <pt x="544" y="-290" on="0"/>
        <pt x="784" y="-213" on="1"/>
        <pt x="1042" y="-93" on="0"/>
        <pt x="1042" y="199" on="1"/>
        <pt x="1042" y="486" on="0"/>
        <pt x="847" y="486" on="1"/>
        <pt x="719" y="486" on="0"/>
        <pt x="659" y="357" on="1"/>
        <pt x="652" y="357" on="1"/>
        <pt x="601" y="479" on="0"/>
        <pt x="479" y="479" on="1"/>
        <pt x="355" y="479" on="0"/>
        <pt x="314" y="398" on="1"/>
        <pt x="287" y="345" on="0"/>
        <pt x="287" y="206" on="1"/>
        <pt x="287" y="79" on="0"/>
        <pt x="405" y="-14" on="1"/>
        <pt x="312" y="-14" on="1"/>
        <pt x="146" y="-22" on="0"/>
        <pt x="146" y="244" on="1"/>
        <pt x="146" y="294" on="0"/>
        <pt x="153" y="369" on="1"/>
        <pt x="160" y="458" on="0"/>
        <pt x="162" y="472" on="1"/>
        <pt x="158" y="489" on="1"/>
        <pt x="135" y="500" on="1"/>
        <pt x="108" y="496" on="1"/>
        <pt x="62" y="453" on="0"/>
        <pt x="71" y="331" on="1"/>
        <pt x="52" y="326" on="1"/>
        <pt x="31" y="390" on="0"/>
        <pt x="31" y="458" on="1"/>
        <pt x="31" y="496" on="0"/>
        <pt x="50" y="547" on="1"/>
        <pt x="74" y="609" on="0"/>
        <pt x="108" y="609" on="1"/>
        <pt x="151" y="609" on="0"/>
        <pt x="189" y="590" on="1"/>
        <pt x="206" y="552" on="0"/>
        <pt x="206" y="515" on="1"/>
        <pt x="206" y="470" on="0"/>
        <pt x="177" y="292" on="0"/>
        <pt x="177" y="247" on="1"/>
        <pt x="177" y="43" on="0"/>
        <pt x="294" y="41" on="1"/>
        <pt x="302" y="48" on="1"/>
        <pt x="247" y="170" on="0"/>
        <pt x="247" y="271" on="1"/>
        <pt x="247" y="388" on="0"/>
        <pt x="290" y="486" on="1"/>
        <pt x="345" y="613" on="0"/>
        <pt x="448" y="613" on="1"/>
        <pt x="552" y="613" on="0"/>
        <pt x="629" y="537" on="0"/>
        <pt x="652" y="429" on="1"/>
        <pt x="662" y="429" on="1"/>
        <pt x="697" y="616" on="0"/>
        <pt x="901" y="616" on="1"/>
        <pt x="1004" y="616" on="0"/>
        <pt x="1050" y="470" on="1"/>
        <pt x="1084" y="371" on="0"/>
        <pt x="1084" y="235" on="1"/>
        <pt x="1084" y="-140" on="0"/>
        <pt x="822" y="-297" on="1"/>
        <pt x="580" y="-393" on="0"/>
        <pt x="338" y="-487" on="1"/>
        <pt x="76" y="-600" on="0"/>
        <pt x="76" y="-861" on="1"/>
        <pt x="76" y="-1132" on="0"/>
        <pt x="345" y="-1132" on="1"/>
        <pt x="493" y="-1132" on="0"/>
        <pt x="540" y="-1053" on="1"/>
        <pt x="563" y="-978" on="0"/>
        <pt x="587" y="-904" on="1"/>
        <pt x="620" y="-825" on="0"/>
        <pt x="739" y="-825" on="1"/>
        <pt x="844" y="-825" on="0"/>
        <pt x="878" y="-902" on="1"/>
        <pt x="904" y="-973" on="0"/>
        <pt x="930" y="-1046" on="1"/>
        <pt x="983" y="-1123" on="0"/>
        <pt x="1134" y="-1123" on="1"/>
        <pt x="1297" y="-1123" on="0"/>
        <pt x="1347" y="-947" on="1"/>
        <pt x="1373" y="-861" on="0"/>
        <pt x="1373" y="-640" on="1"/>
        <pt x="1373" y="-436" on="0"/>
        <pt x="1365" y="572" on="1"/>
        <pt x="1110" y="597" on="0"/>
        <pt x="1110" y="767" on="1"/>
        <pt x="1110" y="774" on="0"/>
        <pt x="1121" y="825" on="1"/>
        <pt x="1140" y="853" on="1"/>
        <pt x="1177" y="875" on="0"/>
        <pt x="1213" y="880" on="1"/>
        <pt x="1340" y="880" on="0"/>
        <pt x="1389" y="678" on="1"/>
        <pt x="1472" y="700" on="0"/>
        <pt x="1506" y="758" on="1"/>
        <pt x="1532" y="801" on="0"/>
        <pt x="1542" y="905" on="1"/>
        <pt x="1577" y="885" on="1"/>
        <pt x="1580" y="805" on="0"/>
        <pt x="1580" y="827" on="1"/>
        <pt x="1580" y="744" on="0"/>
        <pt x="1479" y="601" on="0"/>
        <pt x="1400" y="580" on="1"/>
        <pt x="1410" y="-51" on="0"/>
        <pt x="1410" y="-839" on="1"/>
        <pt x="1410" y="-1261" on="0"/>
      </contour>
    </TTGlyph>
    <TTGlyph name="uni1B11" xMin="76" yMin="-1231" xMax="1146" yMax="616">
      <contour>
        <pt x="1018" y="-1224" on="1"/>
        <pt x="1066" y="-1120" on="0"/>
        <pt x="1066" y="-1040" on="1"/>
        <pt x="1066" y="-761" on="0"/>
        <pt x="657" y="-761" on="1"/>
        <pt x="520" y="-761" on="0"/>
        <pt x="345" y="-917" on="0"/>
        <pt x="345" y="-1052" on="1"/>
        <pt x="345" y="-1108" on="0"/>
        <pt x="378" y="-1207" on="1"/>
        <pt x="237" y="-1172" on="0"/>
        <pt x="154" y="-1054" on="1"/>
        <pt x="76" y="-943" on="0"/>
        <pt x="76" y="-794" on="1"/>
        <pt x="76" y="-475" on="0"/>
        <pt x="345" y="-360" on="1"/>
        <pt x="596" y="-286" on="0"/>
        <pt x="846" y="-211" on="1"/>
        <pt x="1115" y="-102" on="0"/>
        <pt x="1115" y="203" on="1"/>
        <pt x="1115" y="486" on="0"/>
        <pt x="919" y="486" on="1"/>
        <pt x="811" y="486" on="0"/>
        <pt x="735" y="361" on="1"/>
        <pt x="688" y="425" on="0"/>
        <pt x="676" y="436" on="1"/>
        <pt x="638" y="474" on="0"/>
        <pt x="593" y="474" on="1"/>
        <pt x="459" y="474" on="0"/>
        <pt x="411" y="403" on="1"/>
        <pt x="374" y="347" on="0"/>
        <pt x="374" y="205" on="1"/>
        <pt x="374" y="80" on="0"/>
        <pt x="473" y="-15" on="1"/>
        <pt x="470" y="-17" on="1"/>
        <pt x="336" y="-17" on="0"/>
        <pt x="284" y="42" on="1"/>
        <pt x="241" y="92" on="0"/>
        <pt x="241" y="193" on="1"/>
        <pt x="241" y="226" on="0"/>
        <pt x="253" y="375" on="0"/>
        <pt x="253" y="413" on="1"/>
        <pt x="253" y="472" on="0"/>
        <pt x="220" y="498" on="1"/>
        <pt x="156" y="500" on="0"/>
        <pt x="156" y="403" on="1"/>
        <pt x="156" y="389" on="0"/>
        <pt x="161" y="330" on="1"/>
        <pt x="137" y="325" on="1"/>
        <pt x="123" y="392" on="0"/>
        <pt x="123" y="429" on="1"/>
        <pt x="123" y="609" on="0"/>
        <pt x="234" y="609" on="1"/>
        <pt x="244" y="609" on="0"/>
        <pt x="293" y="557" on="0"/>
        <pt x="293" y="548" on="1"/>
        <pt x="293" y="496" on="0"/>
        <pt x="267" y="285" on="0"/>
        <pt x="267" y="231" on="1"/>
        <pt x="267" y="115" on="0"/>
        <pt x="336" y="47" on="1"/>
        <pt x="369" y="42" on="1"/>
        <pt x="388" y="47" on="1"/>
        <pt x="333" y="177" on="0"/>
        <pt x="333" y="276" on="1"/>
        <pt x="333" y="375" on="0"/>
        <pt x="376" y="481" on="1"/>
        <pt x="430" y="611" on="0"/>
        <pt x="513" y="611" on="1"/>
        <pt x="704" y="611" on="0"/>
        <pt x="737" y="418" on="1"/>
        <pt x="794" y="616" on="0"/>
        <pt x="910" y="616" on="1"/>
        <pt x="1146" y="616" on="0"/>
        <pt x="1146" y="274" on="1"/>
        <pt x="1146" y="-147" on="0"/>
        <pt x="877" y="-305" on="1"/>
        <pt x="626" y="-386" on="0"/>
        <pt x="374" y="-463" on="1"/>
        <pt x="104" y="-551" on="0"/>
        <pt x="104" y="-804" on="1"/>
        <pt x="104" y="-915" on="0"/>
        <pt x="161" y="-1004" on="1"/>
        <pt x="222" y="-1104" on="0"/>
        <pt x="322" y="-1134" on="1"/>
        <pt x="317" y="-1052" on="1"/>
        <pt x="307" y="-877" on="0"/>
        <pt x="511" y="-636" on="0"/>
        <pt x="688" y="-636" on="1"/>
        <pt x="839" y="-636" on="0"/>
        <pt x="964" y="-735" on="1"/>
        <pt x="1099" y="-841" on="0"/>
        <pt x="1099" y="-988" on="1"/>
        <pt x="1099" y="-1139" on="0"/>
        <pt x="1035" y="-1231" on="1"/>
      </contour>
    </TTGlyph>
    <TTGlyph name="uni1B12" xMin="99" yMin="-1198" xMax="1861" yMax="630">
      <contour>
        <pt x="1032" y="-1191" on="1"/>
        <pt x="1080" y="-1088" on="0"/>
        <pt x="1080" y="-1009" on="1"/>
        <pt x="1080" y="-733" on="0"/>
        <pt x="675" y="-733" on="1"/>
        <pt x="539" y="-733" on="0"/>
        <pt x="366" y="-886" on="0"/>
        <pt x="366" y="-1020" on="1"/>
        <pt x="366" y="-1060" on="0"/>
        <pt x="399" y="-1174" on="1"/>
        <pt x="258" y="-1140" on="0"/>
        <pt x="99" y="-912" on="0"/>
        <pt x="99" y="-766" on="1"/>
        <pt x="99" y="-450" on="0"/>
        <pt x="366" y="-335" on="1"/>
        <pt x="613" y="-262" on="0"/>
        <pt x="862" y="-188" on="1"/>
        <pt x="1129" y="-79" on="0"/>
        <pt x="1129" y="222" on="1"/>
        <pt x="1129" y="503" on="0"/>
        <pt x="933" y="503" on="1"/>
        <pt x="826" y="503" on="0"/>
        <pt x="753" y="379" on="1"/>
        <pt x="721" y="416" on="0"/>
        <pt x="693" y="453" on="1"/>
        <pt x="656" y="491" on="0"/>
        <pt x="611" y="491" on="1"/>
        <pt x="478" y="491" on="0"/>
        <pt x="432" y="421" on="1"/>
        <pt x="394" y="364" on="0"/>
        <pt x="394" y="224" on="1"/>
        <pt x="394" y="100" on="0"/>
        <pt x="492" y="7" on="1"/>
        <pt x="489" y="5" on="1"/>
        <pt x="357" y="5" on="0"/>
        <pt x="305" y="65" on="1"/>
        <pt x="263" y="112" on="0"/>
        <pt x="263" y="215" on="1"/>
        <pt x="263" y="248" on="0"/>
        <pt x="275" y="393" on="0"/>
        <pt x="275" y="431" on="1"/>
        <pt x="275" y="489" on="0"/>
        <pt x="242" y="515" on="1"/>
        <pt x="179" y="517" on="0"/>
        <pt x="179" y="421" on="1"/>
        <pt x="179" y="444" on="0"/>
        <pt x="183" y="348" on="1"/>
        <pt x="159" y="343" on="1"/>
        <pt x="146" y="408" on="0"/>
        <pt x="146" y="447" on="1"/>
        <pt x="146" y="624" on="0"/>
        <pt x="256" y="624" on="1"/>
        <pt x="284" y="624" on="0"/>
        <pt x="314" y="563" on="1"/>
        <pt x="314" y="512" on="0"/>
        <pt x="289" y="303" on="0"/>
        <pt x="289" y="250" on="1"/>
        <pt x="289" y="136" on="0"/>
        <pt x="357" y="67" on="1"/>
        <pt x="389" y="63" on="1"/>
        <pt x="408" y="67" on="1"/>
        <pt x="355" y="196" on="0"/>
        <pt x="355" y="295" on="1"/>
        <pt x="355" y="395" on="0"/>
        <pt x="396" y="497" on="1"/>
        <pt x="447" y="627" on="0"/>
        <pt x="532" y="627" on="1"/>
        <pt x="723" y="627" on="0"/>
        <pt x="755" y="434" on="1"/>
        <pt x="810" y="630" on="0"/>
        <pt x="925" y="630" on="1"/>
        <pt x="1159" y="630" on="0"/>
        <pt x="1159" y="293" on="1"/>
        <pt x="1159" y="-126" on="0"/>
        <pt x="892" y="-281" on="1"/>
        <pt x="644" y="-361" on="0"/>
        <pt x="394" y="-440" on="1"/>
        <pt x="127" y="-524" on="0"/>
        <pt x="127" y="-774" on="1"/>
        <pt x="127" y="-882" on="0"/>
        <pt x="242" y="-1069" on="0"/>
        <pt x="342" y="-1101" on="1"/>
        <pt x="337" y="-1020" on="1"/>
        <pt x="329" y="-847" on="0"/>
        <pt x="530" y="-609" on="0"/>
        <pt x="705" y="-609" on="1"/>
        <pt x="854" y="-609" on="0"/>
        <pt x="978" y="-707" on="1"/>
        <pt x="1111" y="-812" on="0"/>
        <pt x="1111" y="-957" on="1"/>
        <pt x="1111" y="-1107" on="0"/>
        <pt x="1049" y="-1198" on="1"/>
      </contour>
      <contour>
        <pt x="1532" y="89" on="1"/>
        <pt x="1532" y="162" on="0"/>
        <pt x="1598" y="162" on="1"/>
        <pt x="1619" y="162" on="0"/>
        <pt x="1685" y="86" on="0"/>
        <pt x="1716" y="86" on="1"/>
        <pt x="1772" y="86" on="0"/>
        <pt x="1804" y="141" on="1"/>
        <pt x="1833" y="185" on="0"/>
        <pt x="1833" y="246" on="1"/>
        <pt x="1833" y="381" on="0"/>
        <pt x="1712" y="452" on="1"/>
        <pt x="1615" y="510" on="0"/>
        <pt x="1469" y="510" on="1"/>
        <pt x="1330" y="510" on="0"/>
        <pt x="1202" y="453" on="1"/>
        <pt x="1202" y="456" on="0"/>
        <pt x="1198" y="463" on="0"/>
        <pt x="1197" y="463" on="1"/>
        <pt x="1306" y="630" on="0"/>
        <pt x="1512" y="630" on="1"/>
        <pt x="1666" y="630" on="0"/>
        <pt x="1861" y="416" on="0"/>
        <pt x="1861" y="260" on="1"/>
        <pt x="1861" y="157" on="0"/>
        <pt x="1802" y="81" on="1"/>
        <pt x="1736" y="2" on="0"/>
        <pt x="1637" y="2" on="1"/>
        <pt x="1532" y="2" on="0"/>
      </contour>
    </TTGlyph>
    <TTGlyph name="uni1B13" xMin="105" yMin="-17" xMax="1233" yMax="616">
      <contour>
        <pt x="189" y="58" on="1"/>
        <pt x="189" y="27" on="0"/>
        <pt x="236" y="27" on="1"/>
        <pt x="287" y="27" on="0"/>
        <pt x="287" y="210" on="1"/>
        <pt x="189" y="172" on="0"/>
      </contour>
      <contour>
        <pt x="663" y="23" on="1"/>
        <pt x="764" y="23" on="0"/>
        <pt x="764" y="65" on="1"/>
        <pt x="764" y="139" on="0"/>
        <pt x="624" y="191" on="1"/>
        <pt x="511" y="231" on="0"/>
        <pt x="413" y="231" on="1"/>
        <pt x="432" y="163" on="0"/>
        <pt x="596" y="23" on="0"/>
      </contour>
      <contour>
        <pt x="1030" y="-17" on="1"/>
        <pt x="976" y="-17" on="0"/>
        <pt x="967" y="53" on="1"/>
        <pt x="967" y="46" on="0"/>
        <pt x="967" y="163" on="1"/>
        <pt x="967" y="238" on="1"/>
        <pt x="967" y="399" on="0"/>
        <pt x="897" y="450" on="1"/>
        <pt x="841" y="492" on="0"/>
        <pt x="673" y="492" on="1"/>
        <pt x="397" y="492" on="0"/>
        <pt x="397" y="359" on="1"/>
        <pt x="402" y="350" on="1"/>
        <pt x="539" y="347" on="0"/>
        <pt x="663" y="294" on="1"/>
        <pt x="820" y="226" on="0"/>
        <pt x="820" y="107" on="1"/>
        <pt x="820" y="-15" on="0"/>
        <pt x="666" y="-15" on="1"/>
        <pt x="582" y="-15" on="0"/>
        <pt x="406" y="144" on="0"/>
        <pt x="383" y="228" on="1"/>
        <pt x="336" y="228" on="0"/>
        <pt x="316" y="217" on="1"/>
        <pt x="313" y="144" on="1"/>
        <pt x="320" y="-15" on="0"/>
        <pt x="226" y="-15" on="1"/>
        <pt x="152" y="-15" on="0"/>
        <pt x="152" y="90" on="1"/>
        <pt x="152" y="235" on="0"/>
        <pt x="294" y="317" on="1"/>
        <pt x="294" y="401" on="0"/>
        <pt x="285" y="434" on="1"/>
        <pt x="266" y="502" on="0"/>
        <pt x="203" y="502" on="1"/>
        <pt x="163" y="502" on="0"/>
        <pt x="140" y="415" on="1"/>
        <pt x="124" y="352" on="0"/>
        <pt x="124" y="296" on="1"/>
        <pt x="105" y="298" on="1"/>
        <pt x="105" y="611" on="0"/>
        <pt x="233" y="611" on="1"/>
        <pt x="315" y="611" on="0"/>
        <pt x="315" y="329" on="1"/>
        <pt x="350" y="338" on="0"/>
        <pt x="374" y="340" on="1"/>
        <pt x="383" y="616" on="0"/>
        <pt x="680" y="616" on="1"/>
        <pt x="887" y="616" on="0"/>
        <pt x="951" y="499" on="1"/>
        <pt x="988" y="424" on="0"/>
        <pt x="988" y="193" on="1"/>
        <pt x="988" y="58" on="0"/>
        <pt x="1035" y="55" on="1"/>
        <pt x="1048" y="57" on="1"/>
        <pt x="1057" y="61" on="1"/>
        <pt x="1065" y="67" on="1"/>
        <pt x="1081" y="121" on="0"/>
        <pt x="1081" y="235" on="1"/>
        <pt x="1081" y="445" on="0"/>
        <pt x="1016" y="611" on="1"/>
        <pt x="1156" y="611" on="0"/>
        <pt x="1203" y="509" on="1"/>
        <pt x="1233" y="441" on="0"/>
        <pt x="1233" y="282" on="1"/>
        <pt x="1233" y="-15" on="1"/>
        <pt x="1200" y="-15" on="1"/>
        <pt x="1200" y="20" on="0"/>
        <pt x="1207" y="156" on="0"/>
        <pt x="1207" y="189" on="1"/>
        <pt x="1207" y="485" on="0"/>
        <pt x="1084" y="492" on="1"/>
        <pt x="1084" y="450" on="0"/>
        <pt x="1112" y="287" on="0"/>
        <pt x="1112" y="245" on="1"/>
        <pt x="1112" y="156" on="1"/>
        <pt x="1112" y="-17" on="0"/>
      </contour>
    </TTGlyph>
    <TTGlyph name="uni1B13.conj" xMin="102" yMin="-715" xMax="997" yMax="-80">
      <contour>
        <pt x="232" y="-658" on="1"/>
        <pt x="284" y="-658" on="0"/>
        <pt x="284" y="-492" on="1"/>
        <pt x="249" y="-501" on="0"/>
        <pt x="201" y="-580" on="0"/>
        <pt x="201" y="-620" on="1"/>
        <pt x="201" y="-658" on="0"/>
      </contour>
      <contour>
        <pt x="675" y="-670" on="1"/>
        <pt x="760" y="-670" on="0"/>
        <pt x="760" y="-620" on="1"/>
        <pt x="753" y="-589" on="0"/>
        <pt x="748" y="-580" on="1"/>
        <pt x="623" y="-468" on="0"/>
        <pt x="422" y="-468" on="1"/>
        <pt x="516" y="-670" on="0"/>
      </contour>
      <contour>
        <pt x="206" y="-715" on="1"/>
        <pt x="149" y="-715" on="0"/>
        <pt x="149" y="-629" on="1"/>
        <pt x="149" y="-523" on="0"/>
        <pt x="204" y="-468" on="1"/>
        <pt x="282" y="-390" on="0"/>
        <pt x="289" y="-374" on="1"/>
        <pt x="289" y="-331" on="1"/>
        <pt x="289" y="-194" on="0"/>
        <pt x="201" y="-194" on="1"/>
        <pt x="140" y="-194" on="0"/>
        <pt x="126" y="-400" on="1"/>
        <pt x="102" y="-402" on="1"/>
        <pt x="116" y="-82" on="0"/>
        <pt x="213" y="-82" on="1"/>
        <pt x="322" y="-82" on="0"/>
        <pt x="322" y="-364" on="1"/>
        <pt x="365" y="-352" on="1"/>
        <pt x="386" y="-198" on="0"/>
        <pt x="516" y="-80" on="0"/>
        <pt x="668" y="-80" on="1"/>
        <pt x="841" y="-80" on="0"/>
        <pt x="997" y="-217" on="0"/>
        <pt x="997" y="-388" on="1"/>
        <pt x="997" y="-715" on="1"/>
        <pt x="964" y="-715" on="1"/>
        <pt x="964" y="-674" on="0"/>
        <pt x="971" y="-513" on="0"/>
        <pt x="971" y="-473" on="1"/>
        <pt x="971" y="-322" on="0"/>
        <pt x="843" y="-208" on="0"/>
        <pt x="689" y="-208" on="1"/>
        <pt x="550" y="-208" on="0"/>
        <pt x="507" y="-220" on="1"/>
        <pt x="419" y="-246" on="0"/>
        <pt x="398" y="-348" on="1"/>
        <pt x="542" y="-352" on="0"/>
        <pt x="663" y="-407" on="1"/>
        <pt x="824" y="-478" on="0"/>
        <pt x="824" y="-599" on="1"/>
        <pt x="824" y="-710" on="0"/>
        <pt x="673" y="-710" on="1"/>
        <pt x="469" y="-710" on="0"/>
        <pt x="372" y="-478" on="1"/>
        <pt x="362" y="-473" on="0"/>
        <pt x="353" y="-473" on="1"/>
        <pt x="336" y="-473" on="0"/>
        <pt x="317" y="-483" on="1"/>
        <pt x="317" y="-715" on="0"/>
      </contour>
    </TTGlyph>
    <TTGlyph name="uni1B13_uni1B35" xMin="114" yMin="-17" xMax="1769" yMax="616">
      <contour>
        <pt x="230" y="34" on="1"/>
        <pt x="293" y="34" on="0"/>
        <pt x="293" y="195" on="1"/>
        <pt x="195" y="148" on="0"/>
        <pt x="195" y="76" on="1"/>
        <pt x="195" y="34" on="0"/>
      </contour>
      <contour>
        <pt x="677" y="18" on="1"/>
        <pt x="756" y="18" on="0"/>
        <pt x="756" y="69" on="1"/>
        <pt x="756" y="139" on="0"/>
        <pt x="617" y="185" on="1"/>
        <pt x="505" y="223" on="0"/>
        <pt x="414" y="223" on="1"/>
        <pt x="498" y="18" on="0"/>
      </contour>
      <contour>
        <pt x="647" y="-17" on="1"/>
        <pt x="479" y="-17" on="0"/>
        <pt x="384" y="220" on="1"/>
        <pt x="328" y="209" on="1"/>
        <pt x="316" y="-8" on="0"/>
        <pt x="251" y="-8" on="1"/>
        <pt x="158" y="-8" on="0"/>
        <pt x="158" y="88" on="1"/>
        <pt x="158" y="227" on="0"/>
        <pt x="293" y="309" on="1"/>
        <pt x="293" y="490" on="0"/>
        <pt x="237" y="490" on="1"/>
        <pt x="175" y="490" on="0"/>
        <pt x="154" y="416" on="1"/>
        <pt x="144" y="353" on="0"/>
        <pt x="135" y="293" on="1"/>
        <pt x="114" y="286" on="1"/>
        <pt x="114" y="360" on="1"/>
        <pt x="114" y="604" on="0"/>
        <pt x="237" y="604" on="1"/>
        <pt x="328" y="604" on="0"/>
        <pt x="328" y="325" on="1"/>
        <pt x="372" y="337" on="1"/>
        <pt x="389" y="614" on="0"/>
        <pt x="675" y="614" on="1"/>
        <pt x="852" y="614" on="0"/>
        <pt x="922" y="530" on="1"/>
        <pt x="973" y="467" on="0"/>
        <pt x="980" y="323" on="1"/>
        <pt x="996" y="83" on="0"/>
        <pt x="998" y="67" on="1"/>
        <pt x="1033" y="46" on="1"/>
        <pt x="1059" y="55" on="1"/>
        <pt x="1068" y="192" on="0"/>
        <pt x="1075" y="330" on="1"/>
        <pt x="1091" y="472" on="0"/>
        <pt x="1157" y="535" on="1"/>
        <pt x="1236" y="616" on="0"/>
        <pt x="1415" y="616" on="1"/>
        <pt x="1571" y="616" on="0"/>
        <pt x="1769" y="427" on="0"/>
        <pt x="1769" y="272" on="1"/>
        <pt x="1769" y="153" on="0"/>
        <pt x="1615" y="-15" on="0"/>
        <pt x="1499" y="-15" on="1"/>
        <pt x="1450" y="-15" on="0"/>
        <pt x="1410" y="2" on="1"/>
        <pt x="1410" y="41" on="1"/>
        <pt x="1445" y="32" on="0"/>
        <pt x="1489" y="32" on="1"/>
        <pt x="1601" y="32" on="0"/>
        <pt x="1731" y="167" on="0"/>
        <pt x="1731" y="279" on="1"/>
        <pt x="1731" y="388" on="0"/>
        <pt x="1617" y="441" on="1"/>
        <pt x="1531" y="479" on="0"/>
        <pt x="1406" y="479" on="1"/>
        <pt x="1231" y="479" on="0"/>
        <pt x="1161" y="402" on="1"/>
        <pt x="1110" y="344" on="0"/>
        <pt x="1110" y="230" on="1"/>
        <pt x="1110" y="206" on="0"/>
        <pt x="1117" y="113" on="0"/>
        <pt x="1117" y="95" on="1"/>
        <pt x="1117" y="-17" on="0"/>
        <pt x="1033" y="-17" on="1"/>
        <pt x="947" y="-17" on="0"/>
        <pt x="947" y="137" on="1"/>
        <pt x="947" y="162" on="0"/>
        <pt x="952" y="241" on="0"/>
        <pt x="952" y="253" on="1"/>
        <pt x="952" y="400" on="0"/>
        <pt x="882" y="446" on="1"/>
        <pt x="828" y="481" on="0"/>
        <pt x="675" y="481" on="1"/>
        <pt x="552" y="481" on="0"/>
        <pt x="503" y="467" on="1"/>
        <pt x="405" y="439" on="0"/>
        <pt x="405" y="346" on="1"/>
        <pt x="819" y="323" on="0"/>
        <pt x="819" y="76" on="1"/>
        <pt x="819" y="-17" on="0"/>
      </contour>
    </TTGlyph>
    <TTGlyph name="uni1B14" xMin="103" yMin="-38" xMax="1533" yMax="616">
      <contour>
        <pt x="220" y="30" on="1"/>
        <pt x="284" y="30" on="0"/>
        <pt x="284" y="197" on="1"/>
        <pt x="277" y="195" on="0"/>
        <pt x="238" y="171" on="1"/>
        <pt x="240" y="175" on="1"/>
        <pt x="191" y="133" on="0"/>
        <pt x="191" y="67" on="1"/>
        <pt x="191" y="30" on="0"/>
      </contour>
      <contour>
        <pt x="665" y="14" on="1"/>
        <pt x="751" y="14" on="0"/>
        <pt x="757" y="65" on="1"/>
        <pt x="740" y="140" on="0"/>
        <pt x="610" y="184" on="1"/>
        <pt x="510" y="215" on="0"/>
        <pt x="410" y="215" on="1"/>
        <pt x="431" y="142" on="0"/>
        <pt x="590" y="14" on="0"/>
      </contour>
      <contour>
        <pt x="1512" y="-38" on="1"/>
        <pt x="1482" y="28" on="0"/>
        <pt x="1392" y="28" on="1"/>
        <pt x="1348" y="28" on="0"/>
        <pt x="1170" y="-12" on="0"/>
        <pt x="1124" y="-12" on="1"/>
        <pt x="1005" y="-12" on="0"/>
        <pt x="978" y="60" on="1"/>
        <pt x="965" y="93" on="0"/>
        <pt x="965" y="383" on="0"/>
        <pt x="870" y="439" on="1"/>
        <pt x="796" y="484" on="0"/>
        <pt x="640" y="484" on="1"/>
        <pt x="401" y="484" on="0"/>
        <pt x="401" y="341" on="1"/>
        <pt x="550" y="341" on="0"/>
        <pt x="665" y="288" on="1"/>
        <pt x="817" y="215" on="0"/>
        <pt x="817" y="85" on="1"/>
        <pt x="817" y="39" on="0"/>
        <pt x="740" y="-17" on="0"/>
        <pt x="691" y="-17" on="1"/>
        <pt x="584" y="-17" on="0"/>
        <pt x="401" y="118" on="0"/>
        <pt x="378" y="219" on="1"/>
        <pt x="350" y="219" on="0"/>
        <pt x="317" y="211" on="1"/>
        <pt x="317" y="-14" on="0"/>
        <pt x="229" y="-14" on="1"/>
        <pt x="145" y="-14" on="0"/>
        <pt x="145" y="123" on="1"/>
        <pt x="145" y="186" on="0"/>
        <pt x="291" y="309" on="1"/>
        <pt x="291" y="347" on="1"/>
        <pt x="291" y="470" on="0"/>
        <pt x="215" y="497" on="1"/>
        <pt x="161" y="479" on="0"/>
        <pt x="143" y="411" on="1"/>
        <pt x="134" y="381" on="0"/>
        <pt x="123" y="290" on="1"/>
        <pt x="103" y="286" on="1"/>
        <pt x="103" y="351" on="1"/>
        <pt x="103" y="437" on="0"/>
        <pt x="123" y="509" on="1"/>
        <pt x="156" y="609" on="0"/>
        <pt x="220" y="609" on="1"/>
        <pt x="324" y="609" on="0"/>
        <pt x="324" y="323" on="1"/>
        <pt x="366" y="334" on="1"/>
        <pt x="380" y="488" on="0"/>
        <pt x="531" y="616" on="0"/>
        <pt x="687" y="616" on="1"/>
        <pt x="883" y="616" on="0"/>
        <pt x="949" y="486" on="1"/>
        <pt x="980" y="423" on="0"/>
        <pt x="994" y="241" on="1"/>
        <pt x="1003" y="111" on="0"/>
        <pt x="1061" y="111" on="1"/>
        <pt x="1103" y="111" on="0"/>
        <pt x="1266" y="133" on="0"/>
        <pt x="1306" y="133" on="1"/>
        <pt x="1401" y="133" on="0"/>
        <pt x="1494" y="63" on="0"/>
        <pt x="1533" y="-30" on="1"/>
      </contour>
    </TTGlyph>
    <TTGlyph name="uni1B14.conj" xMin="103" yMin="-737" xMax="1533" yMax="-83">
      <contour>
        <pt x="220" y="-669" on="1"/>
        <pt x="284" y="-669" on="0"/>
        <pt x="284" y="-502" on="1"/>
        <pt x="277" y="-504" on="0"/>
        <pt x="238" y="-528" on="1"/>
        <pt x="240" y="-524" on="1"/>
        <pt x="191" y="-566" on="0"/>
        <pt x="191" y="-632" on="1"/>
        <pt x="191" y="-669" on="0"/>
      </contour>
      <contour>
        <pt x="665" y="-685" on="1"/>
        <pt x="751" y="-685" on="0"/>
        <pt x="757" y="-634" on="1"/>
        <pt x="740" y="-559" on="0"/>
        <pt x="610" y="-515" on="1"/>
        <pt x="510" y="-484" on="0"/>
        <pt x="410" y="-484" on="1"/>
        <pt x="431" y="-557" on="0"/>
        <pt x="590" y="-685" on="0"/>
      </contour>
      <contour>
        <pt x="1512" y="-737" on="1"/>
        <pt x="1482" y="-671" on="0"/>
        <pt x="1392" y="-671" on="1"/>
        <pt x="1348" y="-671" on="0"/>
        <pt x="1170" y="-711" on="0"/>
        <pt x="1124" y="-711" on="1"/>
        <pt x="1005" y="-711" on="0"/>
        <pt x="978" y="-639" on="1"/>
        <pt x="965" y="-606" on="0"/>
        <pt x="965" y="-316" on="0"/>
        <pt x="870" y="-260" on="1"/>
        <pt x="796" y="-215" on="0"/>
        <pt x="640" y="-215" on="1"/>
        <pt x="401" y="-215" on="0"/>
        <pt x="401" y="-358" on="1"/>
        <pt x="550" y="-358" on="0"/>
        <pt x="665" y="-411" on="1"/>
        <pt x="817" y="-484" on="0"/>
        <pt x="817" y="-614" on="1"/>
        <pt x="817" y="-660" on="0"/>
        <pt x="740" y="-716" on="0"/>
        <pt x="691" y="-716" on="1"/>
        <pt x="584" y="-716" on="0"/>
        <pt x="401" y="-581" on="0"/>
        <pt x="378" y="-480" on="1"/>
        <pt x="350" y="-480" on="0"/>
        <pt x="317" y="-488" on="1"/>
        <pt x="317" y="-713" on="0"/>
        <pt x="229" y="-713" on="1"/>
        <pt x="145" y="-713" on="0"/>
        <pt x="145" y="-576" on="1"/>
        <pt x="145" y="-513" on="0"/>
        <pt x="291" y="-390" on="1"/>
        <pt x="291" y="-352" on="1"/>
        <pt x="291" y="-229" on="0"/>
        <pt x="215" y="-202" on="1"/>
        <pt x="161" y="-220" on="0"/>
        <pt x="143" y="-288" on="1"/>
        <pt x="134" y="-318" on="0"/>
        <pt x="123" y="-409" on="1"/>
        <pt x="103" y="-413" on="1"/>
        <pt x="103" y="-348" on="1"/>
        <pt x="103" y="-262" on="0"/>
        <pt x="123" y="-190" on="1"/>
        <pt x="156" y="-90" on="0"/>
        <pt x="220" y="-90" on="1"/>
        <pt x="324" y="-90" on="0"/>
        <pt x="324" y="-376" on="1"/>
        <pt x="366" y="-365" on="1"/>
        <pt x="380" y="-211" on="0"/>
        <pt x="531" y="-83" on="0"/>
        <pt x="687" y="-83" on="1"/>
        <pt x="883" y="-83" on="0"/>
        <pt x="949" y="-213" on="1"/>
        <pt x="980" y="-276" on="0"/>
        <pt x="994" y="-458" on="1"/>
        <pt x="1003" y="-588" on="0"/>
        <pt x="1061" y="-588" on="1"/>
        <pt x="1103" y="-588" on="0"/>
        <pt x="1266" y="-566" on="0"/>
        <pt x="1306" y="-566" on="1"/>
        <pt x="1401" y="-566" on="0"/>
        <pt x="1494" y="-636" on="0"/>
        <pt x="1533" y="-729" on="1"/>
      </contour>
    </TTGlyph>
    <TTGlyph name="uni1B15" xMin="78" yMin="-17" xMax="1173" yMax="617">
      <contour>
        <pt x="767" y="-15" on="1"/>
        <pt x="908" y="140" on="0"/>
        <pt x="908" y="268" on="1"/>
        <pt x="908" y="483" on="0"/>
        <pt x="632" y="483" on="1"/>
        <pt x="330" y="483" on="0"/>
        <pt x="330" y="272" on="1"/>
        <pt x="330" y="94" on="0"/>
        <pt x="446" y="-10" on="1"/>
        <pt x="399" y="-15" on="0"/>
        <pt x="374" y="-15" on="1"/>
        <pt x="195" y="-15" on="0"/>
        <pt x="195" y="268" on="1"/>
        <pt x="195" y="303" on="0"/>
        <pt x="212" y="411" on="0"/>
        <pt x="212" y="440" on="1"/>
        <pt x="212" y="490" on="0"/>
        <pt x="166" y="501" on="1"/>
        <pt x="108" y="478" on="0"/>
        <pt x="108" y="404" on="1"/>
        <pt x="108" y="411" on="0"/>
        <pt x="116" y="320" on="1"/>
        <pt x="89" y="320" on="1"/>
        <pt x="78" y="411" on="0"/>
        <pt x="78" y="430" on="1"/>
        <pt x="78" y="617" on="0"/>
        <pt x="193" y="617" on="1"/>
        <pt x="254" y="617" on="0"/>
        <pt x="254" y="518" on="1"/>
        <pt x="254" y="471" on="0"/>
        <pt x="229" y="310" on="0"/>
        <pt x="229" y="265" on="1"/>
        <pt x="229" y="48" on="0"/>
        <pt x="330" y="48" on="1"/>
        <pt x="347" y="52" on="1"/>
        <pt x="301" y="159" on="0"/>
        <pt x="301" y="270" on="1"/>
        <pt x="301" y="617" on="0"/>
        <pt x="634" y="617" on="1"/>
        <pt x="778" y="617" on="0"/>
        <pt x="950" y="430" on="0"/>
        <pt x="950" y="290" on="1"/>
        <pt x="950" y="192" on="0"/>
        <pt x="869" y="50" on="1"/>
        <pt x="1013" y="50" on="0"/>
        <pt x="1013" y="354" on="1"/>
        <pt x="1013" y="463" on="0"/>
        <pt x="981" y="617" on="1"/>
        <pt x="1173" y="617" on="0"/>
        <pt x="1173" y="267" on="1"/>
        <pt x="1173" y="-17" on="1"/>
        <pt x="1138" y="-17" on="1"/>
        <pt x="1146" y="41" on="0"/>
        <pt x="1146" y="154" on="1"/>
        <pt x="1146" y="476" on="0"/>
        <pt x="1046" y="476" on="1"/>
        <pt x="1036" y="474" on="1"/>
        <pt x="1036" y="446" on="0"/>
        <pt x="1044" y="339" on="0"/>
        <pt x="1044" y="313" on="1"/>
        <pt x="1044" y="126" on="0"/>
        <pt x="997" y="65" on="1"/>
        <pt x="944" y="-6" on="0"/>
      </contour>
    </TTGlyph>
    <TTGlyph name="uni1B15.conj" xMin="60" yMin="-715" xMax="873" yMax="-81">
      <contour>
        <pt x="840" y="-715" on="1"/>
        <pt x="840" y="-675" on="0"/>
        <pt x="847" y="-524" on="0"/>
        <pt x="847" y="-491" on="1"/>
        <pt x="847" y="-352" on="0"/>
        <pt x="798" y="-291" on="1"/>
        <pt x="737" y="-211" on="0"/>
        <pt x="572" y="-211" on="1"/>
        <pt x="303" y="-211" on="0"/>
        <pt x="303" y="-482" on="1"/>
        <pt x="303" y="-602" on="0"/>
        <pt x="418" y="-708" on="1"/>
        <pt x="404" y="-708" on="0"/>
        <pt x="350" y="-713" on="0"/>
        <pt x="338" y="-713" on="1"/>
        <pt x="256" y="-713" on="0"/>
        <pt x="211" y="-614" on="1"/>
        <pt x="176" y="-538" on="0"/>
        <pt x="176" y="-444" on="1"/>
        <pt x="176" y="-411" on="0"/>
        <pt x="192" y="-286" on="0"/>
        <pt x="192" y="-255" on="1"/>
        <pt x="192" y="-215" on="0"/>
        <pt x="173" y="-201" on="1"/>
        <pt x="88" y="-201" on="0"/>
        <pt x="88" y="-305" on="1"/>
        <pt x="88" y="-333" on="0"/>
        <pt x="95" y="-371" on="1"/>
        <pt x="77" y="-373" on="1"/>
        <pt x="60" y="-321" on="0"/>
        <pt x="60" y="-258" on="1"/>
        <pt x="60" y="-197" on="0"/>
        <pt x="84" y="-147" on="1"/>
        <pt x="112" y="-81" on="0"/>
        <pt x="164" y="-81" on="1"/>
        <pt x="237" y="-81" on="0"/>
        <pt x="237" y="-187" on="1"/>
        <pt x="237" y="-230" on="0"/>
        <pt x="201" y="-395" on="0"/>
        <pt x="201" y="-437" on="1"/>
        <pt x="201" y="-649" on="0"/>
        <pt x="331" y="-649" on="1"/>
        <pt x="272" y="-545" on="0"/>
        <pt x="272" y="-418" on="1"/>
        <pt x="272" y="-270" on="0"/>
        <pt x="423" y="-86" on="0"/>
        <pt x="567" y="-86" on="1"/>
        <pt x="713" y="-86" on="0"/>
        <pt x="873" y="-241" on="0"/>
        <pt x="873" y="-387" on="1"/>
        <pt x="873" y="-715" on="1"/>
      </contour>
    </TTGlyph>
    <TTGlyph name="uni1B15_uni1B35" xMin="92" yMin="-17" xMax="1726" yMax="618">
      <contour>
        <pt x="1425" y="-17" on="1"/>
        <pt x="1404" y="-17" on="0"/>
        <pt x="1371" y="0" on="1"/>
        <pt x="1366" y="42" on="1"/>
        <pt x="1443" y="30" on="0"/>
        <pt x="1460" y="30" on="1"/>
        <pt x="1558" y="30" on="0"/>
        <pt x="1698" y="147" on="0"/>
        <pt x="1698" y="242" on="1"/>
        <pt x="1698" y="478" on="0"/>
        <pt x="1364" y="478" on="1"/>
        <pt x="1177" y="478" on="0"/>
        <pt x="1110" y="387" on="1"/>
        <pt x="1072" y="340" on="0"/>
        <pt x="1049" y="196" on="1"/>
        <pt x="1028" y="65" on="0"/>
        <pt x="972" y="18" on="1"/>
        <pt x="960" y="9" on="0"/>
        <pt x="778" y="-12" on="1"/>
        <pt x="923" y="121" on="0"/>
        <pt x="923" y="273" on="1"/>
        <pt x="923" y="476" on="0"/>
        <pt x="622" y="476" on="1"/>
        <pt x="346" y="476" on="0"/>
        <pt x="346" y="238" on="1"/>
        <pt x="346" y="121" on="0"/>
        <pt x="470" y="-12" on="1"/>
        <pt x="318" y="-12" on="0"/>
        <pt x="260" y="51" on="1"/>
        <pt x="216" y="102" on="0"/>
        <pt x="216" y="217" on="1"/>
        <pt x="216" y="247" on="0"/>
        <pt x="225" y="399" on="0"/>
        <pt x="225" y="441" on="1"/>
        <pt x="225" y="471" on="0"/>
        <pt x="197" y="499" on="1"/>
        <pt x="146" y="480" on="1"/>
        <pt x="115" y="415" on="0"/>
        <pt x="132" y="324" on="1"/>
        <pt x="108" y="319" on="1"/>
        <pt x="92" y="371" on="0"/>
        <pt x="92" y="434" on="1"/>
        <pt x="92" y="501" on="0"/>
        <pt x="120" y="553" on="1"/>
        <pt x="153" y="616" on="0"/>
        <pt x="216" y="616" on="1"/>
        <pt x="234" y="616" on="0"/>
        <pt x="267" y="557" on="0"/>
        <pt x="267" y="539" on="1"/>
        <pt x="267" y="490" on="0"/>
        <pt x="244" y="291" on="0"/>
        <pt x="244" y="240" on="1"/>
        <pt x="244" y="123" on="0"/>
        <pt x="321" y="56" on="1"/>
        <pt x="360" y="53" on="1"/>
        <pt x="363" y="63" on="1"/>
        <pt x="311" y="151" on="0"/>
        <pt x="311" y="266" on="1"/>
        <pt x="311" y="422" on="0"/>
        <pt x="491" y="618" on="0"/>
        <pt x="645" y="618" on="1"/>
        <pt x="960" y="618" on="0"/>
        <pt x="960" y="280" on="1"/>
        <pt x="960" y="212" on="0"/>
        <pt x="883" y="51" on="1"/>
        <pt x="970" y="51" on="0"/>
        <pt x="1009" y="198" on="1"/>
        <pt x="1070" y="427" on="0"/>
        <pt x="1096" y="471" on="1"/>
        <pt x="1182" y="618" on="0"/>
        <pt x="1378" y="618" on="1"/>
        <pt x="1726" y="618" on="0"/>
        <pt x="1726" y="217" on="1"/>
        <pt x="1726" y="107" on="0"/>
        <pt x="1628" y="42" on="1"/>
        <pt x="1541" y="-17" on="0"/>
      </contour>
    </TTGlyph>
    <TTGlyph name="uni1B16" xMin="96" yMin="-17" xMax="1355" yMax="617">
      <contour>
        <pt x="239" y="2" on="1"/>
        <pt x="204" y="53" on="0"/>
        <pt x="204" y="129" on="1"/>
        <pt x="204" y="178" on="0"/>
        <pt x="230" y="370" on="0"/>
        <pt x="230" y="420" on="1"/>
        <pt x="230" y="469" on="0"/>
        <pt x="204" y="507" on="0"/>
        <pt x="157" y="504" on="1"/>
        <pt x="119" y="478" on="0"/>
        <pt x="119" y="413" on="1"/>
        <pt x="119" y="370" on="0"/>
        <pt x="136" y="335" on="1"/>
        <pt x="115" y="335" on="1"/>
        <pt x="96" y="410" on="0"/>
        <pt x="96" y="453" on="1"/>
        <pt x="96" y="615" on="0"/>
        <pt x="185" y="615" on="1"/>
        <pt x="256" y="615" on="0"/>
        <pt x="256" y="486" on="1"/>
        <pt x="256" y="429" on="0"/>
        <pt x="232" y="206" on="0"/>
        <pt x="232" y="150" on="1"/>
        <pt x="232" y="129" on="0"/>
        <pt x="237" y="91" on="1"/>
        <pt x="249" y="79" on="0"/>
        <pt x="277" y="60" on="1"/>
        <pt x="303" y="70" on="1"/>
        <pt x="324" y="110" on="0"/>
        <pt x="331" y="171" on="1"/>
        <pt x="336" y="215" on="0"/>
        <pt x="333" y="286" on="1"/>
        <pt x="328" y="382" on="0"/>
        <pt x="328" y="392" on="1"/>
        <pt x="328" y="511" on="0"/>
        <pt x="429" y="615" on="0"/>
        <pt x="549" y="615" on="1"/>
        <pt x="467" y="424" on="0"/>
        <pt x="467" y="326" on="1"/>
        <pt x="467" y="124" on="0"/>
        <pt x="655" y="124" on="1"/>
        <pt x="702" y="124" on="0"/>
        <pt x="761" y="293" on="0"/>
        <pt x="826" y="293" on="1"/>
        <pt x="887" y="293" on="0"/>
        <pt x="941" y="122" on="0"/>
        <pt x="986" y="122" on="1"/>
        <pt x="1164" y="122" on="0"/>
        <pt x="1164" y="300" on="1"/>
        <pt x="1164" y="375" on="0"/>
        <pt x="1073" y="495" on="0"/>
        <pt x="1005" y="495" on="1"/>
        <pt x="979" y="495" on="0"/>
        <pt x="951" y="486" on="1"/>
        <pt x="951" y="547" on="0"/>
        <pt x="1005" y="584" on="1"/>
        <pt x="1052" y="617" on="0"/>
        <pt x="1115" y="617" on="1"/>
        <pt x="1355" y="617" on="0"/>
        <pt x="1355" y="185" on="1"/>
        <pt x="1355" y="152" on="0"/>
        <pt x="1350" y="18" on="0"/>
        <pt x="1350" y="-17" on="1"/>
        <pt x="1317" y="-17" on="1"/>
        <pt x="1317" y="14" on="0"/>
        <pt x="1322" y="131" on="0"/>
        <pt x="1322" y="159" on="1"/>
        <pt x="1322" y="509" on="0"/>
        <pt x="1117" y="509" on="1"/>
        <pt x="1110" y="509" on="0"/>
        <pt x="1087" y="504" on="0"/>
        <pt x="1082" y="504" on="1"/>
        <pt x="1078" y="500" on="1"/>
        <pt x="1214" y="427" on="0"/>
        <pt x="1214" y="220" on="1"/>
        <pt x="1214" y="138" on="0"/>
        <pt x="1174" y="68" on="1"/>
        <pt x="1127" y="-15" on="0"/>
        <pt x="1049" y="-15" on="1"/>
        <pt x="981" y="-15" on="0"/>
        <pt x="887" y="173" on="0"/>
        <pt x="824" y="173" on="1"/>
        <pt x="756" y="173" on="0"/>
        <pt x="681" y="-15" on="0"/>
        <pt x="617" y="-15" on="1"/>
        <pt x="523" y="-15" on="0"/>
        <pt x="472" y="79" on="1"/>
        <pt x="429" y="157" on="0"/>
        <pt x="429" y="260" on="1"/>
        <pt x="429" y="359" on="0"/>
        <pt x="474" y="511" on="1"/>
        <pt x="375" y="511" on="0"/>
        <pt x="354" y="366" on="1"/>
        <pt x="352" y="356" on="0"/>
        <pt x="347" y="136" on="1"/>
        <pt x="345" y="35" on="0"/>
        <pt x="324" y="-1" on="1"/>
        <pt x="282" y="-17" on="1"/>
      </contour>
    </TTGlyph>
    <TTGlyph name="uni1B16.conj" xMin="89" yMin="-713" xMax="1332" yMax="-77">
      <contour>
        <pt x="825" y="-401" on="1"/>
        <pt x="870" y="-401" on="0"/>
        <pt x="898" y="-489" on="0"/>
        <pt x="910" y="-532" on="1"/>
        <pt x="934" y="-577" on="0"/>
        <pt x="1003" y="-577" on="1"/>
        <pt x="1146" y="-577" on="0"/>
        <pt x="1146" y="-413" on="1"/>
        <pt x="1146" y="-329" on="0"/>
        <pt x="1048" y="-203" on="0"/>
        <pt x="967" y="-203" on="1"/>
        <pt x="953" y="-203" on="0"/>
        <pt x="925" y="-208" on="1"/>
        <pt x="963" y="-77" on="0"/>
        <pt x="1098" y="-77" on="1"/>
        <pt x="1222" y="-77" on="0"/>
        <pt x="1282" y="-191" on="1"/>
        <pt x="1332" y="-284" on="0"/>
        <pt x="1332" y="-417" on="1"/>
        <pt x="1332" y="-713" on="1"/>
        <pt x="1301" y="-710" on="1"/>
        <pt x="1301" y="-448" on="0"/>
        <pt x="1284" y="-377" on="1"/>
        <pt x="1239" y="-184" on="0"/>
        <pt x="1063" y="-184" on="1"/>
        <pt x="1122" y="-220" on="0"/>
        <pt x="1194" y="-358" on="0"/>
        <pt x="1194" y="-429" on="1"/>
        <pt x="1194" y="-708" on="0"/>
        <pt x="1025" y="-708" on="1"/>
        <pt x="946" y="-708" on="0"/>
        <pt x="851" y="-525" on="0"/>
        <pt x="825" y="-525" on="1"/>
        <pt x="758" y="-525" on="0"/>
        <pt x="646" y="-710" on="0"/>
        <pt x="589" y="-710" on="1"/>
        <pt x="518" y="-710" on="0"/>
        <pt x="475" y="-605" on="1"/>
        <pt x="441" y="-522" on="0"/>
        <pt x="441" y="-436" on="1"/>
        <pt x="441" y="-344" on="0"/>
        <pt x="477" y="-191" on="1"/>
        <pt x="363" y="-191" on="0"/>
        <pt x="363" y="-408" on="1"/>
        <pt x="363" y="-415" on="0"/>
        <pt x="365" y="-453" on="1"/>
        <pt x="365" y="-489" on="0"/>
        <pt x="365" y="-513" on="1"/>
        <pt x="365" y="-708" on="0"/>
        <pt x="282" y="-708" on="1"/>
        <pt x="208" y="-708" on="0"/>
        <pt x="208" y="-551" on="1"/>
        <pt x="208" y="-506" on="0"/>
        <pt x="227" y="-325" on="0"/>
        <pt x="227" y="-277" on="1"/>
        <pt x="227" y="-187" on="0"/>
        <pt x="194" y="-187" on="1"/>
        <pt x="208" y="-187" on="0"/>
        <pt x="141" y="-203" on="1"/>
        <pt x="122" y="-239" on="0"/>
        <pt x="122" y="-289" on="1"/>
        <pt x="122" y="-334" on="0"/>
        <pt x="132" y="-365" on="1"/>
        <pt x="99" y="-365" on="1"/>
        <pt x="89" y="-320" on="0"/>
        <pt x="89" y="-229" on="1"/>
        <pt x="89" y="-77" on="0"/>
        <pt x="194" y="-77" on="1"/>
        <pt x="263" y="-77" on="0"/>
        <pt x="263" y="-227" on="1"/>
        <pt x="263" y="-272" on="0"/>
        <pt x="239" y="-460" on="0"/>
        <pt x="239" y="-508" on="1"/>
        <pt x="239" y="-579" on="0"/>
        <pt x="256" y="-622" on="1"/>
        <pt x="279" y="-634" on="1"/>
        <pt x="327" y="-627" on="0"/>
        <pt x="332" y="-482" on="1"/>
        <pt x="339" y="-263" on="0"/>
        <pt x="348" y="-220" on="1"/>
        <pt x="377" y="-79" on="0"/>
        <pt x="489" y="-79" on="1"/>
        <pt x="513" y="-79" on="0"/>
        <pt x="560" y="-84" on="1"/>
        <pt x="479" y="-241" on="0"/>
        <pt x="479" y="-363" on="1"/>
        <pt x="479" y="-567" on="0"/>
        <pt x="648" y="-567" on="1"/>
        <pt x="696" y="-567" on="0"/>
        <pt x="753" y="-401" on="0"/>
      </contour>
    </TTGlyph>
    <TTGlyph name="uni1B16.conj2" xMin="89" yMin="-716" xMax="1196" yMax="-81">
      <contour>
        <pt x="1089" y="-93" on="1"/>
        <pt x="1141" y="-124" on="0"/>
        <pt x="1172" y="-248" on="1"/>
        <pt x="1196" y="-343" on="0"/>
        <pt x="1196" y="-434" on="1"/>
        <pt x="1196" y="-713" on="0"/>
        <pt x="1027" y="-713" on="1"/>
        <pt x="945" y="-713" on="0"/>
        <pt x="855" y="-530" on="0"/>
        <pt x="826" y="-530" on="1"/>
        <pt x="759" y="-530" on="0"/>
        <pt x="647" y="-716" on="0"/>
        <pt x="590" y="-716" on="1"/>
        <pt x="518" y="-716" on="0"/>
        <pt x="475" y="-608" on="1"/>
        <pt x="442" y="-525" on="0"/>
        <pt x="442" y="-441" on="1"/>
        <pt x="442" y="-348" on="0"/>
        <pt x="478" y="-196" on="1"/>
        <pt x="363" y="-196" on="0"/>
        <pt x="363" y="-413" on="1"/>
        <pt x="363" y="-420" on="0"/>
        <pt x="366" y="-458" on="1"/>
        <pt x="366" y="-494" on="0"/>
        <pt x="366" y="-518" on="1"/>
        <pt x="366" y="-713" on="0"/>
        <pt x="282" y="-713" on="1"/>
        <pt x="208" y="-713" on="0"/>
        <pt x="208" y="-556" on="1"/>
        <pt x="208" y="-510" on="0"/>
        <pt x="227" y="-329" on="0"/>
        <pt x="227" y="-281" on="1"/>
        <pt x="227" y="-191" on="0"/>
        <pt x="194" y="-191" on="1"/>
        <pt x="170" y="-191" on="0"/>
        <pt x="141" y="-207" on="1"/>
        <pt x="122" y="-243" on="0"/>
        <pt x="122" y="-293" on="1"/>
        <pt x="122" y="-339" on="0"/>
        <pt x="132" y="-370" on="1"/>
        <pt x="99" y="-370" on="1"/>
        <pt x="89" y="-324" on="0"/>
        <pt x="89" y="-234" on="1"/>
        <pt x="89" y="-81" on="0"/>
        <pt x="194" y="-81" on="1"/>
        <pt x="263" y="-81" on="0"/>
        <pt x="263" y="-231" on="1"/>
        <pt x="263" y="-279" on="0"/>
        <pt x="239" y="-465" on="0"/>
        <pt x="239" y="-513" on="1"/>
        <pt x="239" y="-584" on="0"/>
        <pt x="256" y="-627" on="1"/>
        <pt x="280" y="-639" on="1"/>
        <pt x="328" y="-632" on="0"/>
        <pt x="332" y="-487" on="1"/>
        <pt x="340" y="-267" on="0"/>
        <pt x="349" y="-224" on="1"/>
        <pt x="378" y="-83" on="0"/>
        <pt x="490" y="-83" on="1"/>
        <pt x="514" y="-83" on="0"/>
        <pt x="561" y="-88" on="1"/>
        <pt x="480" y="-250" on="0"/>
        <pt x="480" y="-367" on="1"/>
        <pt x="480" y="-572" on="0"/>
        <pt x="650" y="-572" on="1"/>
        <pt x="697" y="-572" on="0"/>
        <pt x="755" y="-405" on="0"/>
        <pt x="826" y="-405" on="1"/>
        <pt x="872" y="-405" on="0"/>
        <pt x="898" y="-494" on="0"/>
        <pt x="910" y="-537" on="1"/>
        <pt x="934" y="-582" on="0"/>
        <pt x="1003" y="-582" on="1"/>
        <pt x="1148" y="-582" on="0"/>
        <pt x="1148" y="-417" on="1"/>
        <pt x="1148" y="-174" on="0"/>
        <pt x="1065" y="-112" on="1"/>
      </contour>
    </TTGlyph>
    <TTGlyph name="uni1B16_uni1B35" xMin="107" yMin="-17" xMax="2002" yMax="617">
      <contour>
        <pt x="288" y="-17" on="1"/>
        <pt x="217" y="-17" on="0"/>
        <pt x="217" y="131" on="1"/>
        <pt x="217" y="183" on="0"/>
        <pt x="246" y="380" on="0"/>
        <pt x="246" y="429" on="1"/>
        <pt x="246" y="476" on="0"/>
        <pt x="206" y="495" on="1"/>
        <pt x="156" y="478" on="1"/>
        <pt x="123" y="422" on="0"/>
        <pt x="147" y="326" on="1"/>
        <pt x="123" y="323" on="1"/>
        <pt x="107" y="387" on="0"/>
        <pt x="107" y="457" on="1"/>
        <pt x="107" y="603" on="0"/>
        <pt x="203" y="603" on="1"/>
        <pt x="281" y="603" on="0"/>
        <pt x="281" y="469" on="1"/>
        <pt x="281" y="422" on="0"/>
        <pt x="262" y="312" on="1"/>
        <pt x="246" y="213" on="0"/>
        <pt x="250" y="157" on="1"/>
        <pt x="255" y="93" on="1"/>
        <pt x="274" y="72" on="0"/>
        <pt x="300" y="60" on="1"/>
        <pt x="323" y="70" on="1"/>
        <pt x="337" y="100" on="0"/>
        <pt x="342" y="152" on="1"/>
        <pt x="344" y="190" on="0"/>
        <pt x="342" y="251" on="1"/>
        <pt x="339" y="331" on="0"/>
        <pt x="339" y="338" on="1"/>
        <pt x="339" y="469" on="0"/>
        <pt x="375" y="532" on="1"/>
        <pt x="422" y="615" on="0"/>
        <pt x="541" y="615" on="1"/>
        <pt x="584" y="610" on="1"/>
        <pt x="485" y="441" on="0"/>
        <pt x="485" y="328" on="1"/>
        <pt x="485" y="269" on="0"/>
        <pt x="516" y="204" on="1"/>
        <pt x="553" y="124" on="0"/>
        <pt x="605" y="124" on="1"/>
        <pt x="687" y="124" on="0"/>
        <pt x="718" y="147" on="1"/>
        <pt x="732" y="159" on="0"/>
        <pt x="767" y="255" on="0"/>
        <pt x="804" y="286" on="1"/>
        <pt x="877" y="286" on="0"/>
        <pt x="910" y="244" on="1"/>
        <pt x="917" y="232" on="0"/>
        <pt x="941" y="166" on="1"/>
        <pt x="957" y="124" on="0"/>
        <pt x="990" y="124" on="1"/>
        <pt x="1159" y="124" on="0"/>
        <pt x="1159" y="300" on="1"/>
        <pt x="1159" y="377" on="0"/>
        <pt x="1072" y="478" on="0"/>
        <pt x="1004" y="478" on="1"/>
        <pt x="978" y="478" on="0"/>
        <pt x="952" y="471" on="1"/>
        <pt x="952" y="532" on="0"/>
        <pt x="1011" y="575" on="1"/>
        <pt x="1063" y="612" on="0"/>
        <pt x="1126" y="612" on="1"/>
        <pt x="1281" y="612" on="0"/>
        <pt x="1356" y="431" on="1"/>
        <pt x="1366" y="431" on="1"/>
        <pt x="1457" y="617" on="0"/>
        <pt x="1687" y="617" on="1"/>
        <pt x="1819" y="617" on="0"/>
        <pt x="2002" y="408" on="0"/>
        <pt x="2002" y="277" on="1"/>
        <pt x="2002" y="157" on="0"/>
        <pt x="1932" y="75" on="1"/>
        <pt x="1859" y="-15" on="0"/>
        <pt x="1741" y="-15" on="1"/>
        <pt x="1723" y="-15" on="0"/>
        <pt x="1645" y="-3" on="1"/>
        <pt x="1643" y="37" on="1"/>
        <pt x="1730" y="32" on="1"/>
        <pt x="1828" y="28" on="0"/>
        <pt x="1969" y="147" on="0"/>
        <pt x="1969" y="246" on="1"/>
        <pt x="1969" y="474" on="0"/>
        <pt x="1652" y="474" on="1"/>
        <pt x="1549" y="474" on="0"/>
        <pt x="1495" y="457" on="1"/>
        <pt x="1422" y="439" on="0"/>
        <pt x="1359" y="377" on="1"/>
        <pt x="1260" y="497" on="0"/>
        <pt x="1185" y="497" on="1"/>
        <pt x="1159" y="497" on="0"/>
        <pt x="1112" y="476" on="1"/>
        <pt x="1211" y="359" on="0"/>
        <pt x="1211" y="227" on="1"/>
        <pt x="1211" y="140" on="0"/>
        <pt x="1173" y="70" on="1"/>
        <pt x="1128" y="-15" on="0"/>
        <pt x="1049" y="-15" on="1"/>
        <pt x="978" y="-15" on="0"/>
        <pt x="891" y="169" on="0"/>
        <pt x="833" y="169" on="1"/>
        <pt x="767" y="169" on="0"/>
        <pt x="729" y="77" on="0"/>
        <pt x="713" y="30" on="1"/>
        <pt x="685" y="-17" on="0"/>
        <pt x="600" y="-17" on="1"/>
        <pt x="516" y="-17" on="0"/>
        <pt x="478" y="96" on="1"/>
        <pt x="450" y="176" on="0"/>
        <pt x="450" y="284" on="1"/>
        <pt x="450" y="413" on="0"/>
        <pt x="485" y="497" on="1"/>
        <pt x="368" y="497" on="0"/>
        <pt x="368" y="286" on="1"/>
        <pt x="368" y="258" on="0"/>
        <pt x="372" y="164" on="0"/>
        <pt x="372" y="150" on="1"/>
        <pt x="372" y="72" on="0"/>
        <pt x="363" y="42" on="1"/>
        <pt x="347" y="-17" on="0"/>
      </contour>
    </TTGlyph>
    <TTGlyph name="uni1B17" xMin="75" yMin="-17" xMax="1130" yMax="617">
      <contour>
        <pt x="1097" y="-14" on="1"/>
        <pt x="1097" y="21" on="0"/>
        <pt x="1105" y="157" on="0"/>
        <pt x="1105" y="187" on="1"/>
        <pt x="1105" y="494" on="0"/>
        <pt x="899" y="494" on="1"/>
        <pt x="829" y="494" on="0"/>
        <pt x="755" y="440" on="0"/>
        <pt x="710" y="371" on="1"/>
        <pt x="702" y="368" on="1"/>
        <pt x="656" y="491" on="0"/>
        <pt x="553" y="491" on="1"/>
        <pt x="329" y="491" on="0"/>
        <pt x="329" y="268" on="1"/>
        <pt x="329" y="124" on="0"/>
        <pt x="447" y="-13" on="1"/>
        <pt x="441" y="-13" on="0"/>
        <pt x="405" y="-17" on="0"/>
        <pt x="396" y="-17" on="1"/>
        <pt x="190" y="-17" on="0"/>
        <pt x="190" y="272" on="1"/>
        <pt x="190" y="304" on="0"/>
        <pt x="206" y="421" on="0"/>
        <pt x="206" y="450" on="1"/>
        <pt x="206" y="481" on="0"/>
        <pt x="193" y="498" on="1"/>
        <pt x="177" y="502" on="0"/>
        <pt x="170" y="502" on="1"/>
        <pt x="109" y="502" on="0"/>
        <pt x="109" y="403" on="1"/>
        <pt x="109" y="378" on="0"/>
        <pt x="114" y="330" on="1"/>
        <pt x="90" y="331" on="1"/>
        <pt x="75" y="384" on="0"/>
        <pt x="75" y="440" on="1"/>
        <pt x="75" y="505" on="0"/>
        <pt x="101" y="551" on="1"/>
        <pt x="129" y="614" on="0"/>
        <pt x="189" y="614" on="1"/>
        <pt x="260" y="614" on="0"/>
        <pt x="260" y="529" on="1"/>
        <pt x="260" y="484" on="0"/>
        <pt x="229" y="297" on="0"/>
        <pt x="229" y="252" on="1"/>
        <pt x="229" y="44" on="0"/>
        <pt x="358" y="44" on="1"/>
        <pt x="297" y="154" on="0"/>
        <pt x="297" y="281" on="1"/>
        <pt x="297" y="614" on="0"/>
        <pt x="556" y="614" on="1"/>
        <pt x="618" y="614" on="0"/>
        <pt x="656" y="551" on="1"/>
        <pt x="674" y="521" on="0"/>
        <pt x="702" y="433" on="1"/>
        <pt x="710" y="433" on="1"/>
        <pt x="752" y="526" on="0"/>
        <pt x="790" y="565" on="1"/>
        <pt x="843" y="617" on="0"/>
        <pt x="931" y="617" on="1"/>
        <pt x="1130" y="617" on="0"/>
        <pt x="1130" y="272" on="1"/>
        <pt x="1130" y="-14" on="1"/>
      </contour>
    </TTGlyph>
    <TTGlyph name="uni1B17.conj" xMin="74" yMin="-717" xMax="1132" yMax="-76">
      <contour>
        <pt x="1096" y="-713" on="1"/>
        <pt x="1096" y="-679" on="0"/>
        <pt x="1103" y="-547" on="0"/>
        <pt x="1103" y="-514" on="1"/>
        <pt x="1103" y="-203" on="0"/>
        <pt x="900" y="-203" on="1"/>
        <pt x="823" y="-203" on="0"/>
        <pt x="785" y="-234" on="1"/>
        <pt x="766" y="-248" on="0"/>
        <pt x="711" y="-325" on="1"/>
        <pt x="701" y="-327" on="1"/>
        <pt x="648" y="-205" on="0"/>
        <pt x="553" y="-205" on="1"/>
        <pt x="328" y="-205" on="0"/>
        <pt x="328" y="-428" on="1"/>
        <pt x="328" y="-562" on="0"/>
        <pt x="447" y="-713" on="1"/>
        <pt x="414" y="-717" on="0"/>
        <pt x="397" y="-717" on="1"/>
        <pt x="189" y="-717" on="0"/>
        <pt x="189" y="-423" on="1"/>
        <pt x="189" y="-392" on="0"/>
        <pt x="206" y="-275" on="0"/>
        <pt x="206" y="-246" on="1"/>
        <pt x="206" y="-220" on="0"/>
        <pt x="191" y="-198" on="1"/>
        <pt x="177" y="-193" on="0"/>
        <pt x="170" y="-193" on="1"/>
        <pt x="103" y="-193" on="0"/>
        <pt x="112" y="-366" on="1"/>
        <pt x="91" y="-366" on="1"/>
        <pt x="74" y="-327" on="0"/>
        <pt x="74" y="-255" on="1"/>
        <pt x="74" y="-88" on="0"/>
        <pt x="182" y="-88" on="1"/>
        <pt x="251" y="-88" on="0"/>
        <pt x="251" y="-227" on="1"/>
        <pt x="251" y="-263" on="0"/>
        <pt x="227" y="-406" on="0"/>
        <pt x="227" y="-442" on="1"/>
        <pt x="227" y="-655" on="0"/>
        <pt x="356" y="-655" on="1"/>
        <pt x="297" y="-555" on="0"/>
        <pt x="297" y="-416" on="1"/>
        <pt x="297" y="-272" on="0"/>
        <pt x="352" y="-184" on="1"/>
        <pt x="419" y="-76" on="0"/>
        <pt x="555" y="-76" on="1"/>
        <pt x="620" y="-76" on="0"/>
        <pt x="656" y="-141" on="1"/>
        <pt x="670" y="-165" on="0"/>
        <pt x="701" y="-263" on="1"/>
        <pt x="711" y="-263" on="1"/>
        <pt x="758" y="-165" on="0"/>
        <pt x="787" y="-133" on="1"/>
        <pt x="837" y="-78" on="0"/>
        <pt x="921" y="-78" on="1"/>
        <pt x="1053" y="-78" on="0"/>
        <pt x="1101" y="-196" on="1"/>
        <pt x="1132" y="-272" on="0"/>
        <pt x="1132" y="-428" on="1"/>
        <pt x="1132" y="-715" on="1"/>
      </contour>
    </TTGlyph>
    <TTGlyph name="uni1B18" xMin="91" yMin="-17" xMax="948" yMax="617">
      <contour>
        <pt x="145" y="32" on="1"/>
        <pt x="215" y="51" on="0"/>
        <pt x="279" y="201" on="1"/>
        <pt x="275" y="201" on="0"/>
        <pt x="256" y="206" on="0"/>
        <pt x="253" y="206" on="1"/>
        <pt x="204" y="206" on="0"/>
        <pt x="126" y="135" on="0"/>
        <pt x="126" y="86" on="1"/>
        <pt x="126" y="45" on="0"/>
      </contour>
      <contour>
        <pt x="91" y="39" on="1"/>
        <pt x="91" y="305" on="0"/>
        <pt x="324" y="305" on="1"/>
        <pt x="354" y="413" on="0"/>
        <pt x="354" y="433" on="1"/>
        <pt x="354" y="514" on="0"/>
        <pt x="286" y="514" on="1"/>
        <pt x="209" y="514" on="0"/>
        <pt x="129" y="309" on="1"/>
        <pt x="121" y="309" on="1"/>
        <pt x="108" y="311" on="1"/>
        <pt x="178" y="617" on="0"/>
        <pt x="335" y="617" on="1"/>
        <pt x="403" y="617" on="0"/>
        <pt x="403" y="509" on="1"/>
        <pt x="403" y="460" on="0"/>
        <pt x="356" y="305" on="1"/>
        <pt x="359" y="300" on="1"/>
        <pt x="399" y="283" on="0"/>
        <pt x="500" y="187" on="1"/>
        <pt x="586" y="107" on="0"/>
        <pt x="654" y="107" on="1"/>
        <pt x="714" y="107" on="0"/>
        <pt x="783" y="185" on="0"/>
        <pt x="783" y="244" on="1"/>
        <pt x="783" y="349" on="0"/>
        <pt x="680" y="480" on="0"/>
        <pt x="584" y="480" on="1"/>
        <pt x="563" y="480" on="0"/>
        <pt x="541" y="478" on="1"/>
        <pt x="565" y="617" on="0"/>
        <pt x="716" y="617" on="1"/>
        <pt x="836" y="617" on="0"/>
        <pt x="896" y="518" on="1"/>
        <pt x="948" y="433" on="0"/>
        <pt x="948" y="307" on="1"/>
        <pt x="948" y="-17" on="1"/>
        <pt x="920" y="-17" on="1"/>
        <pt x="920" y="13" on="0"/>
        <pt x="924" y="129" on="0"/>
        <pt x="924" y="157" on="1"/>
        <pt x="924" y="502" on="0"/>
        <pt x="723" y="502" on="1"/>
        <pt x="714" y="502" on="0"/>
        <pt x="692" y="495" on="1"/>
        <pt x="819" y="403" on="0"/>
        <pt x="819" y="182" on="1"/>
        <pt x="819" y="116" on="0"/>
        <pt x="687" y="-17" on="0"/>
        <pt x="620" y="-17" on="1"/>
        <pt x="541" y="-17" on="0"/>
        <pt x="457" y="70" on="1"/>
        <pt x="359" y="173" on="0"/>
        <pt x="314" y="189" on="1"/>
        <pt x="211" y="-17" on="0"/>
        <pt x="153" y="-17" on="1"/>
        <pt x="91" y="-17" on="0"/>
      </contour>
    </TTGlyph>
    <TTGlyph name="uni1B18.conj" xMin="36" yMin="-715" xMax="1031" yMax="-38">
      <contour>
        <pt x="36" y="-713" on="1"/>
        <pt x="36" y="-612" on="1"/>
        <pt x="236" y="-588" on="0"/>
        <pt x="297" y="-400" on="1"/>
        <pt x="328" y="-308" on="0"/>
        <pt x="335" y="-38" on="1"/>
        <pt x="356" y="-40" on="1"/>
        <pt x="356" y="-61" on="0"/>
        <pt x="360" y="-148" on="0"/>
        <pt x="360" y="-172" on="1"/>
        <pt x="360" y="-372" on="0"/>
        <pt x="297" y="-517" on="1"/>
        <pt x="210" y="-713" on="0"/>
      </contour>
      <contour>
        <pt x="640" y="-715" on="1"/>
        <pt x="410" y="-715" on="0"/>
        <pt x="410" y="-311" on="1"/>
        <pt x="410" y="-264" on="0"/>
        <pt x="417" y="-82" on="0"/>
        <pt x="417" y="-38" on="1"/>
        <pt x="438" y="-40" on="1"/>
        <pt x="438" y="-238" on="1"/>
        <pt x="436" y="-593" on="0"/>
        <pt x="640" y="-593" on="1"/>
        <pt x="843" y="-593" on="0"/>
        <pt x="843" y="-419" on="1"/>
        <pt x="843" y="-311" on="0"/>
        <pt x="687" y="-160" on="0"/>
        <pt x="577" y="-148" on="1"/>
        <pt x="636" y="-82" on="0"/>
        <pt x="744" y="-82" on="1"/>
        <pt x="887" y="-82" on="0"/>
        <pt x="962" y="-184" on="1"/>
        <pt x="1031" y="-273" on="0"/>
        <pt x="1031" y="-421" on="1"/>
        <pt x="1031" y="-715" on="1"/>
        <pt x="1002" y="-713" on="1"/>
        <pt x="1002" y="-677" on="0"/>
        <pt x="1007" y="-534" on="0"/>
        <pt x="1007" y="-499" on="1"/>
        <pt x="1007" y="-355" on="0"/>
        <pt x="962" y="-287" on="1"/>
        <pt x="906" y="-202" on="0"/>
        <pt x="770" y="-202" on="1"/>
        <pt x="878" y="-318" on="0"/>
        <pt x="878" y="-456" on="1"/>
        <pt x="878" y="-569" on="0"/>
        <pt x="751" y="-715" on="0"/>
      </contour>
    </TTGlyph>
    <TTGlyph name="uni1B18_uni1B35" xMin="107" yMin="-17" xMax="1643" yMax="619">
      <contour>
        <pt x="168" y="35" on="1"/>
        <pt x="225" y="35" on="0"/>
        <pt x="291" y="204" on="1"/>
        <pt x="229" y="204" on="0"/>
        <pt x="145" y="136" on="0"/>
        <pt x="145" y="77" on="1"/>
        <pt x="145" y="35" on="0"/>
      </contour>
      <contour>
        <pt x="168" y="-17" on="1"/>
        <pt x="107" y="-17" on="0"/>
        <pt x="107" y="75" on="1"/>
        <pt x="107" y="167" on="0"/>
        <pt x="248" y="308" on="0"/>
        <pt x="340" y="308" on="1"/>
        <pt x="371" y="360" on="0"/>
        <pt x="371" y="426" on="1"/>
        <pt x="371" y="513" on="0"/>
        <pt x="303" y="513" on="1"/>
        <pt x="260" y="513" on="0"/>
        <pt x="208" y="431" on="1"/>
        <pt x="168" y="369" on="0"/>
        <pt x="149" y="313" on="1"/>
        <pt x="128" y="320" on="1"/>
        <pt x="199" y="614" on="0"/>
        <pt x="352" y="614" on="1"/>
        <pt x="387" y="610" on="1"/>
        <pt x="423" y="577" on="0"/>
        <pt x="423" y="515" on="1"/>
        <pt x="423" y="478" on="0"/>
        <pt x="378" y="299" on="1"/>
        <pt x="434" y="282" on="0"/>
        <pt x="526" y="186" on="1"/>
        <pt x="609" y="98" on="0"/>
        <pt x="679" y="98" on="1"/>
        <pt x="734" y="98" on="0"/>
        <pt x="795" y="183" on="0"/>
        <pt x="795" y="240" on="1"/>
        <pt x="795" y="482" on="0"/>
        <pt x="599" y="482" on="1"/>
        <pt x="580" y="482" on="0"/>
        <pt x="559" y="480" on="1"/>
        <pt x="595" y="617" on="0"/>
        <pt x="764" y="617" on="1"/>
        <pt x="858" y="617" on="0"/>
        <pt x="910" y="574" on="1"/>
        <pt x="950" y="539" on="0"/>
        <pt x="995" y="445" on="1"/>
        <pt x="1012" y="445" on="1"/>
        <pt x="1094" y="619" on="0"/>
        <pt x="1306" y="619" on="1"/>
        <pt x="1643" y="619" on="0"/>
        <pt x="1643" y="228" on="1"/>
        <pt x="1643" y="129" on="0"/>
        <pt x="1476" y="-17" on="0"/>
        <pt x="1374" y="-17" on="1"/>
        <pt x="1344" y="-17" on="0"/>
        <pt x="1292" y="-3" on="1"/>
        <pt x="1289" y="32" on="1"/>
        <pt x="1332" y="23" on="0"/>
        <pt x="1358" y="23" on="1"/>
        <pt x="1473" y="23" on="0"/>
        <pt x="1615" y="164" on="0"/>
        <pt x="1615" y="280" on="1"/>
        <pt x="1615" y="388" on="0"/>
        <pt x="1509" y="445" on="1"/>
        <pt x="1421" y="489" on="0"/>
        <pt x="1304" y="489" on="1"/>
        <pt x="1080" y="489" on="0"/>
        <pt x="1002" y="369" on="1"/>
        <pt x="986" y="369" on="1"/>
        <pt x="934" y="492" on="0"/>
        <pt x="840" y="492" on="1"/>
        <pt x="776" y="492" on="0"/>
        <pt x="741" y="475" on="1"/>
        <pt x="840" y="388" on="0"/>
        <pt x="840" y="247" on="1"/>
        <pt x="840" y="143" on="0"/>
        <pt x="788" y="68" on="1"/>
        <pt x="729" y="-17" on="0"/>
        <pt x="630" y="-17" on="1"/>
        <pt x="555" y="-17" on="0"/>
        <pt x="472" y="73" on="1"/>
        <pt x="378" y="171" on="0"/>
        <pt x="331" y="188" on="1"/>
        <pt x="272" y="70" on="0"/>
        <pt x="267" y="63" on="1"/>
        <pt x="218" y="-17" on="0"/>
      </contour>
    </TTGlyph>
    <TTGlyph name="uni1B19" xMin="108" yMin="-17" xMax="1160" yMax="617">
      <contour>
        <pt x="1000" y="354" on="1"/>
        <pt x="1000" y="463" on="0"/>
        <pt x="968" y="617" on="1"/>
        <pt x="1160" y="617" on="0"/>
        <pt x="1160" y="267" on="1"/>
        <pt x="1160" y="-17" on="1"/>
        <pt x="1125" y="-17" on="1"/>
        <pt x="1133" y="41" on="0"/>
        <pt x="1133" y="154" on="1"/>
        <pt x="1133" y="476" on="0"/>
        <pt x="1033" y="476" on="1"/>
        <pt x="1023" y="474" on="1"/>
        <pt x="1023" y="446" on="0"/>
        <pt x="1031" y="340" on="0"/>
        <pt x="1032" y="299" on="1"/>
        <pt x="1036" y="-11" on="0"/>
        <pt x="797" y="-11" on="1"/>
        <pt x="624" y="-11" on="0"/>
        <pt x="598" y="118" on="1"/>
        <pt x="591" y="239" on="0"/>
        <pt x="581" y="361" on="1"/>
        <pt x="549" y="490" on="0"/>
        <pt x="356" y="490" on="1"/>
        <pt x="235" y="490" on="0"/>
        <pt x="188" y="424" on="1"/>
        <pt x="150" y="368" on="0"/>
        <pt x="150" y="242" on="1"/>
        <pt x="150" y="153" on="1"/>
        <pt x="150" y="120" on="0"/>
        <pt x="204" y="59" on="0"/>
        <pt x="237" y="59" on="1"/>
        <pt x="333" y="59" on="0"/>
        <pt x="333" y="185" on="1"/>
        <pt x="333" y="218" on="0"/>
        <pt x="324" y="286" on="1"/>
        <pt x="345" y="291" on="1"/>
        <pt x="363" y="207" on="0"/>
        <pt x="363" y="164" on="1"/>
        <pt x="363" y="96" on="0"/>
        <pt x="338" y="47" on="1"/>
        <pt x="307" y="-16" on="0"/>
        <pt x="246" y="-16" on="1"/>
        <pt x="169" y="-16" on="0"/>
        <pt x="134" y="87" on="1"/>
        <pt x="108" y="160" on="0"/>
        <pt x="108" y="258" on="1"/>
        <pt x="108" y="617" on="0"/>
        <pt x="392" y="617" on="1"/>
        <pt x="535" y="617" on="0"/>
        <pt x="584" y="539" on="1"/>
        <pt x="617" y="490" on="0"/>
        <pt x="617" y="371" on="1"/>
        <pt x="617" y="364" on="0"/>
        <pt x="617" y="333" on="0"/>
        <pt x="617" y="324" on="1"/>
        <pt x="617" y="221" on="0"/>
        <pt x="640" y="176" on="1"/>
        <pt x="677" y="113" on="0"/>
        <pt x="785" y="113" on="1"/>
        <pt x="999" y="113" on="0"/>
      </contour>
    </TTGlyph>
    <TTGlyph name="uni1B19.conj" xMin="105" yMin="-715" xMax="1033" yMax="-80">
      <contour>
        <pt x="243" y="-715" on="1"/>
        <pt x="166" y="-715" on="0"/>
        <pt x="131" y="-612" on="1"/>
        <pt x="105" y="-539" on="0"/>
        <pt x="105" y="-441" on="1"/>
        <pt x="105" y="-82" on="0"/>
        <pt x="389" y="-82" on="1"/>
        <pt x="532" y="-82" on="0"/>
        <pt x="581" y="-160" on="1"/>
        <pt x="614" y="-209" on="0"/>
        <pt x="614" y="-328" on="1"/>
        <pt x="614" y="-335" on="0"/>
        <pt x="614" y="-366" on="0"/>
        <pt x="614" y="-375" on="1"/>
        <pt x="614" y="-478" on="0"/>
        <pt x="637" y="-523" on="1"/>
        <pt x="674" y="-586" on="0"/>
        <pt x="782" y="-586" on="1"/>
        <pt x="996" y="-586" on="0"/>
        <pt x="996" y="-338" on="1"/>
        <pt x="996" y="-272" on="1"/>
        <pt x="996" y="-265" on="0"/>
        <pt x="974" y="-82" on="1"/>
        <pt x="1000" y="-80" on="1"/>
        <pt x="1033" y="-321" on="0"/>
        <pt x="1033" y="-396" on="1"/>
        <pt x="1033" y="-710" on="0"/>
        <pt x="794" y="-710" on="1"/>
        <pt x="621" y="-710" on="0"/>
        <pt x="595" y="-581" on="1"/>
        <pt x="588" y="-460" on="0"/>
        <pt x="578" y="-338" on="1"/>
        <pt x="546" y="-209" on="0"/>
        <pt x="353" y="-209" on="1"/>
        <pt x="232" y="-209" on="0"/>
        <pt x="185" y="-275" on="1"/>
        <pt x="147" y="-331" on="0"/>
        <pt x="147" y="-457" on="1"/>
        <pt x="147" y="-546" on="1"/>
        <pt x="147" y="-579" on="0"/>
        <pt x="201" y="-640" on="0"/>
        <pt x="234" y="-640" on="1"/>
        <pt x="330" y="-640" on="0"/>
        <pt x="330" y="-514" on="1"/>
        <pt x="330" y="-481" on="0"/>
        <pt x="321" y="-413" on="1"/>
        <pt x="342" y="-408" on="1"/>
        <pt x="360" y="-492" on="0"/>
        <pt x="360" y="-535" on="1"/>
        <pt x="360" y="-603" on="0"/>
        <pt x="335" y="-652" on="1"/>
        <pt x="304" y="-715" on="0"/>
      </contour>
    </TTGlyph>
    <TTGlyph name="uni1B1A" xMin="66" yMin="-17" xMax="947" yMax="617">
      <contour>
        <pt x="327" y="-13" on="1"/>
        <pt x="254" y="-15" on="0"/>
        <pt x="214" y="91" on="1"/>
        <pt x="183" y="171" on="0"/>
        <pt x="183" y="260" on="1"/>
        <pt x="183" y="290" on="0"/>
        <pt x="195" y="415" on="0"/>
        <pt x="195" y="445" on="1"/>
        <pt x="195" y="504" on="0"/>
        <pt x="160" y="504" on="1"/>
        <pt x="97" y="504" on="0"/>
        <pt x="97" y="415" on="1"/>
        <pt x="97" y="394" on="0"/>
        <pt x="104" y="326" on="0"/>
        <pt x="104" y="316" on="1"/>
        <pt x="85" y="312" on="1"/>
        <pt x="66" y="391" on="0"/>
        <pt x="66" y="431" on="1"/>
        <pt x="66" y="617" on="0"/>
        <pt x="191" y="617" on="1"/>
        <pt x="240" y="617" on="0"/>
        <pt x="240" y="509" on="1"/>
        <pt x="240" y="467" on="0"/>
        <pt x="212" y="297" on="0"/>
        <pt x="212" y="255" on="1"/>
        <pt x="212" y="44" on="0"/>
        <pt x="348" y="44" on="1"/>
        <pt x="284" y="149" on="0"/>
        <pt x="284" y="276" on="1"/>
        <pt x="284" y="617" on="0"/>
        <pt x="653" y="617" on="1"/>
        <pt x="771" y="617" on="0"/>
        <pt x="848" y="565" on="1"/>
        <pt x="940" y="504" on="0"/>
        <pt x="940" y="394" on="1"/>
        <pt x="940" y="281" on="0"/>
        <pt x="822" y="227" on="1"/>
        <pt x="820" y="220" on="1"/>
        <pt x="893" y="185" on="0"/>
        <pt x="921" y="124" on="1"/>
        <pt x="940" y="77" on="0"/>
        <pt x="947" y="-17" on="1"/>
        <pt x="921" y="-17" on="1"/>
        <pt x="919" y="133" on="0"/>
        <pt x="820" y="178" on="1"/>
        <pt x="764" y="204" on="0"/>
        <pt x="590" y="204" on="1"/>
        <pt x="602" y="236" on="1"/>
        <pt x="602" y="236" on="0"/>
        <pt x="599" y="236" on="1"/>
        <pt x="768" y="246" on="0"/>
        <pt x="783" y="251" on="1"/>
        <pt x="907" y="274" on="0"/>
        <pt x="907" y="361" on="1"/>
        <pt x="907" y="490" on="0"/>
        <pt x="672" y="490" on="1"/>
        <pt x="583" y="490" on="1"/>
        <pt x="447" y="490" on="0"/>
        <pt x="388" y="448" on="1"/>
        <pt x="315" y="399" on="0"/>
        <pt x="315" y="269" on="1"/>
        <pt x="315" y="117" on="0"/>
        <pt x="439" y="0" on="1"/>
        <pt x="402" y="-9" on="1"/>
      </contour>
    </TTGlyph>
    <TTGlyph name="uni1B1A.conj" xMin="67" yMin="-715" xMax="983" yMax="-81">
      <contour>
        <pt x="400" y="-715" on="1"/>
        <pt x="274" y="-715" on="0"/>
        <pt x="175" y="-639" on="1"/>
        <pt x="67" y="-559" on="0"/>
        <pt x="67" y="-437" on="1"/>
        <pt x="67" y="-288" on="0"/>
        <pt x="228" y="-180" on="1"/>
        <pt x="372" y="-81" on="0"/>
        <pt x="528" y="-81" on="1"/>
        <pt x="595" y="-81" on="0"/>
        <pt x="623" y="-97" on="1"/>
        <pt x="625" y="-113" on="1"/>
        <pt x="448" y="-143" on="0"/>
        <pt x="303" y="-226" on="1"/>
        <pt x="113" y="-334" on="0"/>
        <pt x="113" y="-476" on="1"/>
        <pt x="113" y="-680" on="0"/>
        <pt x="501" y="-680" on="1"/>
        <pt x="556" y="-680" on="0"/>
        <pt x="666" y="-609" on="0"/>
        <pt x="666" y="-556" on="1"/>
        <pt x="666" y="-453" on="0"/>
        <pt x="535" y="-428" on="1"/>
        <pt x="492" y="-418" on="0"/>
        <pt x="326" y="-418" on="1"/>
        <pt x="317" y="-416" on="0"/>
        <pt x="315" y="-414" on="1"/>
        <pt x="423" y="-340" on="0"/>
        <pt x="611" y="-340" on="1"/>
        <pt x="983" y="-340" on="0"/>
        <pt x="983" y="-715" on="1"/>
        <pt x="958" y="-712" on="1"/>
        <pt x="951" y="-556" on="0"/>
        <pt x="831" y="-430" on="0"/>
        <pt x="678" y="-430" on="1"/>
        <pt x="659" y="-430" on="0"/>
        <pt x="627" y="-435" on="1"/>
        <pt x="701" y="-492" on="0"/>
        <pt x="701" y="-563" on="1"/>
        <pt x="701" y="-715" on="0"/>
      </contour>
    </TTGlyph>
    <TTGlyph name="uni1B1B" xMin="37" yMin="-1261" xMax="1573" yMax="880">
      <contour>
        <pt x="1367" y="668" on="1"/>
        <pt x="1358" y="706" on="0"/>
        <pt x="1324" y="769" on="0"/>
        <pt x="1285" y="814" on="0"/>
        <pt x="1248" y="839" on="0"/>
        <pt x="1238" y="839" on="1"/>
        <pt x="1227" y="839" on="0"/>
        <pt x="1204" y="835" on="0"/>
        <pt x="1185" y="825" on="0"/>
        <pt x="1173" y="807" on="0"/>
        <pt x="1173" y="792" on="1"/>
        <pt x="1182" y="735" on="0"/>
        <pt x="1282" y="671" on="0"/>
      </contour>
      <contour>
        <pt x="1405" y="572" on="1"/>
        <pt x="1416" y="-51" on="0"/>
        <pt x="1416" y="-839" on="1"/>
        <pt x="1416" y="-1261" on="0"/>
        <pt x="1166" y="-1261" on="1"/>
        <pt x="1032" y="-1261" on="0"/>
        <pt x="970" y="-1182" on="1"/>
        <pt x="931" y="-1111" on="0"/>
        <pt x="895" y="-1036" on="1"/>
        <pt x="853" y="-957" on="0"/>
        <pt x="769" y="-957" on="1"/>
        <pt x="632" y="-957" on="0"/>
        <pt x="581" y="-1036" on="1"/>
        <pt x="553" y="-1108" on="0"/>
        <pt x="521" y="-1180" on="1"/>
        <pt x="476" y="-1259" on="0"/>
        <pt x="351" y="-1259" on="1"/>
        <pt x="164" y="-1259" on="0"/>
        <pt x="95" y="-1084" on="1"/>
        <pt x="51" y="-973" on="0"/>
        <pt x="51" y="-750" on="1"/>
        <pt x="51" y="-478" on="0"/>
        <pt x="311" y="-367" on="1"/>
        <pt x="550" y="-290" on="0"/>
        <pt x="790" y="-213" on="1"/>
        <pt x="1048" y="-93" on="0"/>
        <pt x="1048" y="199" on="1"/>
        <pt x="1048" y="486" on="0"/>
        <pt x="853" y="486" on="1"/>
        <pt x="725" y="486" on="0"/>
        <pt x="665" y="357" on="1"/>
        <pt x="658" y="357" on="1"/>
        <pt x="607" y="479" on="0"/>
        <pt x="485" y="479" on="1"/>
        <pt x="361" y="479" on="0"/>
        <pt x="320" y="398" on="1"/>
        <pt x="293" y="345" on="0"/>
        <pt x="293" y="206" on="1"/>
        <pt x="293" y="79" on="0"/>
        <pt x="411" y="-14" on="1"/>
        <pt x="318" y="-14" on="1"/>
        <pt x="152" y="-22" on="0"/>
        <pt x="152" y="244" on="1"/>
        <pt x="152" y="294" on="0"/>
        <pt x="159" y="369" on="1"/>
        <pt x="166" y="458" on="0"/>
        <pt x="168" y="472" on="1"/>
        <pt x="164" y="489" on="1"/>
        <pt x="141" y="500" on="1"/>
        <pt x="114" y="496" on="1"/>
        <pt x="68" y="453" on="0"/>
        <pt x="77" y="331" on="1"/>
        <pt x="58" y="326" on="1"/>
        <pt x="37" y="390" on="0"/>
        <pt x="37" y="458" on="1"/>
        <pt x="37" y="496" on="0"/>
        <pt x="56" y="547" on="1"/>
        <pt x="80" y="609" on="0"/>
        <pt x="114" y="609" on="1"/>
        <pt x="157" y="609" on="0"/>
        <pt x="195" y="590" on="1"/>
        <pt x="212" y="552" on="0"/>
        <pt x="212" y="515" on="1"/>
        <pt x="212" y="470" on="0"/>
        <pt x="183" y="292" on="0"/>
        <pt x="183" y="247" on="1"/>
        <pt x="183" y="43" on="0"/>
        <pt x="300" y="41" on="1"/>
        <pt x="308" y="48" on="1"/>
        <pt x="253" y="170" on="0"/>
        <pt x="253" y="271" on="1"/>
        <pt x="253" y="388" on="0"/>
        <pt x="296" y="486" on="1"/>
        <pt x="351" y="613" on="0"/>
        <pt x="454" y="613" on="1"/>
        <pt x="558" y="613" on="0"/>
        <pt x="635" y="537" on="0"/>
        <pt x="658" y="429" on="1"/>
        <pt x="668" y="429" on="1"/>
        <pt x="703" y="616" on="0"/>
        <pt x="907" y="616" on="1"/>
        <pt x="1010" y="616" on="0"/>
        <pt x="1056" y="470" on="1"/>
        <pt x="1090" y="371" on="0"/>
        <pt x="1090" y="235" on="1"/>
        <pt x="1090" y="-140" on="0"/>
        <pt x="828" y="-297" on="1"/>
        <pt x="586" y="-393" on="0"/>
        <pt x="344" y="-487" on="1"/>
        <pt x="82" y="-600" on="0"/>
        <pt x="82" y="-861" on="1"/>
        <pt x="82" y="-1132" on="0"/>
        <pt x="351" y="-1132" on="1"/>
        <pt x="499" y="-1132" on="0"/>
        <pt x="546" y="-1053" on="1"/>
        <pt x="569" y="-978" on="0"/>
        <pt x="593" y="-904" on="1"/>
        <pt x="626" y="-825" on="0"/>
        <pt x="745" y="-825" on="1"/>
        <pt x="850" y="-825" on="0"/>
        <pt x="884" y="-902" on="1"/>
        <pt x="910" y="-973" on="0"/>
        <pt x="936" y="-1046" on="1"/>
        <pt x="989" y="-1123" on="0"/>
        <pt x="1140" y="-1123" on="1"/>
        <pt x="1303" y="-1123" on="0"/>
        <pt x="1353" y="-947" on="1"/>
        <pt x="1379" y="-861" on="0"/>
        <pt x="1379" y="-640" on="1"/>
        <pt x="1379" y="-436" on="0"/>
        <pt x="1371" y="572" on="1"/>
        <pt x="1116" y="597" on="0"/>
        <pt x="1116" y="767" on="1"/>
        <pt x="1116" y="774" on="0"/>
        <pt x="1127" y="825" on="1"/>
        <pt x="1146" y="853" on="1"/>
        <pt x="1183" y="875" on="0"/>
        <pt x="1219" y="880" on="1"/>
        <pt x="1346" y="880" on="0"/>
        <pt x="1409" y="669" on="1"/>
        <pt x="1476" y="653" on="0"/>
        <pt x="1570" y="517" on="0"/>
        <pt x="1572" y="450" on="1"/>
        <pt x="1573" y="408" on="0"/>
        <pt x="1572" y="373" on="1"/>
        <pt x="1537" y="353" on="1"/>
        <pt x="1527" y="457" on="0"/>
        <pt x="1501" y="500" on="1"/>
        <pt x="1467" y="558" on="0"/>
      </contour>
    </TTGlyph>
    <TTGlyph name="uni1B1B.conj" xMin="0" yMin="-799" xMax="1522" yMax="955">
      <contour>
        <pt x="1316" y="743" on="1"/>
        <pt x="1307" y="781" on="0"/>
        <pt x="1273" y="844" on="0"/>
        <pt x="1234" y="889" on="0"/>
        <pt x="1197" y="914" on="0"/>
        <pt x="1187" y="914" on="1"/>
        <pt x="1176" y="914" on="0"/>
        <pt x="1153" y="910" on="0"/>
        <pt x="1134" y="900" on="0"/>
        <pt x="1122" y="882" on="0"/>
        <pt x="1122" y="867" on="1"/>
        <pt x="1131" y="810" on="0"/>
        <pt x="1231" y="746" on="0"/>
      </contour>
      <contour>
        <pt x="359" y="-106" on="1"/>
        <pt x="34" y="-220" on="0"/>
        <pt x="31" y="-399" on="1"/>
        <pt x="31" y="-670" on="0"/>
        <pt x="300" y="-670" on="1"/>
        <pt x="448" y="-670" on="0"/>
        <pt x="495" y="-591" on="1"/>
        <pt x="518" y="-516" on="0"/>
        <pt x="542" y="-442" on="1"/>
        <pt x="575" y="-363" on="0"/>
        <pt x="694" y="-363" on="1"/>
        <pt x="799" y="-363" on="0"/>
        <pt x="833" y="-440" on="1"/>
        <pt x="859" y="-511" on="0"/>
        <pt x="885" y="-584" on="1"/>
        <pt x="938" y="-661" on="0"/>
        <pt x="1089" y="-661" on="1"/>
        <pt x="1234" y="-660" on="0"/>
        <pt x="1274" y="-627" on="0"/>
        <pt x="1338" y="-457" on="0"/>
        <pt x="1320" y="647" on="1"/>
        <pt x="1065" y="672" on="0"/>
        <pt x="1065" y="842" on="1"/>
        <pt x="1065" y="849" on="0"/>
        <pt x="1076" y="900" on="1"/>
        <pt x="1095" y="928" on="1"/>
        <pt x="1132" y="950" on="0"/>
        <pt x="1168" y="955" on="1"/>
        <pt x="1295" y="955" on="0"/>
        <pt x="1358" y="744" on="1"/>
        <pt x="1425" y="728" on="0"/>
        <pt x="1519" y="592" on="0"/>
        <pt x="1521" y="525" on="1"/>
        <pt x="1522" y="483" on="0"/>
        <pt x="1521" y="448" on="1"/>
        <pt x="1486" y="428" on="1"/>
        <pt x="1476" y="532" on="0"/>
        <pt x="1450" y="575" on="1"/>
        <pt x="1416" y="633" on="0"/>
        <pt x="1354" y="647" on="1"/>
        <pt x="1365" y="-169" on="0"/>
        <pt x="1365" y="-377" on="1"/>
        <pt x="1365" y="-799" on="0"/>
        <pt x="1115" y="-799" on="1"/>
        <pt x="981" y="-799" on="0"/>
        <pt x="919" y="-720" on="1"/>
        <pt x="880" y="-649" on="0"/>
        <pt x="844" y="-574" on="1"/>
        <pt x="802" y="-495" on="0"/>
        <pt x="718" y="-495" on="1"/>
        <pt x="581" y="-495" on="0"/>
        <pt x="530" y="-574" on="1"/>
        <pt x="502" y="-646" on="0"/>
        <pt x="470" y="-718" on="1"/>
        <pt x="425" y="-797" on="0"/>
        <pt x="300" y="-797" on="1"/>
        <pt x="113" y="-797" on="0"/>
        <pt x="44" y="-622" on="1"/>
        <pt x="0" y="-511" on="0"/>
        <pt x="0" y="-365" on="1"/>
        <pt x="0" y="-175" on="0"/>
        <pt x="322" y="-22" on="1"/>
        <pt x="401" y="-22" on="1"/>
      </contour>
    </TTGlyph>
    <TTGlyph name="uni1B1C" xMin="98" yMin="-24" xMax="1895" yMax="617">
      <contour>
        <pt x="1538" y="-11" on="1"/>
        <pt x="1540" y="34" on="1"/>
        <pt x="1583" y="20" on="0"/>
        <pt x="1629" y="20" on="1"/>
        <pt x="1730" y="20" on="0"/>
        <pt x="1869" y="148" on="0"/>
        <pt x="1869" y="248" on="1"/>
        <pt x="1869" y="361" on="0"/>
        <pt x="1764" y="422" on="1"/>
        <pt x="1674" y="473" on="0"/>
        <pt x="1554" y="473" on="1"/>
        <pt x="1324" y="473" on="0"/>
        <pt x="1261" y="347" on="1"/>
        <pt x="1228" y="229" on="0"/>
        <pt x="1194" y="109" on="1"/>
        <pt x="1145" y="-17" on="0"/>
        <pt x="953" y="-17" on="1"/>
        <pt x="1092" y="104" on="0"/>
        <pt x="1092" y="268" on="1"/>
        <pt x="1092" y="476" on="0"/>
        <pt x="897" y="476" on="1"/>
        <pt x="826" y="476" on="0"/>
        <pt x="789" y="448" on="1"/>
        <pt x="759" y="429" on="0"/>
        <pt x="713" y="361" on="1"/>
        <pt x="706" y="361" on="1"/>
        <pt x="695" y="394" on="0"/>
        <pt x="619" y="471" on="0"/>
        <pt x="588" y="471" on="1"/>
        <pt x="460" y="471" on="0"/>
        <pt x="401" y="424" on="1"/>
        <pt x="337" y="371" on="0"/>
        <pt x="337" y="243" on="1"/>
        <pt x="337" y="172" on="0"/>
        <pt x="405" y="25" on="0"/>
        <pt x="460" y="-17" on="1"/>
        <pt x="405" y="-17" on="1"/>
        <pt x="216" y="-17" on="0"/>
        <pt x="216" y="220" on="1"/>
        <pt x="216" y="260" on="0"/>
        <pt x="226" y="406" on="0"/>
        <pt x="226" y="434" on="1"/>
        <pt x="226" y="429" on="0"/>
        <pt x="218" y="476" on="1"/>
        <pt x="188" y="489" on="1"/>
        <pt x="131" y="476" on="0"/>
        <pt x="131" y="392" on="1"/>
        <pt x="131" y="382" on="0"/>
        <pt x="135" y="318" on="1"/>
        <pt x="115" y="318" on="1"/>
        <pt x="98" y="351" on="0"/>
        <pt x="98" y="429" on="1"/>
        <pt x="98" y="612" on="0"/>
        <pt x="194" y="612" on="1"/>
        <pt x="270" y="612" on="0"/>
        <pt x="270" y="486" on="1"/>
        <pt x="270" y="443" on="0"/>
        <pt x="239" y="270" on="0"/>
        <pt x="239" y="225" on="1"/>
        <pt x="239" y="157" on="0"/>
        <pt x="264" y="102" on="1"/>
        <pt x="295" y="34" on="0"/>
        <pt x="359" y="34" on="1"/>
        <pt x="372" y="39" on="1"/>
        <pt x="312" y="122" on="0"/>
        <pt x="312" y="270" on="1"/>
        <pt x="312" y="608" on="0"/>
        <pt x="588" y="608" on="1"/>
        <pt x="641" y="608" on="0"/>
        <pt x="671" y="532" on="1"/>
        <pt x="688" y="473" on="0"/>
        <pt x="704" y="415" on="1"/>
        <pt x="748" y="521" on="0"/>
        <pt x="789" y="561" on="1"/>
        <pt x="842" y="617" on="0"/>
        <pt x="942" y="617" on="1"/>
        <pt x="1033" y="617" on="0"/>
        <pt x="1082" y="494" on="1"/>
        <pt x="1122" y="399" on="0"/>
        <pt x="1122" y="292" on="1"/>
        <pt x="1122" y="157" on="0"/>
        <pt x="1049" y="48" on="1"/>
        <pt x="1051" y="41" on="1"/>
        <pt x="1150" y="41" on="0"/>
        <pt x="1186" y="190" on="1"/>
        <pt x="1245" y="429" on="0"/>
        <pt x="1263" y="464" on="1"/>
        <pt x="1340" y="612" on="0"/>
        <pt x="1545" y="612" on="1"/>
        <pt x="1702" y="612" on="0"/>
        <pt x="1895" y="410" on="0"/>
        <pt x="1895" y="253" on="1"/>
        <pt x="1895" y="137" on="0"/>
        <pt x="1742" y="-24" on="0"/>
        <pt x="1626" y="-24" on="1"/>
        <pt x="1594" y="-24" on="0"/>
      </contour>
    </TTGlyph>
    <TTGlyph name="uni1B1C.conj" xMin="94" yMin="-716" xMax="1781" yMax="-81">
      <contour>
        <pt x="224" y="-254" on="1"/>
        <pt x="224" y="-247" on="0"/>
        <pt x="210" y="-209" on="0"/>
        <pt x="210" y="-204" on="1"/>
        <pt x="184" y="-195" on="1"/>
        <pt x="127" y="-214" on="0"/>
        <pt x="127" y="-290" on="1"/>
        <pt x="127" y="-306" on="0"/>
        <pt x="134" y="-361" on="1"/>
        <pt x="108" y="-363" on="1"/>
        <pt x="94" y="-320" on="0"/>
        <pt x="94" y="-254" on="1"/>
        <pt x="94" y="-197" on="0"/>
        <pt x="118" y="-147" on="1"/>
        <pt x="149" y="-88" on="0"/>
        <pt x="201" y="-88" on="1"/>
        <pt x="217" y="-88" on="0"/>
        <pt x="265" y="-126" on="0"/>
        <pt x="265" y="-143" on="1"/>
        <pt x="265" y="-190" on="0"/>
        <pt x="239" y="-377" on="0"/>
        <pt x="239" y="-422" on="1"/>
        <pt x="239" y="-636" on="0"/>
        <pt x="326" y="-647" on="1"/>
        <pt x="345" y="-640" on="1"/>
        <pt x="295" y="-534" on="0"/>
        <pt x="295" y="-429" on="1"/>
        <pt x="295" y="-83" on="0"/>
        <pt x="525" y="-83" on="1"/>
        <pt x="594" y="-83" on="0"/>
        <pt x="627" y="-150" on="1"/>
        <pt x="639" y="-173" on="0"/>
        <pt x="668" y="-275" on="1"/>
        <pt x="710" y="-176" on="0"/>
        <pt x="741" y="-143" on="1"/>
        <pt x="791" y="-81" on="0"/>
        <pt x="874" y="-81" on="1"/>
        <pt x="961" y="-81" on="0"/>
        <pt x="1014" y="-178" on="1"/>
        <pt x="1056" y="-259" on="0"/>
        <pt x="1056" y="-356" on="1"/>
        <pt x="1056" y="-541" on="0"/>
        <pt x="983" y="-640" on="1"/>
        <pt x="995" y="-647" on="1"/>
        <pt x="1063" y="-647" on="0"/>
        <pt x="1101" y="-500" on="1"/>
        <pt x="1158" y="-278" on="0"/>
        <pt x="1184" y="-230" on="1"/>
        <pt x="1260" y="-83" on="0"/>
        <pt x="1424" y="-83" on="1"/>
        <pt x="1781" y="-83" on="0"/>
        <pt x="1781" y="-467" on="1"/>
        <pt x="1781" y="-581" on="0"/>
        <pt x="1618" y="-716" on="0"/>
        <pt x="1502" y="-716" on="1"/>
        <pt x="1459" y="-716" on="0"/>
        <pt x="1424" y="-707" on="1"/>
        <pt x="1414" y="-655" on="1"/>
        <pt x="1452" y="-671" on="0"/>
        <pt x="1537" y="-671" on="1"/>
        <pt x="1627" y="-671" on="0"/>
        <pt x="1748" y="-541" on="0"/>
        <pt x="1748" y="-448" on="1"/>
        <pt x="1748" y="-354" on="0"/>
        <pt x="1594" y="-221" on="0"/>
        <pt x="1497" y="-221" on="1"/>
        <pt x="1241" y="-221" on="0"/>
        <pt x="1175" y="-346" on="1"/>
        <pt x="1149" y="-465" on="0"/>
        <pt x="1120" y="-583" on="1"/>
        <pt x="1078" y="-709" on="0"/>
        <pt x="878" y="-709" on="1"/>
        <pt x="1023" y="-588" on="0"/>
        <pt x="1023" y="-427" on="1"/>
        <pt x="1023" y="-337" on="0"/>
        <pt x="983" y="-280" on="1"/>
        <pt x="935" y="-214" on="0"/>
        <pt x="850" y="-214" on="1"/>
        <pt x="736" y="-214" on="0"/>
        <pt x="675" y="-330" on="1"/>
        <pt x="668" y="-330" on="1"/>
        <pt x="634" y="-271" on="0"/>
        <pt x="615" y="-252" on="1"/>
        <pt x="582" y="-218" on="0"/>
        <pt x="532" y="-218" on="1"/>
        <pt x="326" y="-218" on="0"/>
        <pt x="326" y="-434" on="1"/>
        <pt x="326" y="-581" on="0"/>
        <pt x="442" y="-704" on="1"/>
        <pt x="345" y="-709" on="1"/>
        <pt x="217" y="-716" on="0"/>
        <pt x="217" y="-444" on="1"/>
        <pt x="217" y="-399" on="0"/>
        <pt x="224" y="-268" on="0"/>
      </contour>
    </TTGlyph>
    <TTGlyph name="uni1B1D" xMin="62" yMin="-396" xMax="1256" yMax="617">
      <contour>
        <pt x="357" y="103" on="1"/>
        <pt x="410" y="107" on="0"/>
        <pt x="443" y="119" on="1"/>
        <pt x="505" y="142" on="0"/>
        <pt x="505" y="177" on="1"/>
        <pt x="505" y="213" on="0"/>
        <pt x="465" y="213" on="1"/>
        <pt x="453" y="213" on="0"/>
        <pt x="422" y="196" on="1"/>
        <pt x="357" y="152" on="0"/>
      </contour>
      <contour>
        <pt x="1225" y="-14" on="1"/>
        <pt x="1225" y="18" on="0"/>
        <pt x="1229" y="146" on="0"/>
        <pt x="1229" y="180" on="1"/>
        <pt x="1229" y="484" on="0"/>
        <pt x="1022" y="484" on="1"/>
        <pt x="887" y="484" on="0"/>
        <pt x="822" y="378" on="1"/>
        <pt x="773" y="481" on="0"/>
        <pt x="598" y="481" on="1"/>
        <pt x="555" y="481" on="0"/>
        <pt x="462" y="426" on="0"/>
        <pt x="450" y="386" on="1"/>
        <pt x="428" y="383" on="1"/>
        <pt x="432" y="476" on="0"/>
        <pt x="546" y="617" on="0"/>
        <pt x="638" y="617" on="1"/>
        <pt x="705" y="617" on="0"/>
        <pt x="755" y="559" on="1"/>
        <pt x="767" y="544" on="0"/>
        <pt x="825" y="442" on="1"/>
        <pt x="902" y="617" on="0"/>
        <pt x="1031" y="617" on="1"/>
        <pt x="1256" y="617" on="0"/>
        <pt x="1256" y="306" on="1"/>
        <pt x="1256" y="-17" on="1"/>
      </contour>
      <contour>
        <pt x="478" y="-396" on="1"/>
        <pt x="373" y="-396" on="0"/>
        <pt x="317" y="-307" on="1"/>
        <pt x="271" y="-230" on="0"/>
        <pt x="271" y="-118" on="1"/>
        <pt x="271" y="-78" on="0"/>
        <pt x="277" y="-41" on="1"/>
        <pt x="172" y="-2" on="0"/>
        <pt x="136" y="29" on="1"/>
        <pt x="86" y="76" on="0"/>
        <pt x="86" y="174" on="1"/>
        <pt x="86" y="251" on="0"/>
        <pt x="214" y="457" on="0"/>
        <pt x="214" y="491" on="1"/>
        <pt x="214" y="497" on="0"/>
        <pt x="188" y="516" on="0"/>
        <pt x="182" y="516" on="1"/>
        <pt x="136" y="516" on="0"/>
        <pt x="81" y="407" on="1"/>
        <pt x="62" y="407" on="1"/>
        <pt x="71" y="479" on="0"/>
        <pt x="115" y="540" on="1"/>
        <pt x="164" y="612" on="0"/>
        <pt x="231" y="612" on="1"/>
        <pt x="293" y="612" on="0"/>
        <pt x="293" y="533" on="1"/>
        <pt x="293" y="472" on="0"/>
        <pt x="135" y="282" on="0"/>
        <pt x="135" y="217" on="1"/>
        <pt x="135" y="100" on="0"/>
        <pt x="320" y="100" on="1"/>
        <pt x="364" y="251" on="0"/>
        <pt x="499" y="251" on="1"/>
        <pt x="542" y="251" on="0"/>
        <pt x="542" y="158" on="1"/>
        <pt x="542" y="79" on="0"/>
        <pt x="465" y="23" on="1"/>
        <pt x="397" y="-26" on="0"/>
        <pt x="311" y="-36" on="1"/>
        <pt x="305" y="-78" on="0"/>
        <pt x="305" y="-97" on="1"/>
        <pt x="305" y="-298" on="0"/>
        <pt x="523" y="-298" on="1"/>
        <pt x="631" y="-298" on="0"/>
        <pt x="724" y="-99" on="1"/>
        <pt x="740" y="-101" on="1"/>
        <pt x="681" y="-396" on="0"/>
      </contour>
    </TTGlyph>
    <TTGlyph name="uni1B1D.conj" xMin="92" yMin="-716" xMax="1149" yMax="-181">
      <contour>
        <pt x="476" y="-716" on="1"/>
        <pt x="317" y="-716" on="0"/>
        <pt x="92" y="-489" on="0"/>
        <pt x="92" y="-330" on="1"/>
        <pt x="92" y="-280" on="0"/>
        <pt x="106" y="-181" on="1"/>
        <pt x="137" y="-181" on="1"/>
        <pt x="120" y="-226" on="0"/>
        <pt x="120" y="-323" on="1"/>
        <pt x="120" y="-496" on="0"/>
        <pt x="258" y="-557" on="1"/>
        <pt x="350" y="-600" on="0"/>
        <pt x="547" y="-600" on="1"/>
        <pt x="696" y="-600" on="0"/>
        <pt x="763" y="-564" on="1"/>
        <pt x="687" y="-481" on="0"/>
        <pt x="687" y="-384" on="1"/>
        <pt x="687" y="-308" on="0"/>
        <pt x="817" y="-308" on="1"/>
        <pt x="931" y="-308" on="0"/>
        <pt x="931" y="-406" on="1"/>
        <pt x="931" y="-503" on="0"/>
        <pt x="848" y="-560" on="1"/>
        <pt x="853" y="-569" on="1"/>
        <pt x="888" y="-581" on="0"/>
        <pt x="917" y="-581" on="1"/>
        <pt x="1071" y="-581" on="0"/>
        <pt x="1125" y="-491" on="1"/>
        <pt x="1149" y="-498" on="1"/>
        <pt x="1101" y="-657" on="0"/>
        <pt x="959" y="-657" on="1"/>
        <pt x="888" y="-657" on="0"/>
        <pt x="810" y="-607" on="1"/>
        <pt x="673" y="-716" on="0"/>
      </contour>
      <contour>
        <pt x="732" y="-460" on="1"/>
        <pt x="732" y="-479" on="0"/>
        <pt x="784" y="-543" on="0"/>
        <pt x="803" y="-548" on="1"/>
        <pt x="881" y="-512" on="0"/>
        <pt x="881" y="-462" on="1"/>
        <pt x="881" y="-403" on="0"/>
        <pt x="808" y="-403" on="1"/>
        <pt x="732" y="-403" on="0"/>
      </contour>
    </TTGlyph>
    <TTGlyph name="uni1B1D_uni1B35" xMin="72" yMin="-384" xMax="1455" yMax="619">
      <contour>
        <pt x="362" y="109" on="1"/>
        <pt x="405" y="109" on="0"/>
        <pt x="450" y="128" on="1"/>
        <pt x="506" y="149" on="0"/>
        <pt x="506" y="185" on="1"/>
        <pt x="506" y="194" on="0"/>
        <pt x="478" y="218" on="0"/>
        <pt x="469" y="218" on="1"/>
        <pt x="398" y="218" on="0"/>
      </contour>
      <contour>
        <pt x="1108" y="-9" on="1"/>
        <pt x="1097" y="41" on="1"/>
        <pt x="1144" y="26" on="0"/>
        <pt x="1189" y="26" on="1"/>
        <pt x="1283" y="26" on="0"/>
        <pt x="1425" y="152" on="0"/>
        <pt x="1425" y="246" on="1"/>
        <pt x="1425" y="480" on="0"/>
        <pt x="1073" y="480" on="1"/>
        <pt x="884" y="480" on="0"/>
        <pt x="837" y="381" on="1"/>
        <pt x="823" y="381" on="1"/>
        <pt x="778" y="492" on="0"/>
        <pt x="634" y="492" on="1"/>
        <pt x="518" y="492" on="0"/>
        <pt x="466" y="407" on="1"/>
        <pt x="454" y="409" on="1"/>
        <pt x="447" y="407" on="1"/>
        <pt x="447" y="487" on="0"/>
        <pt x="554" y="612" on="0"/>
        <pt x="634" y="612" on="1"/>
        <pt x="771" y="612" on="0"/>
        <pt x="835" y="435" on="1"/>
        <pt x="919" y="619" on="0"/>
        <pt x="1104" y="619" on="1"/>
        <pt x="1255" y="619" on="0"/>
        <pt x="1455" y="430" on="0"/>
        <pt x="1455" y="279" on="1"/>
        <pt x="1455" y="147" on="0"/>
        <pt x="1307" y="-16" on="0"/>
        <pt x="1177" y="-16" on="1"/>
        <pt x="1144" y="-16" on="0"/>
      </contour>
      <contour>
        <pt x="459" y="-384" on="1"/>
        <pt x="280" y="-384" on="0"/>
        <pt x="280" y="-108" on="1"/>
        <pt x="280" y="-70" on="0"/>
        <pt x="284" y="-33" on="1"/>
        <pt x="98" y="10" on="0"/>
        <pt x="98" y="170" on="1"/>
        <pt x="98" y="241" on="0"/>
        <pt x="225" y="470" on="0"/>
        <pt x="225" y="487" on="1"/>
        <pt x="225" y="515" on="0"/>
        <pt x="197" y="515" on="1"/>
        <pt x="138" y="515" on="0"/>
        <pt x="93" y="407" on="1"/>
        <pt x="72" y="411" on="1"/>
        <pt x="79" y="480" on="0"/>
        <pt x="122" y="541" on="1"/>
        <pt x="169" y="614" on="0"/>
        <pt x="233" y="614" on="1"/>
        <pt x="261" y="614" on="0"/>
        <pt x="301" y="565" on="0"/>
        <pt x="301" y="536" on="1"/>
        <pt x="301" y="480" on="0"/>
        <pt x="145" y="279" on="0"/>
        <pt x="145" y="220" on="1"/>
        <pt x="145" y="97" on="0"/>
        <pt x="318" y="102" on="1"/>
        <pt x="402" y="260" on="0"/>
        <pt x="480" y="260" on="1"/>
        <pt x="502" y="260" on="0"/>
        <pt x="544" y="227" on="0"/>
        <pt x="544" y="206" on="1"/>
        <pt x="544" y="109" on="0"/>
        <pt x="410" y="-35" on="0"/>
        <pt x="313" y="-35" on="1"/>
        <pt x="313" y="-42" on="0"/>
        <pt x="308" y="-73" on="0"/>
        <pt x="308" y="-80" on="1"/>
        <pt x="308" y="-172" on="0"/>
        <pt x="410" y="-285" on="0"/>
        <pt x="499" y="-285" on="1"/>
        <pt x="575" y="-285" on="0"/>
        <pt x="636" y="-224" on="1"/>
        <pt x="688" y="-169" on="0"/>
        <pt x="712" y="-92" on="1"/>
        <pt x="735" y="-94" on="1"/>
        <pt x="728" y="-214" on="0"/>
        <pt x="577" y="-384" on="0"/>
      </contour>
    </TTGlyph>
    <TTGlyph name="uni1B1E" xMin="104" yMin="-67" xMax="1171" yMax="617">
      <contour>
        <pt x="1140" y="-14" on="1"/>
        <pt x="1140" y="18" on="0"/>
        <pt x="1144" y="146" on="0"/>
        <pt x="1144" y="180" on="1"/>
        <pt x="1144" y="484" on="0"/>
        <pt x="937" y="484" on="1"/>
        <pt x="802" y="484" on="0"/>
        <pt x="737" y="378" on="1"/>
        <pt x="688" y="481" on="0"/>
        <pt x="513" y="481" on="1"/>
        <pt x="470" y="481" on="0"/>
        <pt x="377" y="426" on="0"/>
        <pt x="365" y="386" on="1"/>
        <pt x="343" y="383" on="1"/>
        <pt x="347" y="476" on="0"/>
        <pt x="461" y="617" on="0"/>
        <pt x="553" y="617" on="1"/>
        <pt x="620" y="617" on="0"/>
        <pt x="670" y="559" on="1"/>
        <pt x="682" y="544" on="0"/>
        <pt x="740" y="442" on="1"/>
        <pt x="817" y="617" on="0"/>
        <pt x="946" y="617" on="1"/>
        <pt x="1171" y="617" on="0"/>
        <pt x="1171" y="306" on="1"/>
        <pt x="1171" y="-17" on="1"/>
      </contour>
      <contour>
        <pt x="320" y="16" on="1"/>
        <pt x="333" y="11" on="0"/>
        <pt x="370" y="5" on="0"/>
        <pt x="385" y="5" on="1"/>
        <pt x="402" y="5" on="0"/>
        <pt x="425" y="10" on="1"/>
        <pt x="522" y="51" on="0"/>
        <pt x="574" y="148" on="1"/>
        <pt x="593" y="148" on="1"/>
        <pt x="558" y="-20" on="0"/>
        <pt x="406" y="-65" on="1"/>
        <pt x="398" y="-66" on="0"/>
        <pt x="380" y="-67" on="0"/>
        <pt x="372" y="-67" on="1"/>
        <pt x="334" y="-67" on="0"/>
        <pt x="272" y="-50" on="0"/>
        <pt x="252" y="-38" on="1"/>
        <pt x="215" y="-19" on="0"/>
        <pt x="181" y="16" on="1"/>
        <pt x="131" y="63" on="0"/>
        <pt x="131" y="161" on="1"/>
        <pt x="131" y="238" on="0"/>
        <pt x="221" y="487" on="0"/>
        <pt x="221" y="521" on="1"/>
        <pt x="221" y="527" on="0"/>
        <pt x="195" y="546" on="0"/>
        <pt x="189" y="546" on="1"/>
        <pt x="159" y="512" on="0"/>
        <pt x="149" y="498" on="1"/>
        <pt x="129" y="403" on="1"/>
        <pt x="110" y="403" on="1"/>
        <pt x="104" y="478" on="0"/>
        <pt x="119" y="553" on="1"/>
        <pt x="142" y="617" on="0"/>
        <pt x="209" y="617" on="1"/>
        <pt x="271" y="617" on="0"/>
        <pt x="271" y="538" on="1"/>
        <pt x="271" y="477" on="0"/>
        <pt x="168" y="286" on="0"/>
        <pt x="178" y="200" on="1"/>
        <pt x="180" y="87" on="0"/>
      </contour>
    </TTGlyph>
    <TTGlyph name="uni1B1E.conj" xMin="82" yMin="-716" xMax="921" yMax="-181">
      <contour>
        <pt x="800" y="-607" on="1"/>
        <pt x="663" y="-716" on="0"/>
        <pt x="466" y="-716" on="1"/>
        <pt x="307" y="-716" on="0"/>
        <pt x="82" y="-489" on="0"/>
        <pt x="82" y="-330" on="1"/>
        <pt x="82" y="-280" on="0"/>
        <pt x="96" y="-181" on="1"/>
        <pt x="127" y="-181" on="1"/>
        <pt x="110" y="-226" on="0"/>
        <pt x="110" y="-323" on="1"/>
        <pt x="110" y="-496" on="0"/>
        <pt x="248" y="-557" on="1"/>
        <pt x="340" y="-600" on="0"/>
        <pt x="537" y="-600" on="1"/>
        <pt x="686" y="-600" on="0"/>
        <pt x="753" y="-564" on="1"/>
        <pt x="677" y="-481" on="0"/>
        <pt x="677" y="-384" on="1"/>
        <pt x="677" y="-308" on="0"/>
        <pt x="807" y="-308" on="1"/>
        <pt x="921" y="-308" on="0"/>
        <pt x="921" y="-406" on="1"/>
        <pt x="921" y="-503" on="0"/>
      </contour>
      <contour>
        <pt x="722" y="-460" on="1"/>
        <pt x="722" y="-479" on="0"/>
        <pt x="774" y="-543" on="0"/>
        <pt x="793" y="-548" on="1"/>
        <pt x="871" y="-512" on="0"/>
        <pt x="871" y="-462" on="1"/>
        <pt x="871" y="-403" on="0"/>
        <pt x="798" y="-403" on="1"/>
        <pt x="722" y="-403" on="0"/>
      </contour>
    </TTGlyph>
    <TTGlyph name="uni1B1F" xMin="88" yMin="-17" xMax="943" yMax="617">
      <contour>
        <pt x="789" y="367" on="1"/>
        <pt x="789" y="495" on="0"/>
        <pt x="761" y="617" on="1"/>
        <pt x="843" y="617" on="0"/>
        <pt x="943" y="491" on="0"/>
        <pt x="943" y="406" on="1"/>
        <pt x="943" y="-15" on="1"/>
        <pt x="910" y="-17" on="1"/>
        <pt x="910" y="18" on="0"/>
        <pt x="916" y="151" on="0"/>
        <pt x="908" y="329" on="1"/>
        <pt x="910" y="467" on="0"/>
        <pt x="808" y="486" on="1"/>
        <pt x="817" y="411" on="0"/>
        <pt x="817" y="318" on="1"/>
        <pt x="823" y="-12" on="0"/>
        <pt x="672" y="-12" on="1"/>
        <pt x="609" y="-12" on="0"/>
        <pt x="546" y="174" on="0"/>
        <pt x="516" y="174" on="1"/>
        <pt x="428" y="174" on="0"/>
        <pt x="400" y="125" on="1"/>
        <pt x="384" y="81" on="0"/>
        <pt x="370" y="34" on="1"/>
        <pt x="344" y="-15" on="0"/>
        <pt x="260" y="-15" on="1"/>
        <pt x="200" y="-15" on="0"/>
        <pt x="160" y="44" on="1"/>
        <pt x="128" y="95" on="0"/>
        <pt x="128" y="160" on="1"/>
        <pt x="128" y="234" on="0"/>
        <pt x="239" y="462" on="0"/>
        <pt x="239" y="479" on="1"/>
        <pt x="239" y="481" on="0"/>
        <pt x="235" y="497" on="0"/>
        <pt x="235" y="500" on="1"/>
        <pt x="214" y="516" on="0"/>
        <pt x="195" y="516" on="1"/>
        <pt x="130" y="516" on="0"/>
        <pt x="107" y="355" on="1"/>
        <pt x="88" y="355" on="1"/>
        <pt x="104" y="611" on="0"/>
        <pt x="258" y="611" on="1"/>
        <pt x="307" y="611" on="0"/>
        <pt x="307" y="537" on="1"/>
        <pt x="307" y="486" on="0"/>
        <pt x="167" y="286" on="0"/>
        <pt x="167" y="232" on="1"/>
        <pt x="167" y="162" on="0"/>
        <pt x="209" y="137" on="1"/>
        <pt x="242" y="118" on="0"/>
        <pt x="314" y="118" on="1"/>
        <pt x="367" y="118" on="0"/>
        <pt x="428" y="304" on="0"/>
        <pt x="486" y="304" on="1"/>
        <pt x="549" y="304" on="0"/>
        <pt x="593" y="111" on="0"/>
        <pt x="674" y="111" on="1"/>
        <pt x="779" y="111" on="0"/>
      </contour>
    </TTGlyph>
    <TTGlyph name="uni1B1F.conj" xMin="94" yMin="-713" xMax="925" yMax="-79">
      <contour>
        <pt x="244" y="-82" on="1"/>
        <pt x="177" y="-174" on="0"/>
        <pt x="142" y="-404" on="0"/>
        <pt x="150" y="-474" on="1"/>
        <pt x="156" y="-531" on="0"/>
        <pt x="197" y="-559" on="1"/>
        <pt x="224" y="-578" on="0"/>
        <pt x="296" y="-578" on="1"/>
        <pt x="349" y="-578" on="0"/>
        <pt x="410" y="-392" on="0"/>
        <pt x="468" y="-392" on="1"/>
        <pt x="531" y="-392" on="0"/>
        <pt x="575" y="-585" on="0"/>
        <pt x="656" y="-585" on="1"/>
        <pt x="761" y="-585" on="0"/>
        <pt x="771" y="-329" on="1"/>
        <pt x="771" y="-201" on="0"/>
        <pt x="743" y="-79" on="1"/>
        <pt x="825" y="-79" on="0"/>
        <pt x="925" y="-205" on="0"/>
        <pt x="925" y="-290" on="1"/>
        <pt x="925" y="-711" on="1"/>
        <pt x="892" y="-713" on="1"/>
        <pt x="892" y="-678" on="0"/>
        <pt x="898" y="-545" on="0"/>
        <pt x="890" y="-367" on="1"/>
        <pt x="892" y="-229" on="0"/>
        <pt x="790" y="-210" on="1"/>
        <pt x="799" y="-285" on="0"/>
        <pt x="799" y="-378" on="1"/>
        <pt x="805" y="-708" on="0"/>
        <pt x="654" y="-708" on="1"/>
        <pt x="591" y="-708" on="0"/>
        <pt x="528" y="-522" on="0"/>
        <pt x="498" y="-522" on="1"/>
        <pt x="410" y="-522" on="0"/>
        <pt x="382" y="-571" on="1"/>
        <pt x="366" y="-615" on="0"/>
        <pt x="352" y="-662" on="1"/>
        <pt x="326" y="-711" on="0"/>
        <pt x="242" y="-711" on="1"/>
        <pt x="182" y="-711" on="0"/>
        <pt x="142" y="-652" on="1"/>
        <pt x="110" y="-601" on="0"/>
        <pt x="106" y="-543" on="1"/>
        <pt x="94" y="-453" on="0"/>
        <pt x="156" y="-159" on="0"/>
      </contour>
    </TTGlyph>
    <TTGlyph name="uni1B20" xMin="83" yMin="-15" xMax="818" yMax="614">
      <contour>
        <pt x="784" y="367" on="1"/>
        <pt x="784" y="495" on="0"/>
        <pt x="756" y="614" on="1"/>
        <pt x="778" y="600" on="1"/>
        <pt x="795" y="557" on="0"/>
        <pt x="804" y="484" on="1"/>
        <pt x="812" y="411" on="0"/>
        <pt x="812" y="318" on="1"/>
        <pt x="818" y="-12" on="0"/>
        <pt x="667" y="-12" on="1"/>
        <pt x="604" y="-12" on="0"/>
        <pt x="541" y="174" on="0"/>
        <pt x="511" y="174" on="1"/>
        <pt x="423" y="174" on="0"/>
        <pt x="395" y="125" on="1"/>
        <pt x="379" y="81" on="0"/>
        <pt x="365" y="34" on="1"/>
        <pt x="339" y="-15" on="0"/>
        <pt x="255" y="-15" on="1"/>
        <pt x="195" y="-15" on="0"/>
        <pt x="155" y="44" on="1"/>
        <pt x="123" y="95" on="0"/>
        <pt x="123" y="160" on="1"/>
        <pt x="123" y="234" on="0"/>
        <pt x="234" y="462" on="0"/>
        <pt x="234" y="479" on="1"/>
        <pt x="234" y="481" on="0"/>
        <pt x="230" y="497" on="0"/>
        <pt x="230" y="500" on="1"/>
        <pt x="209" y="516" on="0"/>
        <pt x="190" y="516" on="1"/>
        <pt x="125" y="516" on="0"/>
        <pt x="102" y="355" on="1"/>
        <pt x="83" y="355" on="1"/>
        <pt x="99" y="611" on="0"/>
        <pt x="253" y="611" on="1"/>
        <pt x="302" y="611" on="0"/>
        <pt x="302" y="537" on="1"/>
        <pt x="302" y="486" on="0"/>
        <pt x="162" y="286" on="0"/>
        <pt x="162" y="232" on="1"/>
        <pt x="162" y="162" on="0"/>
        <pt x="204" y="137" on="1"/>
        <pt x="237" y="118" on="0"/>
        <pt x="309" y="118" on="1"/>
        <pt x="362" y="118" on="0"/>
        <pt x="423" y="304" on="0"/>
        <pt x="481" y="304" on="1"/>
        <pt x="544" y="304" on="0"/>
        <pt x="588" y="111" on="0"/>
        <pt x="669" y="111" on="1"/>
        <pt x="774" y="111" on="0"/>
      </contour>
    </TTGlyph>
    <TTGlyph name="uni1B20.conj" xMin="84" yMin="-718" xMax="788" yMax="-89">
      <contour>
        <pt x="247" y="-112" on="1"/>
        <pt x="176" y="-193" on="0"/>
        <pt x="131" y="-415" on="0"/>
        <pt x="132" y="-471" on="1"/>
        <pt x="132" y="-541" on="0"/>
        <pt x="174" y="-566" on="1"/>
        <pt x="207" y="-585" on="0"/>
        <pt x="279" y="-585" on="1"/>
        <pt x="332" y="-585" on="0"/>
        <pt x="393" y="-399" on="0"/>
        <pt x="451" y="-399" on="1"/>
        <pt x="514" y="-399" on="0"/>
        <pt x="558" y="-592" on="0"/>
        <pt x="639" y="-592" on="1"/>
        <pt x="744" y="-592" on="0"/>
        <pt x="754" y="-336" on="1"/>
        <pt x="754" y="-208" on="0"/>
        <pt x="726" y="-89" on="1"/>
        <pt x="748" y="-103" on="1"/>
        <pt x="765" y="-146" on="0"/>
        <pt x="774" y="-219" on="1"/>
        <pt x="782" y="-292" on="0"/>
        <pt x="782" y="-385" on="1"/>
        <pt x="788" y="-715" on="0"/>
        <pt x="637" y="-715" on="1"/>
        <pt x="574" y="-715" on="0"/>
        <pt x="511" y="-529" on="0"/>
        <pt x="481" y="-529" on="1"/>
        <pt x="393" y="-529" on="0"/>
        <pt x="365" y="-578" on="1"/>
        <pt x="349" y="-622" on="0"/>
        <pt x="335" y="-669" on="1"/>
        <pt x="309" y="-718" on="0"/>
        <pt x="225" y="-718" on="1"/>
        <pt x="165" y="-718" on="0"/>
        <pt x="125" y="-659" on="1"/>
        <pt x="93" y="-608" on="0"/>
        <pt x="93" y="-543" on="1"/>
        <pt x="84" y="-464" on="0"/>
        <pt x="149" y="-158" on="0"/>
      </contour>
    </TTGlyph>
</ttFont>
